<?xml version="1.0" standalone="no"?>
<!DOCTYPE svg PUBLIC "-//W3C//DTD SVG 1.1//EN" "http://www.w3.org/Graphics/SVG/1.1/DTD/svg11.dtd" >
<svg>
<metadata>
Created by FontForge 20090914 at Thu Jul 19 16:55:28 2018
 By www-data
Copyright &#194;&#169; 2013, Natanael Gama (www.ndiscovered.com . info(at)ndiscovered.com), with Reserved Font Name Exo. This Font Software is licensed under the SIL Open Font License, Version 1.1.
</metadata>
<defs>
<font id="Exo2-Light" horiz-adv-x="567" >
  <font-face 
    font-family="Exo 2 Light"
    font-weight="300"
    font-stretch="normal"
    units-per-em="1000"
    panose-1="0 0 4 0 0 0 0 0 0 0"
    ascent="800"
    descent="-200"
    x-height="484"
    cap-height="690"
    bbox="-174 -270 1204 929"
    underline-thickness="50"
    underline-position="-50"
    unicode-range="U+0020-U+FB02"
  />
<missing-glyph horiz-adv-x="600" 
 />
    <glyph glyph-name=".notdef" horiz-adv-x="600" 
 />
    <glyph glyph-name="space" unicode=" " horiz-adv-x="226" 
 />
    <glyph glyph-name="exclam" unicode="!" horiz-adv-x="266" 
d="M165 377l-6 -169h-51l-7 169v318h64v-318zM125 107h17c16.667 0 25 -8.33301 25 -25v-57c0 -16.667 -8.33301 -25 -25 -25h-17c-16.667 -0 -25 8.33301 -25 25v57c0 16.667 8.33301 25 25 25z" />
    <glyph glyph-name="quotedbl" unicode="&#x22;" horiz-adv-x="344" 
d="M126 478h-45l-4 212h53zM263 478h-44l-4 212h53z" />
    <glyph glyph-name="numbersign" unicode="#" horiz-adv-x="678" 
d="M511 456l-34 -195h109l-8 -43h-109l-38 -218h-52l37 218h-198l-38 -218h-52l37 218h-115l8 43h115l34 195h-115l8 43h114l34 191h52l-33 -191h198l34 191h52l-33 -191h110l-8 -43h-109zM458 456h-198l-34 -195h198z" />
    <glyph glyph-name="dollar" unicode="$" horiz-adv-x="562" 
d="M308 376l58.998 -12.999c50.667 -10 86.5 -29.833 107.5 -59.5s31.5 -72.834 31.5 -129.501c0 -40 -4.16699 -72.333 -12.5 -97s-22.5 -43.334 -42.5 -56.001s-42.667 -21.167 -68 -25.5s-58.666 -6.5 -99.999 -6.5h-6l-8 -119h-37l9 119
c-53.333 1.33301 -109.666 6.33301 -168.999 15l5 51c80 -4 136 -6 168 -6l18 272l-66 14c-48.667 10 -83.5 29.833 -104.5 59.5s-31.5 72.167 -31.5 127.5c0 40 4.16699 72.167 12.5 96.5s22.5 42.5 42.5 54.5s42 19.833 66 23.5s56.667 5.16699 98 4.5h12l7 100h36
l-6 -101c58 -2.66699 107.667 -7.66699 149 -15l-5 -48c-56 2.66699 -105.333 4.33398 -148 5.00098zM287.998 643.001l-6.00195 -0.000976562c-26 0 -45.667 -0.5 -59 -1.5s-27.333 -3.5 -42 -7.5s-25.167 -10.333 -31.5 -19s-11.666 -20.667 -15.999 -36
s-6.5 -35 -6.5 -59c0 -41.333 7.33301 -71.166 22 -89.499s39.334 -30.833 74.001 -37.5l48 -10zM281.996 49l3 -0.000976562c60.667 0.666992 101.667 8.83398 123 24.501s32 49.5 32 101.5c0 43.333 -7.16699 74 -21.5 92s-39.5 30.333 -75.5 37l-43 9z" />
    <glyph glyph-name="percent" unicode="%" horiz-adv-x="890" 
d="M209 702c58 0 98.667 -15.667 122 -47s35 -83.666 35 -156.999s-11.667 -125.666 -35 -156.999s-64 -47 -122 -47s-98.667 15.667 -122 47s-35 83.666 -35 156.999s11.667 125.666 35 156.999s64 47 122 47zM238 0h-48l459 690h48zM208 661
c-39.333 0 -66.833 -12.333 -82.5 -37s-23.5 -66.667 -23.5 -126c0 -60 7.83301 -102.167 23.5 -126.5s43.167 -36.5 82.5 -36.5c40.667 0 68.667 12.167 84 36.5s23 66.5 23 126.5c0 59.333 -7.83301 101.333 -23.5 126s-43.5 37 -83.5 37zM681 401
c57.333 0 97.833 -15.833 121.5 -47.5s35.5 -84.167 35.5 -157.5s-11.667 -125.666 -35 -156.999s-64 -47 -122 -47s-98.667 15.667 -122 47s-35 83.666 -35 156.999s11.833 125.833 35.5 157.5s64.167 47.5 121.5 47.5zM680 359c-39.333 0 -66.833 -12.333 -82.5 -37
s-23.167 -66.667 -22.5 -126c-0.666992 -59.333 6.83301 -101.333 22.5 -126s43.167 -37 82.5 -37c40 0 67.833 12.167 83.5 36.5s23.5 66.5 23.5 126.5s-7.83301 102.167 -23.5 126.5s-43.5 36.5 -83.5 36.5z" />
    <glyph glyph-name="ampersand" unicode="&#x26;" horiz-adv-x="776" 
d="M718 48l7.00293 -45.999c-32 -6.66699 -64.667 -10 -98 -10c-70.667 0 -109.667 30.333 -117 91c-30.667 -33.333 -64.334 -57 -101.001 -71s-82.334 -21 -137.001 -21c-73.333 0 -125 13.333 -155 40s-45 74.334 -45 143.001c0 56 10.333 99.333 31 130
s55.667 48 105 52v4c-42 3.33301 -71.833 18.166 -89.5 44.499s-26.5 65.166 -26.5 116.499c0 39.333 4.66699 71 14 95s25.666 42 48.999 54s49.333 19.833 78 23.5s68 5.5 118 5.5c60 0 113 -3 159 -9l-8 -49c-24 2 -75 3 -153 3c-75.333 0 -126 -8 -152 -24
s-39 -51.667 -39 -107c0 -51.333 10.667 -85.833 32 -103.5s60.333 -26.5 117 -26.5h203l7 138h52v-138h131l-1 -51h-130v-213c0 -24.667 5.66699 -42.667 17 -54s29 -17 53 -17h79zM509.003 332.001h-205c-61.333 0 -104 -10.5 -128 -31.5s-36 -59.833 -36 -116.5
c0 -52 10.5 -87.667 31.5 -107s58.833 -29 113.5 -29c95.333 0 170 30.333 224 91v193z" />
    <glyph glyph-name="quotesingle" unicode="'" horiz-adv-x="206" 
d="M126 478h-45l-4 212h53z" />
    <glyph glyph-name="parenleft" unicode="(" horiz-adv-x="358" 
d="M313 790l8 -32.999c-68.667 -34 -119 -87.333 -151 -160s-48 -167.334 -48 -284.001c0 -114.667 16 -208.5 48 -281.5s82.333 -127.5 151 -163.5l-8 -33c-87.333 36.667 -151.5 93.5 -192.5 170.5s-61.5 179.167 -61.5 306.5c0 128 20.5 230.667 61.5 308
s105.167 134 192.5 170z" />
    <glyph glyph-name="parenright" unicode=")" horiz-adv-x="358" 
d="M37 757l8 32.999c87.333 -36 151.5 -92.667 192.5 -170s61.5 -180 61.5 -308c0 -127.333 -20.5 -229.5 -61.5 -306.5s-105.167 -133.833 -192.5 -170.5l-8 33c68.667 36 119 90.5 151 163.5s48 166.833 48 281.5c0 116.667 -16 211.334 -48 284.001s-82.333 126 -151 160
z" />
    <glyph glyph-name="asterisk" unicode="*" horiz-adv-x="451" 
d="M240 533l98 -129l-33 -25l-80 125l-79 -124l-34 25l98 128l-5 157h42zM194 553l-1 -18l-8 -12l-125 36l14 39zM391 557l-125 -34l-9 12v18l121 44z" />
    <glyph glyph-name="plus" unicode="+" horiz-adv-x="552" 
d="M491 274h-191v-181h-49v181h-191v49h190v180h50v-180h191v-49z" />
    <glyph glyph-name="comma" unicode="," horiz-adv-x="221" 
d="M101 107h20c16 0 24 -8.33301 24 -25v-64c-1.33301 -53.333 -11 -101.333 -29 -144l-30 9c5.33301 42.667 8 81.667 8 117c-13.333 0 -19.333 7 -18 21v61c0.666992 16.667 9 25 25 25z" />
    <glyph glyph-name="hyphen" unicode="-" horiz-adv-x="461" 
d="M384 227h-307v50h307v-50z" />
    <glyph glyph-name="period" unicode="." horiz-adv-x="221" 
d="M99 107h22c16.667 0 25 -8.33301 25 -25v-57c0 -16.667 -8.33301 -25 -25 -25h-22c-16 -0 -24 8.33301 -24 25v57c0 16.667 8 25 24 25z" />
    <glyph glyph-name="slash" unicode="/" horiz-adv-x="509" 
d="M85 -63h-54l393 753h54z" />
    <glyph glyph-name="zero" unicode="0" horiz-adv-x="596" 
d="M298 702c84 0 143.333 -27.833 178 -83.5s52 -146.834 52 -273.501s-17.333 -217.834 -52 -273.501s-94 -83.5 -178 -83.5s-143.167 27.833 -177.5 83.5s-51.5 146.834 -51.5 273.501s17.167 217.834 51.5 273.501s93.5 83.5 177.5 83.5zM298 645
c-61.333 0 -104.166 -23 -128.499 -69s-36.5 -123 -36.5 -231s12.167 -185 36.5 -231s67.166 -69 128.499 -69s104.166 23 128.499 69s36.5 123 36.5 231s-12.167 185 -36.5 231s-67.166 69 -128.499 69z" />
    <glyph glyph-name="one" unicode="1" horiz-adv-x="391" 
d="M274 0h-66v572c0 20.667 1.33301 39 4 55l-175 -56l-9 47l180 72h66v-690z" />
    <glyph glyph-name="two" unicode="2" horiz-adv-x="560" 
d="M69 625l-6.00195 51c74.667 17.333 143.334 26 206.001 26c71.333 0 123.833 -9.83301 157.5 -29.5s50.5 -58.167 50.5 -115.5c0 -43.333 -9.66699 -84 -29 -122s-52.666 -83.667 -99.999 -137l-210 -238c24.667 1.33301 63 2 115 2h251v-62h-446v40
c0 12.667 3.33301 22.667 10 30l214 244c46 51.333 79 95.833 99 133.5s29.667 74.167 29 109.5c-1.33301 36 -13.333 59.5 -36 70.5s-58.667 16.5 -108 16.5c-63.333 0 -129 -6.33301 -197 -19z" />
    <glyph glyph-name="three" unicode="3" horiz-adv-x="555" 
d="M73 635l-6.99707 50c69.333 11.333 132 17 188 17c77.333 0 131.833 -11.667 163.5 -35s47.5 -64.666 47.5 -123.999c0 -102 -35 -160 -105 -174v-4c44 -7.33301 75.167 -25.5 93.5 -54.5s28.166 -68.5 29.499 -118.5c1.33301 -70.667 -14.334 -122.334 -47.001 -155.001
s-88.334 -49 -167.001 -49c-57.333 0 -128.666 5.66699 -213.999 17l6 52c78 -7.33301 142.667 -11 194 -11c58.667 0 100.5 11.5 125.5 34.5s37.5 62.167 37.5 117.5c0 44.667 -10.333 79 -31 103s-60 36.333 -118 37h-128v51l128 1c28.667 0.666992 52.5 5 71.5 13
s32.667 19.333 41 34s13.833 29 16.5 43s4 30.667 4 50c-0.666992 46 -11.834 76.5 -33.501 91.5s-62.167 22.5 -121.5 22.5c-60.667 0 -118.667 -3 -174 -9z" />
    <glyph glyph-name="four" unicode="4" horiz-adv-x="608" 
d="M560 186l-85.999 -6.99902v-179h-63v179h-301c-25.333 0 -44.333 10.167 -57 30.5s-13.334 42.166 -2.00098 65.499l206 415h65l-204 -414c-6 -12.667 -6.33301 -23 -1 -31s14.333 -12 27 -12h267v211l13 115h50v-326h86v-47z" />
    <glyph glyph-name="five" unicode="5" horiz-adv-x="533" 
d="M449 634l-296.996 -0.000976562l-11 -215l68 -4c97.333 -5.33301 165.666 -22.5 204.999 -51.5s58.666 -81.833 57.999 -158.5c0 -24 -1.5 -45.5 -4.5 -64.5s-9 -38.5 -18 -58.5s-21.333 -36.5 -37 -49.5s-36.834 -23.667 -63.501 -32s-58.334 -12.5 -95.001 -12.5
c-58 0 -123.667 8.66699 -197 26l8 52c68.667 -13.333 127 -20 175 -20c66.667 0 111.167 12.833 133.5 38.5s33.833 65.834 34.5 120.501c0 20.667 -1.5 38.5 -4.5 53.5s-7.16699 28 -12.5 39s-14 20.167 -26 27.5s-23.667 13.166 -35 17.499s-28 7.83301 -50 10.5
s-42.167 4.5 -60.5 5.5s-43.833 2.16699 -76.5 3.5l-34 3c-8 0 -14.5 2.83301 -19.5 8.5s-7.16699 12.834 -6.5 21.501l15 295h354z" />
    <glyph glyph-name="six" unicode="6" horiz-adv-x="569" 
d="M466 688l-8 -48.0029c-28 4 -69.333 6 -124 6c-50 0 -87.833 -6.66699 -113.5 -20s-45.5 -40.166 -59.5 -80.499s-22 -100.5 -24 -180.5c26 30.667 52.833 52 80.5 64s62.167 18 103.5 18c72 0 121.5 -16.833 148.5 -50.5s40.5 -93.5 40.5 -179.5
c0 -38.667 -2.66699 -70.667 -8 -96s-15.166 -48.666 -29.499 -69.999s-36 -37.166 -65 -47.499s-65.833 -15.5 -110.5 -15.5c-48 0 -86.5 5.16699 -115.5 15.5s-51.667 29.333 -68 57s-27.333 61 -33 100s-8.5 91.5 -8.5 157.5c0 82.667 4.66699 149.5 14 200.5
s25.666 90 48.999 117s49.833 44.833 79.5 53.5s69.5 13 119.5 13c52.667 0 96.667 -4.66699 132 -14zM298 43.9971c61.333 0 101.502 13.5 120.502 40.5s28.5 71.5 28.5 133.5c0 64.667 -9.83301 110 -29.5 136s-56.834 39 -111.501 39c-32.667 0 -61.5 -5.33301 -86.5 -16
s-52.5 -30.334 -82.5 -59.001v-3c0 -44.667 0.833008 -80.167 2.5 -106.5s5.5 -51.5 11.5 -75.5s15 -41.667 27 -53s27.667 -20.166 47 -26.499s43.666 -9.5 72.999 -9.5z" />
    <glyph glyph-name="seven" unicode="7" horiz-adv-x="510" 
d="M42 690h386c38 0 51.333 -18 40 -54l-219 -636h-66l203 588c1.33301 4 7.33301 19.333 18 46h-359z" />
    <glyph glyph-name="eight" unicode="8" horiz-adv-x="609" 
d="M188 356v4.00098c-65.333 7.33301 -98 60 -98 158c0 65.333 15.167 111.833 45.5 139.5s86.833 41.5 169.5 41.5s139 -13.833 169 -41.5s45 -74.167 45 -139.5c0 -98 -32.667 -150.667 -98 -158v-4c41.333 -4.66699 70.5 -22 87.5 -52s25.5 -74 25.5 -132
c0 -66 -15.667 -112.5 -47 -139.5s-92 -40.833 -182 -41.5c-88.667 -0.666992 -149.167 12.666 -181.5 39.999s-48.5 74.333 -48.5 141c0 58 8.5 102.167 25.5 132.5s46.167 47.5 87.5 51.5zM305 645.001c-61.333 0 -102.5 -9.33301 -123.5 -28
s-31.5 -53.334 -31.5 -104.001c0 -52.667 10.167 -87.167 30.5 -103.5s62.166 -24.5 125.499 -24.5c64 0 105.333 8 124 24s28 50.667 28 104c0 50.667 -10.167 85.334 -30.5 104.001s-61.166 28 -122.499 28zM306 331.001
c-69.333 -0.666992 -114.834 -10.166 -136.501 -28.499s-32.5 -57.833 -32.5 -118.5c0 -51.333 11.5 -86.833 34.5 -106.5s67.5 -29.5 133.5 -29.5s110.167 9.66699 132.5 29s33.5 55 33.5 107c0 61.333 -10.667 101.166 -32 119.499s-65.666 27.5 -132.999 27.5z" />
    <glyph glyph-name="nine" unicode="9" horiz-adv-x="570" 
d="M93 2l8.00293 47.9971c37.333 -3.33301 81.333 -5 132 -5c38 0 68.333 3.5 91 10.5s42.334 20.833 59.001 41.5s28.5 49.334 35.5 86.001s11.167 84.667 12.5 144c-26.667 -31.333 -53.834 -53.166 -81.501 -65.499s-62.5 -18.5 -104.5 -18.5
c-66.667 0 -114.334 19.333 -143.001 58s-43 94.334 -43 167.001c0 80 16 139 48 177s87.667 57 167 57c40 0 73.167 -4 99.5 -12s47.666 -19.167 63.999 -33.5s28.666 -36.666 36.999 -66.999s13.833 -62.666 16.5 -96.999s4 -80.5 4 -138.5
c0 -62.667 -3.33301 -115.334 -10 -158.001s-16 -77.834 -28 -105.501s-29.167 -49 -51.5 -64s-46.666 -25.167 -72.999 -30.5s-59.5 -8 -99.5 -8c-54.667 0 -101.334 4.66699 -140.001 14zM261.003 295.997c32.667 0 61.502 5.49805 86.502 16.498s52.833 31.167 83.5 60.5
c0 39.333 -0.5 70.333 -1.5 93s-3.33301 45.834 -7 69.501s-8.83398 41.334 -15.501 53.001s-15.834 22.5 -27.501 32.5s-26.167 16.667 -43.5 20s-38.333 5 -63 5c-58.667 0 -98.5 -14.5 -119.5 -43.5s-31.5 -74.167 -31.5 -135.5c0 -58 10.167 -101 30.5 -129
s56.5 -42 108.5 -42z" />
    <glyph glyph-name="colon" unicode=":" horiz-adv-x="225" 
d="M100 437h22c16 0 24 -8.33301 24 -25v-57c0 -16.667 -8 -25 -24 -25h-22c-16.667 0 -25 8.33301 -25 25v57c0 16.667 8.33301 25 25 25zM100 107h22c16 0 24 -8.33301 24 -25v-57c0 -16.667 -8 -25 -24 -25h-22c-16.667 -0 -25 8.33301 -25 25v57
c0 16.667 8.33301 25 25 25z" />
    <glyph glyph-name="semicolon" unicode=";" horiz-adv-x="227" 
d="M103 437h21c16.667 0 25 -8.33301 25 -25v-57c0 -16.667 -8.33301 -25 -25 -25h-21c-16.667 0 -25 8.33301 -25 25v57c0 16.667 8.33301 25 25 25zM105 107h19.001c16 0 24 -8.33301 24 -25v-64c-1.33301 -53.333 -11 -101.333 -29 -144l-30 9
c5.33301 42.667 8 81.667 8 117c-12.667 0 -18.334 7 -17.001 21v61c0 16.667 8.33301 25 25 25z" />
    <glyph glyph-name="less" unicode="&#x3c;" horiz-adv-x="534" 
d="M459 448l-346 -151l346 -147v-52l-402 173v51l402 178v-52z" />
    <glyph glyph-name="equal" unicode="=" horiz-adv-x="587" 
d="M509 373h-431v49h431v-49zM509 162h-431v49h431v-49z" />
    <glyph glyph-name="greater" unicode="&#x3e;" horiz-adv-x="534" 
d="M476 322v-51l-401 -173v52l345 147l-345 151v52z" />
    <glyph glyph-name="question" unicode="?" horiz-adv-x="506" 
d="M48 646l-4.99902 45.998c5.33301 0.666992 17.166 2.66699 35.499 6s30.833 5.33301 37.5 6l34 3.5c16 1.66699 32.333 2.83398 49 3.50098s36 1 58 1c133.333 0 200 -51.667 200 -155c0 -27.333 -6.16699 -52.833 -18.5 -76.5s-27.5 -44.5 -45.5 -62.5l-54 -54.5
c-18 -18.333 -33.333 -40.833 -46 -67.5s-19.334 -56 -20.001 -88h-56c-0.666992 34.667 4.83301 66.334 16.5 95.001s26 52.5 43 71.5s34.167 37.167 51.5 54.5s32 36 44 56s18.333 41 19 63c0.666992 37.333 -10.666 65 -33.999 83s-60.333 27 -111 27
c-55.333 0 -121.333 -4 -198 -12zM235.001 106.998h18c16.667 0 25 -8.33301 25 -25v-57c0 -16.667 -8.33301 -25 -25 -25h-18c-16 0 -24 8.33301 -24 25v57c0 16.667 8 25 24 25z" />
    <glyph glyph-name="at" unicode="@" horiz-adv-x="709" 
d="M346 578l142.997 -0.000976562c46.667 0 82.167 -10.5 106.5 -31.5s36.5 -54.833 36.5 -101.5v-314h-47l-7 77c-22 -21.333 -52.667 -40.666 -92 -57.999s-78.666 -26 -117.999 -26c-40 0 -71.5 9.83301 -94.5 29.5s-34.5 47.834 -34.5 84.501v52c0 32 10 56.833 30 74.5
s48.333 26.5 85 26.5h219v52c0 28 -7 48.667 -21 62s-38.667 20 -74 20h-131c-25.333 0 -45.5 -0.333008 -60.5 -1s-30.667 -2.33398 -47 -5.00098s-28.666 -6.16699 -36.999 -10.5s-16.833 -11.333 -25.5 -21s-14.667 -20.167 -18 -31.5s-6.66602 -26.666 -9.99902 -45.999
s-5.33301 -40 -6 -62s-1 -49.333 -1 -82c0 -34 0.333008 -62.333 1 -85s2.83398 -44 6.50098 -64s7.33398 -35.833 11.001 -47.5s10.5 -22.334 20.5 -32.001s19.667 -16.667 29 -21s23.5 -8 42.5 -11s37 -4.66699 54 -5s40.5 -0.5 70.5 -0.5h252v-48
c-83.333 -4 -167 -6 -251 -6c-47.333 -0.666992 -85.5 0 -114.5 2s-55.667 7.5 -80 16.5s-42.333 19.833 -54 32.5s-21.5 32.167 -29.5 58.5s-13 55 -15 86s-3 72.167 -3 123.5c0 50 0.833008 89.833 2.5 119.5s6.16699 57.5 13.5 83.5s16.166 45.167 26.499 57.5
s26.166 23 47.499 32s45 14.667 71 17s60.333 3.5 103 3.5zM572.997 351.999l-200 -4c-49.333 -2 -74 -23.667 -74 -65v-35c0 -48 26.333 -72 79 -72c31.333 -0.666992 65.5 5.83301 102.5 19.5s67.833 31.167 92.5 52.5v104z" />
    <glyph glyph-name="A" unicode="A" horiz-adv-x="615" 
d="M458 228h-301l-76 -228h-68l231 671c4 12.667 12.667 19 26 19h75c13.333 0 22 -6.33301 26 -19l231 -671h-68zM439 285l-98.999 296.999c-0.666992 3.33301 -3.33398 11.833 -8.00098 25.5s-8 23.834 -10 30.501h-28l-19 -56l-99 -297h263z" />
    <glyph glyph-name="B" unicode="B" horiz-adv-x="617" 
d="M416 360l0.000976562 -4.00195c50 -4.66699 85.5 -22.167 106.5 -52.5s31.5 -74.166 31.5 -131.499c0 -69.333 -16.167 -116.666 -48.5 -141.999s-88.833 -38 -169.5 -38c-104.667 0 -185.667 2.66699 -243 8v690c50 5.33301 121 8 213 8
c85.333 0 144.5 -12.5 177.5 -37.5s49.5 -72.5 49.5 -142.5c0 -50 -9.33301 -87.833 -28 -113.5s-48.334 -40.5 -89.001 -44.5zM157.001 382.998h163.001c56.667 0.666992 95.667 9.66699 117 27s32 51 32 101c0 52 -11.833 86.833 -35.5 104.5s-66.834 26.5 -129.501 26.5
c-73.333 0 -122.333 -0.333008 -147 -1v-258zM157.002 331.998l-0.000976562 -282c56 -1.33301 113 -2 171 -2c60.667 0 102.334 9 125.001 27s34 53.333 34 106c0 58 -12 97.333 -36 118s-67.667 31.667 -131 33h-163z" />
    <glyph glyph-name="C" unicode="C" 
d="M521 58l8.00098 -48.998c-52 -14 -118 -21 -198 -21c-97.333 0 -165.666 26.667 -204.999 80s-59 145.666 -59 276.999s19.667 223.666 59 276.999s107.666 80 204.999 80c72.667 0 134 -6.33301 184 -19l-8 -49c-50.667 6 -109.334 9 -176.001 9
c-73.333 0 -124.333 -21.667 -153 -65s-43 -121 -43 -233s14.333 -189.667 43 -233s79.667 -65 153 -65c76 0 139.333 3.66699 190 11z" />
    <glyph glyph-name="D" unicode="D" horiz-adv-x="662" 
d="M93 0l-0.000976562 689.998c82.667 6 162.334 9 239.001 9c97.333 0 165.5 -26.167 204.5 -78.5s58.5 -144.166 58.5 -275.499s-19.5 -223.166 -58.5 -275.499s-107.167 -78.5 -204.5 -78.5c-75.333 0 -155 3 -239 9zM157.999 638.998v-588.001
c66.667 -1.33301 124.667 -2 174 -2c72.667 0 123.167 21.667 151.5 65s42.5 120.333 42.5 231s-14.167 187.834 -42.5 231.501s-78.833 65.5 -151.5 65.5c-12 0 -70 -1 -174 -3z" />
    <glyph glyph-name="E" unicode="E" horiz-adv-x="557" 
d="M500 55l4 -50.002c-62.667 -4 -161 -6 -295 -6c-36.667 0 -66.167 10.333 -88.5 31s-33.5 48.334 -33.5 83.001v464c0 34.667 11.167 62.334 33.5 83.001s51.833 31 88.5 31c134 0 232.333 -2 295 -6l-4 -50h-280c-44.667 0 -67 -24.333 -67 -73v-169h308v-53h-308v-213
c0 -48 22.333 -72 67 -72h280z" />
    <glyph glyph-name="F" unicode="F" horiz-adv-x="536" 
d="M495 635h-267c-48 0 -72 -24.333 -72 -73v-177h300v-53h-300v-332h-66v574c0 36 11.167 64.5 33.5 85.5s51.833 31.5 88.5 31.5c130 0 225.667 -2 287 -6z" />
    <glyph glyph-name="G" unicode="G" horiz-adv-x="626" 
d="M553 399l0.00195312 -399h-47l-9 78c-58.667 -60 -128.334 -90 -209.001 -90c-78.667 0 -135.167 28.333 -169.5 85s-51.5 147.667 -51.5 273c0 134 20.333 226.833 61 278.5s112.667 77.5 216 77.5c76 0 140.667 -6.33301 194 -19l-8 -49
c-60 6.66699 -120.667 10 -182 10c-54.667 0 -96.667 -8.33301 -126 -25s-51 -46.5 -65 -89.5s-21 -105.167 -21 -186.5c0 -108 12.667 -184.667 38 -230s69 -68 131 -68c24.667 0 49 4.33301 73 13s43.167 17.667 57.5 27s32.166 22.333 53.499 39v275h64z" />
    <glyph glyph-name="H" unicode="H" horiz-adv-x="664" 
d="M571 690v-690h-65v341h-348v-341h-65v690h65v-293h348v293h65z" />
    <glyph glyph-name="I" unicode="I" horiz-adv-x="251" 
d="M158 0h-65v690h65v-690z" />
    <glyph glyph-name="J" unicode="J" horiz-adv-x="334" 
d="M245 690v-556c0 -94.667 -43.333 -142 -130 -142c-26.667 0 -54 3.33301 -82 10l7 46h53c57.333 0 86 28 86 84v558h66z" />
    <glyph glyph-name="K" unicode="K" horiz-adv-x="581" 
d="M248 333h-96c4 -27.333 6 -53.333 6 -78v-255h-65v690h65v-223c0 -27.333 -2 -54 -6 -80h96l221 303h73l-212 -293c-7.33301 -11.333 -18 -23.333 -32 -36v-3c14 -12.667 25.667 -25.667 35 -39l224 -319h-74z" />
    <glyph glyph-name="L" unicode="L" horiz-adv-x="511" 
d="M156 690v-562c0 -48.667 24 -73 72 -73h257l2 -50c-70.667 -4 -160.667 -6 -270 -6c-42 0 -73.667 11 -95 33s-32 51 -32 87v571h66z" />
    <glyph glyph-name="M" unicode="M" horiz-adv-x="869" 
d="M654 690l78 -0.00195312c19.333 0 29 -9.66699 29 -29l29 -661h-65l-27 635h-22l-179 -541c-4.66699 -14.667 -14.667 -22 -30 -22h-66c-15.333 0 -25.333 7.33301 -30 22l-180 541h-21l-26 -635h-65l28 661c0 19.333 9.66699 29 29 29h79c14 0 23.667 -7.66699 29 -23
l151 -450c10.667 -33.333 20 -64.666 28 -93.999h22c4 14.667 13.667 46.334 29 95.001l151 449c4 15.333 13.667 23 29 23z" />
    <glyph glyph-name="N" unicode="N" horiz-adv-x="699" 
d="M606 690v-662c0 -18.667 -9 -28 -27 -28h-70c-14.667 -0 -25.334 7.33301 -32.001 22l-263 524c-24.667 51.333 -37.667 79 -39 83h-19c1.33301 -18 2 -45.667 2 -83v-546h-65v662c0 18.667 9 28 27 28h68c14.667 0 25.334 -7.33301 32.001 -22l257 -512l46 -93h21
c-2 32.667 -3 65.667 -3 99v528h65z" />
    <glyph glyph-name="O" unicode="O" horiz-adv-x="666" 
d="M333 702c98.667 0 167.667 -26.167 207 -78.5s59 -145.166 59 -278.499s-19.667 -226.166 -59 -278.499s-108.333 -78.5 -207 -78.5s-167.667 26.167 -207 78.5s-59 145.166 -59 278.499s19.667 226.166 59 278.499s108.333 78.5 207 78.5zM333 644
c-74 0 -125.5 -21.833 -154.5 -65.5s-43.5 -121.5 -43.5 -233.5s14.5 -189.833 43.5 -233.5s80.5 -65.5 154.5 -65.5s125.333 21.833 154 65.5s43 121.5 43 233.5s-14.333 189.833 -43 233.5s-80 65.5 -154 65.5z" />
    <glyph glyph-name="P" unicode="P" horiz-adv-x="587" 
d="M93 0l-0.000976562 690c55.333 5.33301 132.333 8 231 8c80.667 0 136.5 -14.833 167.5 -44.5s46.5 -85.167 46.5 -166.5s-15.167 -136.833 -45.5 -166.5s-84.166 -44.5 -161.499 -44.5c-58 0 -115.667 2.66699 -173 8v-284h-65zM157.999 333h165
c56 0.666992 94.667 11.5 116 32.5s32 61.5 32 121.5c0 60.667 -10.667 101.667 -32 123s-60 32 -116 32c-56.667 0 -111.667 -0.666992 -165 -2v-307z" />
    <glyph glyph-name="Q" unicode="Q" horiz-adv-x="667" 
d="M333 702c98.667 0 167.834 -26.167 207.501 -78.5s59.5 -145.166 59.5 -278.499s-19.833 -226.166 -59.5 -278.499s-108.834 -78.5 -207.501 -78.5s-167.667 26.167 -207 78.5s-59 145.166 -59 278.499s19.667 226.166 59 278.499s108.333 78.5 207 78.5zM333 644
c-74 0 -125.333 -21.833 -154 -65.5s-43 -121.5 -43 -233.5s14.333 -189.833 43 -233.5s80 -65.5 154 -65.5s125.5 21.833 154.5 65.5s43.5 121.5 43.5 233.5s-14.5 189.833 -43.5 233.5s-80.5 65.5 -154.5 65.5zM275 -85l20 39c71.333 -36 155 -61 251 -75l-21 -66
c-90 16.667 -173.333 50.667 -250 102z" />
    <glyph glyph-name="R" unicode="R" horiz-adv-x="614" 
d="M564 0l-69.999 0.000976562l-66 217c-18.667 52.667 -51.667 79 -99 79c-60.667 0 -117.667 0.666992 -171 2v-298h-65v690c55.333 5.33301 132.333 8 231 8c79.333 0 135 -13.833 167 -41.5s48 -79.5 48 -155.5c0 -58 -9.83301 -100.833 -29.5 -128.5
s-52.167 -44.834 -97.5 -51.501v-4c39.333 -11.333 66.666 -44 81.999 -98zM158.001 353.001l165.999 0.000976562c56 0.666992 94.833 11.167 116.5 31.5s32.5 58.166 32.5 113.499c0 56 -10.833 94 -32.5 114s-60.5 30 -116.5 30
c-57.333 0 -112.666 -0.666992 -165.999 -2v-287z" />
    <glyph glyph-name="S" unicode="S" horiz-adv-x="559" 
d="M341 304l-147 31.001c-48.667 10 -83.334 29.833 -104.001 59.5s-31 72.167 -31 127.5c0 40 4 72.167 12 96.5s22 42.5 42 54.5s42 19.833 66 23.5s56.667 5.16699 98 4.5c74 0 140.333 -5.33301 199 -16l-5 -48c-78.667 4 -142.334 6 -191.001 6
c-32.667 0 -56.667 -0.833008 -72 -2.5s-30.5 -6.5 -45.5 -14.5s-25 -20.333 -30 -37s-7.5 -39.667 -7.5 -69c0 -41.333 7.16699 -71.166 21.5 -89.499s38.833 -30.833 73.5 -37.5l144 -30c51.333 -10 87.5 -29.833 108.5 -59.5s31.5 -72.834 31.5 -129.501
c0 -40 -4.33301 -72.333 -13 -97s-23 -43.334 -43 -56.001s-42.667 -21.167 -68 -25.5s-58.666 -6.5 -99.999 -6.5c-76 0 -146 5 -210 15l4 49c82.667 -4 152 -6 208 -6c60.667 0.666992 101.667 9 123 25s32 50.333 32 103c0 43.333 -7.16699 74 -21.5 92
s-39.166 30.333 -74.499 37z" />
    <glyph glyph-name="T" unicode="T" horiz-adv-x="575" 
d="M550 632h-230v-632h-66v632h-229v58h525v-58z" />
    <glyph glyph-name="U" unicode="U" horiz-adv-x="667" 
d="M579 690l0.000976562 -429c0 -99.333 -18.333 -169.666 -55 -210.999s-99.334 -62 -188.001 -62c-90.667 0 -154.667 20.667 -192 62s-56 111.666 -56 210.999v429h65v-429c0 -79.333 13.5 -135 40.5 -167s73.833 -48 140.5 -48c66 0 112.333 16 139 48s40 87.667 40 167
v429h66z" />
    <glyph glyph-name="V" unicode="V" horiz-adv-x="603" 
d="M583 690l-218.997 -671c-4.66699 -12.667 -13.334 -19 -26.001 -19h-73c-14 -0 -22.667 6.33301 -26 19l-219 671h68l178 -563c5.33301 -16.667 12.666 -41.667 21.999 -75h27c9.33301 33.333 16.666 58.333 21.999 75l178 563h68z" />
    <glyph glyph-name="W" unicode="W" horiz-adv-x="941" 
d="M910 690l-155.999 -670.001c-3.33301 -13.333 -12.333 -20 -27 -20h-79c-15.333 0 -24.666 7 -27.999 21l-121 541l-17 77h-22l-18 -77l-121 -541c-3.33301 -14 -12.333 -21 -27 -21h-80c-14.667 0 -23.667 6.66699 -27 20l-155 670h69l126 -559
c5.33301 -22 10.666 -48.667 15.999 -80h25c5.33301 28.667 10.666 55 15.999 79l122 537c3.33301 15.333 12.333 23 27 23h75c14.667 0 23.667 -7.66699 27 -23l122 -537c3.33301 -14 8.66602 -40.333 15.999 -79h26c1.33301 6 2.83301 14.333 4.5 25
s3.33398 20.334 5.00098 29.001s3.5 16.667 5.5 24l127 561h69z" />
    <glyph glyph-name="X" unicode="X" horiz-adv-x="605" 
d="M316 334h-28l-186 -334h-72l203 358l-190 332h71l172 -305h32l172 305h72l-190 -332l203 -358h-73z" />
    <glyph glyph-name="Y" unicode="Y" horiz-adv-x="559" 
d="M312 247v-247h-65v248l-232 442h70l158 -306c8.66699 -17.333 19.667 -42 33 -74h7c8.66699 20.667 19.667 45 33 73l158 307h69z" />
    <glyph glyph-name="Z" unicode="Z" horiz-adv-x="563" 
d="M515 56v-56h-465v56l386 578h-382v56h455v-56l-386 -578h392z" />
    <glyph glyph-name="bracketleft" unicode="[" horiz-adv-x="323" 
d="M278 724h-107c-9.33301 0 -14 -4.66699 -14 -14v-817c0 -9.33301 4.66699 -14 14 -14h107v-44h-136c-13.333 0 -24.166 4 -32.499 12s-12.5 19.333 -12.5 34v841c0 13.333 4.16699 24.333 12.5 33s19.166 13 32.499 13h136v-44z" />
    <glyph glyph-name="backslash" unicode="\" horiz-adv-x="510" 
d="M479 -63h-55l-393 753h55z" />
    <glyph glyph-name="bracketright" unicode="]" horiz-adv-x="323" 
d="M44 768h136c13.333 0 24.333 -4.33301 33 -13s13 -19.667 13 -33v-841c0 -13.333 -4.33301 -24.333 -13 -33s-19.667 -13 -33 -13h-136v44h108c9.33301 0 14 4.66699 14 14v817c0 9.33301 -4.66699 14 -14 14h-108v44z" />
    <glyph glyph-name="asciicircum" unicode="^" horiz-adv-x="414" 
d="M384 386l-26 -19l-147 177h-8l-146 -177l-27 19l154 205h46z" />
    <glyph glyph-name="underscore" unicode="_" horiz-adv-x="582" 
d="M509 -50h-436v50h436v-50z" />
    <glyph glyph-name="grave" unicode="`" horiz-adv-x="301" 
d="M238 572l-24 -30l-178 128l38 48z" />
    <glyph glyph-name="a" unicode="a" horiz-adv-x="545" 
d="M83 428l-6 47c96.667 14.667 174.334 22 233.001 22c52 0 90.833 -11.5 116.5 -34.5s38.5 -61.167 38.5 -114.5v-348h-50l-8 85c-24 -24 -55.167 -45.5 -93.5 -64.5s-77.833 -28.5 -118.5 -28.5c-42.667 0 -76.334 11.333 -101.001 34s-37 55 -37 97v56
c0 37.333 11 66.333 33 87s53.333 31 94 31h217v51c0 32 -7.5 55.667 -22.5 71s-41.833 23 -80.5 23c-57.333 0 -129 -4.66699 -215 -14zM121 171l0.000976562 -42c0 -54 28.333 -81 85 -81c29.333 -0.666992 62.166 6.5 98.499 21.5s68.5 35.167 96.5 60.5v116h-207
c-48.667 -2 -73 -27 -73 -75z" />
    <glyph glyph-name="b" unicode="b" horiz-adv-x="566" 
d="M145 700v-193.998c0 -46.667 -2.33301 -81.334 -7 -104.001c64.667 63.333 128.667 95 192 95c62 0 106.833 -19.667 134.5 -59s41.5 -104.333 41.5 -195c0 -88.667 -15.5 -153.334 -46.5 -194.001s-84.833 -61 -161.5 -61c-74 0 -146 11 -216 33v679h63zM145 359.002
v-297c49.333 -14 100 -20.333 152 -19c52 0 88.833 15 110.5 45s32.5 81.667 32.5 155c0 74 -9.16699 125.5 -27.5 154.5s-51.833 43.5 -100.5 43.5c-26 0 -51.167 -6.5 -75.5 -19.5s-54.833 -33.833 -91.5 -62.5z" />
    <glyph glyph-name="c" unicode="c" horiz-adv-x="485" 
d="M438 54l7 -43.999c-49.333 -14.667 -102 -22 -158 -22c-83.333 0 -142 19 -176 57s-51 103.667 -51 197s17 159.166 51 197.499s92.667 57.5 176 57.5c59.333 0 109 -7.33301 149 -22l-10 -41c-35.333 5.33301 -78.333 8 -129 8c-64 0 -108.5 -14.167 -133.5 -42.5
s-37.5 -80.833 -37.5 -157.5s12.5 -129 37.5 -157s69.5 -42 133.5 -42c56 0 103 3.66699 141 11z" />
    <glyph glyph-name="d" unicode="d" horiz-adv-x="569" 
d="M435 0l-7 74.999c-66 -58 -130.667 -87 -194 -87c-61.333 0 -105.5 20.333 -132.5 61s-40.5 105.334 -40.5 194.001c0 92 14.333 157.333 43 196s74.667 58 138 58c61.333 0 122.333 -15.667 183 -47c-2.66699 22 -4 53.667 -4 95v155h63v-700h-49zM421 120.999v285
c-68.667 23.333 -124 35 -166 35c-47.333 0 -80.5 -14.167 -99.5 -42.5s-28.5 -79.833 -28.5 -154.5c0 -75.333 9.33301 -127.5 28 -156.5s51 -43.5 97 -43.5c27.333 0 53 5.66699 77 17s54.667 31.333 92 60z" />
    <glyph glyph-name="e" unicode="e" horiz-adv-x="534" 
d="M368 211h-242.002c4 -64 18.667 -108 44 -132s66.666 -36 123.999 -36c50 0 105.667 4 167 12l7 -43c-41.333 -16 -102.333 -24 -183 -24c-81.333 0 -139.166 19.5 -173.499 58.5s-51.5 104.833 -51.5 197.5c0 93.333 16.667 158.833 50 196.5s89 56.5 167 56.5
c68.667 0 119.334 -12.5 152.001 -37.5s49.334 -62.833 50.001 -113.5c1.33301 -90 -35.667 -135 -111 -135zM125.998 261h227.001c42.667 0 63.334 28 62.001 84c-0.666992 34 -11.667 58.667 -33 74s-55.333 23 -102 23c-56.667 0 -96.334 -13.167 -119.001 -39.5
s-34.334 -73.5 -35.001 -141.5z" />
    <glyph glyph-name="f" unicode="f" horiz-adv-x="371" 
d="M380 663h-103.999c-34.667 0 -59 -7 -73 -21s-21 -37.667 -21 -71v-87h163v-50h-163v-434h-64v434h-87v45l87 5v93c0 46 10.5 80.667 31.5 104s55.833 35 104.5 35c49.333 0 92.666 -2 129.999 -6z" />
    <glyph glyph-name="g" unicode="g" horiz-adv-x="553" 
d="M525 448l-81.002 -5.99609c18.667 -22.667 28 -55.667 28 -99c0 -52.667 -15.333 -91 -46 -115s-82.667 -36 -156 -36c-45.333 0 -82 4.33301 -110 13c-10 -12.667 -16 -25.834 -18 -39.501s1.5 -26.334 10.5 -38.001s23.833 -19.167 44.5 -22.5l186 -31
c44 -6.66699 74.5 -20.334 91.5 -41.001s25.5 -51.334 25.5 -92.001c0 -54.667 -16.5 -92.667 -49.5 -114s-91.5 -32 -175.5 -32c-85.333 0 -144.666 10.5 -177.999 31.5s-50 58.5 -50 112.5c0 32 6 57.5 18 76.5s33.333 36.5 64 52.5c-28.667 18 -42.5 43 -41.5 75
s14.167 57.333 39.5 76c-40 22 -60 63.333 -60 124c0 54 15.333 93.167 46 117.5s83 36.5 157 36.5c44.667 0 80.334 -4.33301 107.001 -13h152zM269.998 241.004c52 0 88.668 8 110.001 24s32 42 32 78c0 37.333 -10.667 64 -32 80s-58 24 -110 24
c-52.667 0 -89.834 -8 -111.501 -24s-32.5 -42.667 -32.5 -80c0 -36 11 -62 33 -78s59 -24 111 -24zM171.999 54.0039l-4 -3.00098c-22 -15.333 -37.333 -30.666 -46 -45.999s-13 -36 -13 -62c0 -36.667 11.667 -61.5 35 -74.5s67 -19.5 131 -19.5
c62.667 0 105.5 6.66699 128.5 20s34.5 38 34.5 74c0 28 -5.5 47.5 -16.5 58.5s-33.833 19.167 -68.5 24.5z" />
    <glyph glyph-name="h" unicode="h" horiz-adv-x="577" 
d="M149 700v-201c0 -38.667 -2.33301 -70 -7 -94c82.667 61.333 157 92 223 92c42.667 0 75.167 -11.333 97.5 -34s33.5 -55.667 33.5 -99v-364h-64v347c0 34 -6.5 58.333 -19.5 73s-34.5 22 -64.5 22c-29.333 0 -59 -6.5 -89 -19.5s-67.333 -34.5 -112 -64.5v-358h-63v700
h65z" />
    <glyph glyph-name="i" unicode="i" horiz-adv-x="238" 
d="M105 688h29c14 0 21 -7 21 -21v-58c0 -14 -7 -21 -21 -21h-29c-14 0 -21 7 -21 21v58c0 14 7 21 21 21zM151 0h-63v484h63v-484z" />
    <glyph glyph-name="j" unicode="j" horiz-adv-x="239" 
d="M105 688h30c14 0 21 -7 21 -21v-58c0 -14 -7 -21 -21 -21h-30c-13.333 0 -20 7 -20 21v58c0 14 6.66699 21 20 21zM152 484v-508c0 -73.333 -28 -134 -84 -182l-35 28c36.667 46.667 55 98 55 154v508h64z" />
    <glyph glyph-name="k" unicode="k" horiz-adv-x="497" 
d="M215 251l-72 -0.000976562c2.66699 -24.667 4 -51.667 4 -81v-170h-63v700h65v-318c0 -25.333 -1.66699 -53 -5 -83h71l167 185h75l-162 -181c-10 -12.667 -20 -22 -30 -28v-2c10 -7.33301 20 -18.666 30 -33.999l178 -239h-74z" />
    <glyph glyph-name="l" unicode="l" horiz-adv-x="287" 
d="M148 700v-580c0 -46.667 23.667 -70 71 -70h51l7 -48c-18 -6.66699 -44.667 -10 -80 -10c-34.667 0 -62 10.167 -82 30.5s-30 48.833 -30 85.5v592h63z" />
    <glyph glyph-name="m" unicode="m" horiz-adv-x="877" 
d="M136 484l4.00195 -80.001c71.333 62 139.333 93 204 93c68.667 0 109.667 -30.333 123 -91c70.667 60.667 138 91 202 91c41.333 0 73 -11.333 95 -34s33 -55.667 33 -99v-364h-63v347c-0.666992 33.333 -7.83398 57.5 -21.501 72.5s-35.167 22.5 -64.5 22.5
c-26.667 0 -52.334 -6.16699 -77.001 -18.5s-58 -34.166 -100 -65.499v-358h-61v347c0 33.333 -7 57.5 -21 72.5s-35.667 22.5 -65 22.5c-26 0 -51.5 -6.16699 -76.5 -18.5s-58.5 -33.833 -100.5 -64.5v-359h-63v484h52z" />
    <glyph glyph-name="n" unicode="n" horiz-adv-x="577" 
d="M137 484l4.99902 -80.001c80.667 62 155.334 93 224.001 93c86.667 0 130 -44.333 130 -133v-364h-63v347c0 34 -6.5 58.333 -19.5 73s-34.5 22 -64.5 22c-29.333 0 -58.833 -6.66699 -88.5 -20s-67.167 -34.666 -112.5 -63.999v-358h-64v484h53z" />
    <glyph glyph-name="o" unicode="o" horiz-adv-x="565" 
d="M283 497c81.333 0 138.666 -19.167 171.999 -57.5s50 -104.166 50 -197.499s-16.667 -159 -50 -197s-90.666 -57 -171.999 -57s-138.833 19.167 -172.5 57.5s-50.5 103.833 -50.5 196.5c0 93.333 16.833 159.166 50.5 197.499s91.167 57.5 172.5 57.5zM283 442
c-58.667 0 -99.334 -14.333 -122.001 -43s-34 -81 -34 -157s11.333 -128.333 34 -157s63.334 -43 122.001 -43s99.334 14.333 122.001 43s34 81 34 157s-11.333 128.333 -34 157s-63.334 43 -122.001 43z" />
    <glyph glyph-name="p" unicode="p" horiz-adv-x="573" 
d="M136 484l5.99805 -80.001c62 62 128.667 93 200 93c60 0 103.333 -20.667 130 -62s40 -106.333 40 -195c0 -91.333 -14.167 -156.166 -42.5 -194.499s-74.166 -57.5 -137.499 -57.5c-64 0 -126.333 17 -187 51c2.66699 -27.333 3.33398 -59.333 2.00098 -96v-147h-63v688
h52zM146.998 357.999l0.00292969 -278c74 -24 131 -36 171 -36c47.333 0 80.666 14.167 99.999 42.5s29 79.833 29 154.5c0 73.333 -9.33301 125 -28 155s-50.334 45 -95.001 45c-26.667 0 -53.334 -6.5 -80.001 -19.5s-59 -34.167 -97 -63.5z" />
    <glyph glyph-name="q" unicode="q" horiz-adv-x="566" 
d="M484 -204l-64 -0.000976562v178c0 40.667 2 73.334 6 98.001c-67.333 -56 -134 -84 -200 -84c-57.333 0 -99.333 20.167 -126 60.5s-40 104.5 -40 192.5c0 90 15.667 155.167 47 195.5s86.333 60.5 165 60.5c72 0 142.667 -11.333 212 -34v-667zM421 118.999
l0.000976562 302.998c-52 14.667 -101.333 21.334 -148 20.001c-54.667 -0.666992 -92.834 -15.5 -114.501 -44.5s-32.5 -82.5 -32.5 -160.5c0 -69.333 8.83301 -118.833 26.5 -148.5s48.834 -44.5 93.501 -44.5c28.667 0 55.667 5.83301 81 17.5
s56.666 30.834 93.999 57.501z" />
    <glyph glyph-name="r" unicode="r" horiz-adv-x="394" 
d="M375 497l-7.99805 -59.999h-24c-28 0 -56.333 -5.83301 -85 -17.5s-65.334 -30.834 -110.001 -57.501v-362h-64v484h49l7 -80c79.333 62 150.666 93 213.999 93h21z" />
    <glyph glyph-name="s" unicode="s" horiz-adv-x="505" 
d="M310 205l-148.002 27.999c-38 7.33301 -65.5 21.166 -82.5 41.499s-25.5 50.5 -25.5 90.5c0 54.667 13.833 90.5 41.5 107.5s75.834 25.167 144.501 24.5c73.333 -1.33301 139.333 -6.33301 198 -15l-6 -46c-80 4 -141.333 6 -184 6
c-53.333 0.666992 -88.666 -3.16602 -105.999 -11.499s-26 -30.166 -26 -65.499c0 -27.333 5.66699 -46.333 17 -57s30.333 -18.667 57 -24l149 -28c38.667 -8 67 -21.833 85 -41.5s27 -49.167 27 -88.5c0 -56.667 -15.167 -93.667 -45.5 -111s-82.166 -26 -155.499 -26
c-66 0 -127.667 4.33301 -185 13l5 47c52.667 -4.66699 109 -6.66699 169 -6c59.333 0.666992 99.166 6.16699 119.499 16.5s30.5 32.5 30.5 66.5c0 26 -6.33301 44.333 -19 55s-32.667 18.667 -60 24z" />
    <glyph glyph-name="t" unicode="t" horiz-adv-x="369" 
d="M330 50l8 -48c-33.333 -6.66699 -67 -10 -101 -10c-80 0 -120 40.333 -120 121v321h-88v45l88 5v147h63v-147h164v-50h-164v-314c0 -46.667 23.667 -70 71 -70h79z" />
    <glyph glyph-name="u" unicode="u" 
d="M482 484l0.00195312 -484h-50l-5 76c-74.667 -58.667 -146.334 -88 -215.001 -88c-87.333 0 -131 44 -131 132v364h63v-347c0 -33.333 7 -57.333 21 -72s36.667 -22 68 -22c27.333 0 54.666 6.16699 81.999 18.5s62 32.833 104 61.5v361h63z" />
    <glyph glyph-name="v" unicode="v" horiz-adv-x="522" 
d="M499 484l-185 -468c-4 -10.667 -12 -16 -24 -16h-59c-12 -0 -20 5.33301 -24 16l-185 468h68l132 -350c4 -10 9.5 -25 16.5 -45s12.167 -34 15.5 -42h13l33 88l132 349h67z" />
    <glyph glyph-name="w" unicode="w" horiz-adv-x="820" 
d="M792 484l-150.997 -465.001c-4 -12.667 -12.667 -19 -26 -19h-59c-14 0 -22.667 7 -26 21l-96 347c-2.66699 8 -6 20.333 -10 37l-9 38h-11l-19 -75l-95 -347c-3.33301 -14 -12.333 -21 -27 -21h-58c-14 0 -22.667 6.33301 -26 19l-151 465h66l114 -371
c3.33301 -11.333 9.66602 -34.666 18.999 -69.999h13l19 70l97 351c3.33301 13.333 11.666 20 24.999 20h58c13.333 0 21.666 -7 24.999 -21l97 -350l18 -70h14l18 70l115 371h66z" />
    <glyph glyph-name="x" unicode="x" horiz-adv-x="520" 
d="M271 227h-22l-151 -227h-70l169 251l-157 233h70l137 -206h26l137 206h70l-157 -233l170 -251h-71z" />
    <glyph glyph-name="y" unicode="y" horiz-adv-x="521" 
d="M498 484l-204.001 -518.004c-19.333 -49.333 -43.666 -89.166 -72.999 -119.499s-69 -48.166 -119 -53.499l-8 41c38 12.667 67.667 30.334 89 53.001s38.666 51.334 51.999 86.001l12 27h-16c-12.667 0 -21 5.66699 -25 17l-184 467h68l143 -378
c10.667 -28 17.334 -46.667 20.001 -56h14l21 57l142 377h68z" />
    <glyph glyph-name="z" unicode="z" horiz-adv-x="506" 
d="M456 53v-53h-406v53l330 379h-326v52h398v-52l-329 -379h333z" />
    <glyph glyph-name="braceleft" unicode="{" horiz-adv-x="312" 
d="M266 768l-0.000976562 -41c-36 0 -60.833 -7.16699 -74.5 -21.5s-20.5 -38.166 -20.5 -71.499v-189c0.666992 -40 -4.66602 -67.667 -15.999 -83s-34 -26.666 -68 -33.999c34.667 -11.333 58 -24.333 70 -39s18 -39.334 18 -74.001v-246
c0 -33.333 6.83301 -57.166 20.5 -71.499s38.5 -21.5 74.5 -21.5v-41c-54.667 -2.66699 -94.334 6.66602 -119.001 27.999s-37 55.333 -37 102v262c0 13.333 -0.833008 23.833 -2.5 31.5s-6.16699 14.5 -13.5 20.5s-13.333 10 -18 12s-15 6 -31 12v50
c16.667 5.33301 27.167 8.83301 31.5 10.5s9.83301 5.5 16.5 11.5s10.5 13.167 11.5 21.5s1.5 20.5 1.5 36.5v205c0 46.667 12.333 80.667 37 102s64.334 30.666 119.001 27.999z" />
    <glyph glyph-name="bar" unicode="|" horiz-adv-x="242" 
d="M145 -169h-48v950h48v-950z" />
    <glyph glyph-name="braceright" unicode="}" horiz-adv-x="312" 
d="M46 727l-0.000976562 40.999c54.667 2.66699 94.334 -6.66602 119.001 -27.999s37 -55.333 37 -102v-205c0 -16 0.5 -28.167 1.5 -36.5s4.83301 -15.5 11.5 -21.5s12.167 -9.83301 16.5 -11.5s14.833 -5.16699 31.5 -10.5v-50c-29.333 -11.333 -47 -20.666 -53 -27.999
c-8 -9.33301 -12 -25.333 -12 -48v-262c0 -46.667 -12.333 -80.667 -37 -102s-64.334 -30.666 -119.001 -27.999v41c36 0 60.833 7.16699 74.5 21.5s20.5 38.166 20.5 71.499v246c0 34.667 6 59.334 18 74.001s35.333 27.667 70 39c-34 7.33301 -56.667 18.666 -68 33.999
s-16.666 43 -15.999 83v189c0 33.333 -6.83301 57.166 -20.5 71.499s-38.5 21.5 -74.5 21.5z" />
    <glyph glyph-name="asciitilde" unicode="~" horiz-adv-x="528" 
d="M115 233l-34.999 -0.00292969c-2.66699 36 3.16602 63.333 17.499 82s34.166 27.334 59.499 26.001c26 -1.33301 61.333 -11.5 106 -30.5s78.334 -29.5 101.001 -31.5c18.667 -1.33301 31.667 2.33398 39 11.001s11 24 11 46h34c3.33301 -35.333 -2 -62.166 -16 -80.499
s-34 -26.5 -60 -24.5c-31.333 1.33301 -69 11.5 -113 30.5s-75.667 29.167 -95 30.5c-18 2 -30.667 -1.66699 -38 -11s-11 -25.333 -11 -48z" />
    <glyph glyph-name="uni00A0" unicode="&#xa0;" horiz-adv-x="226" 
 />
    <glyph glyph-name="exclamdown" unicode="&#xa1;" horiz-adv-x="248" 
d="M116 488h17c16.667 0 25 -8 25 -24v-58c0 -16 -8.33301 -24 -25 -24h-17c-16.667 0 -25 8 -25 24v58c0 16 8.33301 24 25 24zM156 112v-311h-64v311l6 168h52z" />
    <glyph glyph-name="cent" unicode="&#xa2;" horiz-adv-x="506" 
d="M438 161l7.00098 -43.999c-49.333 -14.667 -102.333 -22 -159 -22h-2l-8 -95h-36l8 97c-68.667 4.66699 -117.334 26.5 -146.001 65.5s-43 101.5 -43 187.5c0 92.667 17.167 158.167 51.5 196.5s92.833 57.5 175.5 57.5h3l7 86h37l-8 -87c45.333 -4 82 -10.667 110 -20
l-9 -44c-28.667 5.33301 -64 8.66602 -106 9.99902l-31 -399h8c54.667 0 101.667 3.66699 141 11zM253.001 152.001l30 396.999c-59.333 -1.33301 -100.833 -16.5 -124.5 -45.5s-35.5 -80.167 -35.5 -153.5c0 -68 9.83301 -116.667 29.5 -146s53.167 -46.666 100.5 -51.999z
" />
    <glyph glyph-name="sterling" unicode="&#xa3;" horiz-adv-x="566" 
d="M512 56l0.000976562 -56.001h-447v56c32.667 18.667 54.834 44.334 66.501 77.001s16.167 73.667 13.5 123l-5 87h-81v40h79l-7 140c-2 38 0.666992 69.167 8 93.5s20.166 42.5 38.499 54.5s38 20 59 24s47.833 6 80.5 6c50 0 107 -3.33301 171 -10l-4 -51
c-46.667 3.33301 -105.334 5 -176.001 5c-44.667 0 -75.334 -9 -92.001 -27s-23.667 -49.667 -21 -95l7 -140h226l-2 -40h-222l5 -87c2 -49.333 -2.16699 -90 -12.5 -122s-30.166 -58.667 -59.499 -80c14 1.33301 35.333 2 64 2h311z" />
    <glyph glyph-name="currency" unicode="&#xa4;" horiz-adv-x="597" 
d="M493 127l-74.001 74.001c-35.333 -28.667 -75.666 -43 -120.999 -43c-46 0 -86.667 14 -122 42l-73 -73l-31 31l73 73c-28 35.333 -42 75.666 -42 120.999c0 46 14.333 86.667 43 122l-72 72l29 30l72 -73c36 28.667 77 43 123 43s86.667 -14.333 122 -43l74 73l29 -30
l-74 -72c28 -35.333 42 -76 42 -122s-14.333 -86.667 -43 -122l75 -74zM297.999 198.001c41.333 -0.666992 77 14.166 107 44.499s45 66.833 45 109.5s-15 79 -45 109s-65.667 45 -107 45c-42.667 0 -79 -15 -109 -45s-45 -66.333 -45 -109s15 -79.167 45 -109.5
s66.333 -45.166 109 -44.499z" />
    <glyph glyph-name="yen" unicode="&#xa5;" horiz-adv-x="612" 
d="M364 317h160v-40h-182l-3 -6v-66h185v-40h-185v-165h-66v165h-180v40h180v66l-3 6h-178v40h156l-206 373h69l156 -285c13.333 -26 25.333 -51 36 -75h7c17.333 38 29 62.667 35 74l156 286h69z" />
    <glyph glyph-name="brokenbar" unicode="&#xa6;" horiz-adv-x="244" 
d="M146 381h-48v400h48v-400zM146 -169h-48v400h48v-400z" />
    <glyph glyph-name="section" unicode="&#xa7;" horiz-adv-x="544" 
d="M348 327l-179.002 102c-36.667 21.333 -63 43 -79 65s-24 51 -24 87c0 48.667 15.333 81.167 46 97.5s79 24.166 145 23.499c82 -1.33301 154.333 -5.33301 217 -12l-5 -49c-61.333 4 -127.333 6.33301 -198 7c-19.333 0 -34.666 -0.166992 -45.999 -0.5
s-23.5 -1.66602 -36.5 -3.99902s-23 -5.83301 -30 -10.5s-12.833 -11.5 -17.5 -20.5s-7 -19.833 -7 -32.5c-0.666992 -24 5 -43.833 17 -59.5s29.667 -30.167 53 -43.5l173 -97c44 -24 71.833 -53.833 83.5 -89.5s12.834 -82.5 3.50098 -140.5h-48c4 45.333 1 82 -9 110
s-29.667 50.333 -59 67zM80.998 398l48.001 0.00292969c-4.66699 -46 -2.16699 -82.333 7.5 -109s29.834 -48.667 60.501 -66l179 -102c35.333 -20 61.166 -41.5 77.499 -64.5s24.5 -52.5 24.5 -88.5c0 -22 -3.16699 -40.833 -9.5 -56.5s-14.5 -27.834 -24.5 -36.501
s-23.833 -15.334 -41.5 -20.001s-34.834 -7.5 -51.501 -8.5s-37.667 -1.5 -63 -1.5c-81.333 1.33301 -153.666 5.33301 -216.999 12l5 49c66.667 -4 133 -6.33301 199 -7c19.333 0 34.333 0.166992 45 0.5s22.667 1.66602 36 3.99902s23.333 5.83301 30 10.5
s12.5 11.667 17.5 21s7.5 21 7.5 35c0.666992 42.667 -22.666 77 -69.999 103l-172 97c-44.667 24 -72.834 53.5 -84.501 88.5s-12.834 81.5 -3.50098 139.5z" />
    <glyph glyph-name="dieresis" unicode="&#xa8;" horiz-adv-x="407" 
d="M104 686h22c12.667 0 19 -6.66699 19 -20v-55c0 -12.667 -6.33301 -19 -19 -19h-22c-12 0 -18 6.33301 -18 19v55c0 13.333 6 20 18 20zM282 686h21c12.667 0 19 -6.66699 19 -20v-55c0 -12.667 -6.33301 -19 -19 -19h-21c-12.667 0 -19 6.33301 -19 19v55
c0 13.333 6.33301 20 19 20z" />
    <glyph glyph-name="copyright" unicode="&#xa9;" horiz-adv-x="844" 
d="M422 702c100.667 0 185.5 -33.833 254.5 -101.5s103.5 -152.834 103.5 -255.501s-34.5 -187.834 -103.5 -255.501s-153.833 -101.5 -254.5 -101.5c-100 0 -184.667 33.833 -254 101.5s-104 152.834 -104 255.501s34.667 187.834 104 255.501s154 101.5 254 101.5z
M422 665c-89.333 0 -165.166 -30.5 -227.499 -91.5s-93.5 -137.167 -93.5 -228.5s31.167 -167.5 93.5 -228.5s138.166 -91.5 227.499 -91.5s165 30.5 227 91.5s93 137.167 93 228.5s-31 167.5 -93 228.5s-137.667 91.5 -227 91.5zM566 174l4.99902 -37.002
c-41.333 -9.33301 -89.333 -14 -144 -14c-72 0 -122.5 16.833 -151.5 50.5s-43.5 91.834 -43.5 174.501c0 82 14.5 139.833 43.5 173.5s79.5 50.5 151.5 50.5c54.667 0 99.334 -4.33301 134.001 -13l-7 -37c-36 3.33301 -78.667 5 -128 5
c-53.333 0 -90.5 -13.167 -111.5 -39.5s-31.5 -72.833 -31.5 -139.5c0 -67.333 10.5 -114.166 31.5 -140.499s58.167 -39.5 111.5 -39.5c61.333 0 108 2 140 6z" />
    <glyph glyph-name="ordfeminine" unicode="&#xaa;" horiz-adv-x="442" 
d="M89 554l-5 36c67.333 10 124.333 15 171 15c35.333 0 62.166 -8 80.499 -24s27.5 -42.333 27.5 -79v-231h-39l-6 62c-46 -44.667 -97 -67 -153 -67c-30 0 -53.5 7.33301 -70.5 22s-25.5 35.667 -25.5 63v39c0 25.333 7.83301 44.833 23.5 58.5s37.834 20.5 66.501 20.5
h155v34c0 40 -22.667 60 -68 60c-42 0 -94.333 -3 -157 -9zM118 387v-27c0 -34 20.333 -51 61 -51c20.667 -0.666992 43.667 4.33301 69 15s47.333 23.667 66 39v77l-141 -6c-36.667 -2 -55 -17.667 -55 -47z" />
    <glyph glyph-name="guillemotleft" unicode="&#xab;" horiz-adv-x="473" 
d="M241 435l-134 -184l135 -187l-33 -22l-162 201v16l161 198zM414 435l-134 -184l135 -187l-33 -22l-162 201v16l161 198z" />
    <glyph glyph-name="logicalnot" unicode="&#xac;" horiz-adv-x="591" 
d="M509 322v-191h-51v141h-380v50h431z" />
    <glyph glyph-name="softhyphen" unicode="&#xad;" horiz-adv-x="460" 
d="M384 227h-307v50h307v-50z" />
    <glyph glyph-name="registered" unicode="&#xae;" horiz-adv-x="563" 
d="M282 701c61.333 0 113.666 -21.667 156.999 -65s65 -95.666 65 -156.999c0 -62 -21.667 -114.667 -65 -158s-95.666 -65 -156.999 -65c-62 0 -114.667 21.667 -158 65s-65 96 -65 158c0 61.333 21.667 113.666 65 156.999s96 65 158 65zM282 281
c53.333 0 99.333 19.333 138 58s58 85.334 58 140.001s-19.167 101.334 -57.5 140.001s-84.5 58 -138.5 58s-100.167 -19.333 -138.5 -58s-57.5 -85.334 -57.5 -140.001s19.167 -101.334 57.5 -140.001s84.5 -58 138.5 -58zM333 471l0.000976562 -1.99902
c19.333 -3.33301 32.333 -16.333 39 -39l33 -84h-34l-31 82c-8 20.667 -23.333 31 -46 31l-80 1v-114h-32v267c23.333 2 60 3 110 3c37.333 0 63.666 -5.5 78.999 -16.5s23 -30.833 23 -59.5c0 -22 -4.66699 -38.333 -14 -49s-25 -17.334 -47 -20.001zM214.001 483.001
l77 -0.000976562c26.667 0.666992 45.167 4.83398 55.5 12.501s15.5 21.5 15.5 41.5c0 20.667 -5.16699 34.667 -15.5 42s-28.833 11 -55.5 11h-77v-107z" />
    <glyph glyph-name="macron" unicode="&#xaf;" horiz-adv-x="400" 
d="M336 615h-272v49h272v-49z" />
    <glyph glyph-name="degree" unicode="&#xb0;" horiz-adv-x="370" 
d="M185 702c34.667 0 64.667 -12.333 90 -37s38 -54 38 -88c0 -34.667 -12.667 -64.5 -38 -89.5s-55.333 -37.5 -90 -37.5s-64.5 12.5 -89.5 37.5s-37.5 54.833 -37.5 89.5s12.333 64.167 37 88.5s54.667 36.5 90 36.5zM185 662c-24 0 -44.167 -8.16699 -60.5 -24.5
s-24.5 -36.5 -24.5 -60.5c0 -23.333 8.33301 -43.5 25 -60.5s36.667 -25.5 60 -25.5s43.5 8.5 60.5 25.5s25.5 37.167 25.5 60.5c0 24 -8.33301 44.167 -25 60.5s-37 24.5 -61 24.5z" />
    <glyph glyph-name="plusminus" unicode="&#xb1;" horiz-adv-x="592" 
d="M511 379v-49h-191v-138h-49v138h-190v49h190v138h50v-138h190zM81 127h430v-49h-430v49z" />
    <glyph glyph-name="twosuperior" unicode="&#xb2;" horiz-adv-x="437" 
d="M73 728l-4 38.001c49.333 10 95.333 15 138 15c51.333 0 88.333 -6.16699 111 -18.5s34 -36.5 34 -72.5c0 -24 -6.66699 -47.333 -20 -70s-35 -49.334 -65 -80.001l-137 -136c32.667 1.33301 57 1.66602 73 0.999023h167v-45h-305v28c0 8 3 15.667 9 23l139 138
c56 56 84 102 84 138c0 20.667 -7.5 34.334 -22.5 41.001s-38.167 10 -69.5 10c-39.333 0 -83.333 -3.33301 -132 -10z" />
    <glyph glyph-name="threesuperior" unicode="&#xb3;" horiz-adv-x="419" 
d="M76 734l-3.99902 36.998c42 6.66699 84.667 10 128 10c54 0 91.667 -6.83301 113 -20.5s32 -38.5 32 -74.5c0 -61.333 -25.333 -96.333 -76 -105v-2c31.333 -4 53.5 -14.833 66.5 -32.5s19.833 -41.5 20.5 -71.5c1.33301 -42.667 -9.33398 -73.667 -32.001 -93
s-61 -29 -115 -29c-36 0 -84 3.33301 -144 10l4 38c44 -4 87 -6 129 -6c38.667 0 66 6.33301 82 19s24 35 24 67c0 24 -6.83301 42.833 -20.5 56.5s-38.834 20.5 -75.501 20.5h-85v37l85 1c18.667 0.666992 34.334 3.33398 47.001 8.00098s21.667 11.334 27 20.001
s8.83301 16.667 10.5 24s2.5 16.333 2.5 27c0 24.667 -7.16699 41.5 -21.5 50.5s-40.833 13.5 -79.5 13.5c-44 0 -83.333 -1.66699 -118 -5z" />
    <glyph glyph-name="acute" unicode="&#xb4;" horiz-adv-x="301" 
d="M259 670l-178 -128l-24 30l164 146z" />
    <glyph glyph-name="paragraph" unicode="&#xb6;" horiz-adv-x="595" 
d="M275 -210l0.000976562 411c-82 7.33301 -140.833 30.333 -176.5 69s-53.5 98.667 -53.5 180c0 92 23.167 157 69.5 195s124.166 57 233.499 57c58 0 106.667 -5.66699 146 -17v-685h-51v652c-22.667 2 -61.667 4 -117 6v-868h-51z" />
    <glyph glyph-name="periodcentered" unicode="&#xb7;" horiz-adv-x="225" 
d="M102 311h22c16 0 24 -8.33301 24 -25v-57c0 -16.667 -8 -25 -24 -25h-22c-16.667 0 -25 8.33301 -25 25v57c0 16.667 8.33301 25 25 25z" />
    <glyph glyph-name="cedilla" unicode="&#xb8;" horiz-adv-x="228" 
d="M88 -76l7.00098 31c34.667 3.33301 60 0.166016 76 -9.50098s23.667 -28.167 23 -55.5c-1.33301 -40 -16.5 -70.833 -45.5 -92.5s-66.167 -29.5 -111.5 -23.5l10 35c29.333 -0.666992 53.166 6.33301 71.499 21s27.833 33.334 28.5 56.001c0 14 -4.16699 23.667 -12.5 29
s-23.833 8.33301 -46.5 9z" />
    <glyph glyph-name="onesuperior" unicode="&#xb9;" horiz-adv-x="291" 
d="M210 360h-51v332c0 16 1 28 3 36l-116 -32l-7 35l120 43h51v-414z" />
    <glyph glyph-name="ordmasculine" unicode="&#xba;" horiz-adv-x="446" 
d="M223 605c58 0 98.833 -12.833 122.5 -38.5s35.5 -69.834 35.5 -132.501s-11.833 -106.834 -35.5 -132.501s-64.5 -38.5 -122.5 -38.5s-98.833 12.833 -122.5 38.5s-35.5 69.834 -35.5 132.501s11.833 106.834 35.5 132.501s64.5 38.5 122.5 38.5zM223 564
c-40 0 -67.833 -9.33301 -83.5 -28s-23.5 -52.667 -23.5 -102s7.83301 -83.166 23.5 -101.499s43.5 -27.5 83.5 -27.5s67.667 9.16699 83 27.5s23 52.166 23 101.499s-7.66699 83.333 -23 102s-43 28 -83 28z" />
    <glyph glyph-name="guillemotright" unicode="&#xbb;" horiz-adv-x="473" 
d="M253 259v-16l-162 -201l-33 22l135 187l-134 184l33 22zM426 259v-16l-162 -201l-33 22l135 187l-134 184l33 22z" />
    <glyph glyph-name="onequarter" unicode="&#xbc;" horiz-adv-x="855" 
d="M164 276v332c0 16 1 28 3 36l-117 -32l-6 35l120 43h50v-414h-50zM640 690l-459 -690h-48l459 690h48zM809 109l-47.001 -4v-105h-48v104h-206c-16.667 0 -29 5.66699 -37 17s-8 25.333 0 42l134 251h50l-131 -245c-3.33301 -6.66699 -3.16602 -12.5 0.500977 -17.5
s9.5 -7.5 17.5 -7.5h172v123l10 68h38v-191h47v-35z" />
    <glyph glyph-name="onehalf" unicode="&#xbd;" horiz-adv-x="881" 
d="M214 276h-50v332c0 16 1 28 3 36l-117 -32l-6 35l120 43h50v-414zM177 0h-48l459 690h48zM531 368l-4 38.001c49.333 10 95.333 15 138 15c51.333 0 88.333 -6.16699 111 -18.5s34 -36.5 34 -72.5c0 -24 -6.66699 -47.333 -20 -70s-35.333 -49.334 -66 -80.001l-136 -136
c32.667 1.33301 57 1.66602 73 0.999023h167v-45h-305v28c0 8 2.66699 15.667 8 23l140 138c56 56.667 84 102.667 84 138c0 20.667 -7.5 34.334 -22.5 41.001s-38.167 10 -69.5 10c-39.333 0 -83.333 -3.33301 -132 -10z" />
    <glyph glyph-name="threequarters" unicode="&#xbe;" horiz-adv-x="946" 
d="M265 495v-2.00195c31.333 -4 53.5 -14.667 66.5 -32s19.833 -41.333 20.5 -72c1.33301 -42.667 -9.33398 -73.667 -32.001 -93s-61 -29 -115 -29c-35.333 0 -83.666 3.33301 -144.999 10l4 38c45.333 -4 88.666 -6 129.999 -6c38.667 0 66 6.33301 82 19s24 34.667 24 66
c0 24 -6.83301 43 -20.5 57s-38.834 21 -75.501 21l-86 1v35l86 2c18.667 0.666992 34.334 3.33398 47.001 8.00098s21.667 11.334 27 20.001s8.83301 16.667 10.5 24s2.5 16 2.5 26c0 25.333 -7.16699 42.5 -21.5 51.5s-40.833 13.5 -79.5 13.5
c-44 0 -83.333 -1.66699 -118 -5l-4 37c42.667 6.66699 85.334 10 128.001 10c54 0 91.667 -6.83301 113 -20.5s32 -38.5 32 -74.5c0 -61.333 -25.333 -96.333 -76 -105zM742 689.998l-459 -690h-48l459 690h48zM900 108.998l-53.001 -5v-104h-47v104h-202
c-16.667 0 -29 5.83301 -37 17.5s-8 25.5 0 41.5l135 251h50l-132 -245c-3.33301 -6.66699 -3.16602 -12.5 0.500977 -17.5s9.5 -7.5 17.5 -7.5h168v123l9 68h38v-191h53v-35z" />
    <glyph glyph-name="questiondown" unicode="&#xbf;" horiz-adv-x="502" 
d="M251 496h18c16 0 24 -8.33301 24 -25v-57c0 -16.667 -8 -25 -24 -25h-18c-16.667 0 -25 8.33301 -25 25v57c0 16.667 8.33301 25 25 25zM231 288l55.002 0.00195312c0.666992 -34.667 -4.83301 -66.334 -16.5 -95.001s-26 -52.5 -43 -71.5l-51 -54.5
c-17 -17.333 -31.5 -36 -43.5 -56s-18.333 -41 -19 -63c-0.666992 -37.333 10.833 -64.833 34.5 -82.5s60.5 -26.5 110.5 -26.5c61.333 0 127 3.66699 197 11l5 -46c-4.66699 -0.666992 -16.334 -2.66699 -35.001 -6s-31.167 -5.33301 -37.5 -6l-33.5 -3.5
c-16 -1.66699 -32.333 -2.83398 -49 -3.50098s-36.334 -1 -59.001 -1c-133.333 0 -200 51.667 -200 155c0 27.333 6.16699 52.833 18.5 76.5s27.5 44.5 45.5 62.5l54 54.5c18 18.333 33.5 40.833 46.5 67.5s19.833 56 20.5 88z" />
    <glyph glyph-name="Agrave" unicode="&#xc0;" horiz-adv-x="615" 
d="M330 731l-178 128l38 48l164 -146zM458 228h-301l-76 -228h-68l231 671c4 12.667 12.667 19 26 19h75c13.333 0 22 -6.33301 26 -19l231 -671h-68zM439 285l-98.999 296.999c-0.666992 3.33301 -3.33398 11.833 -8.00098 25.5s-8 23.834 -10 30.501h-28l-19 -56l-99 -297
h263z" />
    <glyph glyph-name="Aacute" unicode="&#xc1;" horiz-adv-x="615" 
d="M273 731l-24 30l164 146l38 -48zM458 228h-301l-76 -228h-68l231 671c4 12.667 12.667 19 26 19h75c13.333 0 22 -6.33301 26 -19l231 -671h-68zM439 285l-98.999 296.999c-0.666992 3.33301 -3.33398 11.833 -8.00098 25.5s-8 23.834 -10 30.501h-28l-19 -56l-99 -297
h263z" />
    <glyph glyph-name="Acircumflex" unicode="&#xc2;" horiz-adv-x="615" 
d="M174 739l-23 28l133 124h47l133 -124l-23 -28l-130 99h-8zM458 228h-301l-76 -228h-68l231 671c4 12.667 12.667 19 26 19h75c13.333 0 22 -6.33301 26 -19l231 -671h-68zM439 285l-98.999 296.999c-0.666992 3.33301 -3.33398 11.833 -8.00098 25.5
s-8 23.834 -10 30.501h-28l-19 -56l-99 -297h263z" />
    <glyph glyph-name="Atilde" unicode="&#xc3;" horiz-adv-x="615" 
d="M186 769l-31.001 0.000976562c-3.33301 36 2.33398 63.167 17.001 81.5s34.667 26.5 60 24.5c20.667 -2 45.5 -12 74.5 -30s52.833 -28 71.5 -30s32 1.5 40 10.5s12 23.833 12 44.5h31c2.66699 -34 -3 -60 -17 -78s-34 -26 -60 -24c-24 2 -50.667 12.167 -80 30.5
s-51.333 28.166 -66 29.499c-19.333 2 -32.833 -1.66699 -40.5 -11s-11.5 -25.333 -11.5 -48zM457.999 228.001h-301l-76 -228h-68l231 671c4 12.667 12.667 19 26 19h75c13.333 0 22 -6.33301 26 -19l231 -671h-68zM438.999 285.001l-98.999 296.999
c-0.666992 3.33301 -3.33398 11.833 -8.00098 25.5s-8 23.834 -10 30.501h-28l-19 -56l-99 -297h263z" />
    <glyph glyph-name="Adieresis" unicode="&#xc4;" horiz-adv-x="615" 
d="M230 771h-22c-12 0 -18 6.33301 -18 19v55c0 13.333 6 20 18 20h22c12.667 0 19 -6.66699 19 -20v-55c0 -12.667 -6.33301 -19 -19 -19zM407 771h-22c-12 0 -18 6.33301 -18 19v55c0 13.333 6 20 18 20h22c12.667 0 19 -6.66699 19 -20v-55
c0 -12.667 -6.33301 -19 -19 -19zM458 228h-301l-76 -228h-68l231 671c4 12.667 12.667 19 26 19h75c13.333 0 22 -6.33301 26 -19l231 -671h-68zM439 285l-98.999 296.999c-0.666992 3.33301 -3.33398 11.833 -8.00098 25.5s-8 23.834 -10 30.501h-28l-19 -56l-99 -297h263
z" />
    <glyph glyph-name="Aring" unicode="&#xc5;" horiz-adv-x="615" 
d="M308 716c-28.667 0 -53 9.66602 -73 28.999s-30 43.333 -30 72s10 52.834 30 72.501s44.333 29.5 73 29.5c28 0 52.167 -10 72.5 -30s30.5 -44 30.5 -72c0 -28.667 -10 -52.667 -30 -72s-44.333 -29 -73 -29zM308 883.999c-18.667 0 -34.167 -6.16699 -46.5 -18.5
s-18.5 -28.5 -18.5 -48.5c0 -19.333 6.16699 -35.166 18.5 -47.499s27.833 -18.5 46.5 -18.5s34.167 6.16699 46.5 18.5s18.5 28.166 18.5 47.499c0 20 -6.16699 36.167 -18.5 48.5s-27.833 18.5 -46.5 18.5zM458 227.999h-301l-76 -228h-68l231 671
c4 12.667 12.667 19 26 19h75c13.333 0 22 -6.33301 26 -19l231 -671h-68zM439 284.999l-98.999 296.999c-0.666992 3.33301 -3.33398 11.833 -8.00098 25.5s-8 23.834 -10 30.501h-28l-19 -56l-99 -297h263z" />
    <glyph glyph-name="AE" unicode="&#xc6;" horiz-adv-x="911" 
d="M855 55l2 -49.999c-62.667 -4 -158.334 -6 -287.001 -6c-32.667 0 -59.167 10.667 -79.5 32s-30.5 48.666 -30.5 81.999v129h-240l-147 -242h-70l363 590c23.333 39.333 50 65.833 80 79.5s71.333 20.5 124 20.5c122 0 217.667 -1.66699 287 -5l-2 -51h-261
c-21.333 0 -38.666 -6.66699 -51.999 -20s-20 -31.333 -20 -54v-167h292v-54h-292v-211c0 -48.667 24 -73 72 -73h261zM460 297.001v271c0 14.667 3.5 29.167 10.5 43.5s15.167 24.5 24.5 30.5h-8c-22.667 -12 -44 -34 -64 -66l-169 -279h206z" />
    <glyph glyph-name="Ccedilla" unicode="&#xc7;" 
d="M521 58l8.00098 -48.998c-52 -14 -118 -21 -198 -21c-97.333 0 -165.666 26.667 -204.999 80s-59 145.666 -59 276.999s19.667 223.666 59 276.999s107.666 80 204.999 80c72.667 0 134 -6.33301 184 -19l-8 -49c-50.667 6 -109.334 9 -176.001 9
c-73.333 0 -124.333 -21.667 -153 -65s-43 -121 -43 -233s14.333 -189.667 43 -233s79.667 -65 153 -65c76 0 139.333 3.66699 190 11zM282.001 -87.998l6.99902 31c35.333 3.33301 60.833 0.166016 76.5 -9.50098s23.167 -28.167 22.5 -55.5
c-0.666992 -40 -15.5 -70.833 -44.5 -92.5s-66.5 -29.5 -112.5 -23.5l10 35c29.333 -0.666992 53.166 6.33301 71.499 21s27.833 33.334 28.5 56.001c0.666992 14 -3.16602 23.667 -11.499 29s-24.166 8.33301 -47.499 9z" />
    <glyph glyph-name="Egrave" unicode="&#xc8;" horiz-adv-x="557" 
d="M332 753l-178 128l38 48l164 -146zM500 55l4 -50.002c-62.667 -4 -161 -6 -295 -6c-36.667 0 -66.167 10.333 -88.5 31s-33.5 48.334 -33.5 83.001v464c0 34.667 11.167 62.334 33.5 83.001s51.833 31 88.5 31c134 0 232.333 -2 295 -6l-4 -50h-280
c-44.667 0 -67 -24.333 -67 -73v-169h308v-53h-308v-213c0 -48 22.333 -72 67 -72h280z" />
    <glyph glyph-name="Eacute" unicode="&#xc9;" horiz-adv-x="557" 
d="M275 753l-24 30l164 146l38 -48zM500 55l4 -50.002c-62.667 -4 -161 -6 -295 -6c-36.667 0 -66.167 10.333 -88.5 31s-33.5 48.334 -33.5 83.001v464c0 34.667 11.167 62.334 33.5 83.001s51.833 31 88.5 31c134 0 232.333 -2 295 -6l-4 -50h-280
c-44.667 0 -67 -24.333 -67 -73v-169h308v-53h-308v-213c0 -48 22.333 -72 67 -72h280z" />
    <glyph glyph-name="Ecircumflex" unicode="&#xca;" horiz-adv-x="557" 
d="M176 761l-23 28l133 124h46l134 -124l-23 -28l-130 99h-8zM500 55l4 -50.002c-62.667 -4 -161 -6 -295 -6c-36.667 0 -66.167 10.333 -88.5 31s-33.5 48.334 -33.5 83.001v464c0 34.667 11.167 62.334 33.5 83.001s51.833 31 88.5 31c134 0 232.333 -2 295 -6l-4 -50
h-280c-44.667 0 -67 -24.333 -67 -73v-169h308v-53h-308v-213c0 -48 22.333 -72 67 -72h280z" />
    <glyph glyph-name="Edieresis" unicode="&#xcb;" horiz-adv-x="557" 
d="M232 793h-22c-12.667 0 -19 6.66699 -19 20v55c0 12.667 6.33301 19 19 19h22c12.667 0 19 -6.33301 19 -19v-55c0 -13.333 -6.33301 -20 -19 -20zM409 793h-22c-12.667 0 -19 6.66699 -19 20v55c0 12.667 6.33301 19 19 19h22c12.667 0 19 -6.33301 19 -19v-55
c0 -13.333 -6.33301 -20 -19 -20zM500 55l4 -50.002c-62.667 -4 -161 -6 -295 -6c-36.667 0 -66.167 10.333 -88.5 31s-33.5 48.334 -33.5 83.001v464c0 34.667 11.167 62.334 33.5 83.001s51.833 31 88.5 31c134 0 232.333 -2 295 -6l-4 -50h-280
c-44.667 0 -67 -24.333 -67 -73v-169h308v-53h-308v-213c0 -48 22.333 -72 67 -72h280z" />
    <glyph glyph-name="Igrave" unicode="&#xcc;" horiz-adv-x="251" 
d="M171 761l-24 -30l-178 128l38 48zM158 0h-65v690h65v-690z" />
    <glyph glyph-name="Iacute" unicode="&#xcd;" horiz-adv-x="251" 
d="M268 859l-178 -128l-24 30l164 146zM158 0h-65v690h65v-690z" />
    <glyph glyph-name="Icircumflex" unicode="&#xce;" horiz-adv-x="251" 
d="M281 767l-23 -28l-129 99h-8l-130 -99l-23 28l134 124h46zM158 0h-65v690h65v-690z" />
    <glyph glyph-name="Idieresis" unicode="&#xcf;" horiz-adv-x="251" 
d="M25 865h22c12.667 0 19 -6.66699 19 -20v-55c0 -12.667 -6.33301 -19 -19 -19h-22c-12 0 -18 6.33301 -18 19v55c0 13.333 6 20 18 20zM203 865h21c12.667 0 19 -6.66699 19 -20v-55c0 -12.667 -6.33301 -19 -19 -19h-21c-12.667 0 -19 6.33301 -19 19v55
c0 13.333 6.33301 20 19 20zM158 0h-65v690h65v-690z" />
    <glyph glyph-name="Eth" unicode="&#xd0;" horiz-adv-x="666" 
d="M97 388l-0.000976562 301.998c82.667 6 162.334 9 239.001 9c97.333 0 165.5 -26.167 204.5 -78.5s58.5 -144.166 58.5 -275.499s-19.5 -223.166 -58.5 -275.499s-107.167 -78.5 -204.5 -78.5c-75.333 0 -155 3 -239 9v349h-73v39h73zM161.999 348.998v-298.001
c66.667 -1.33301 124.667 -2 174 -2c72.667 0 123.167 21.667 151.5 65s42.5 120.333 42.5 231s-14.167 187.834 -42.5 231.501s-78.833 65.5 -151.5 65.5c-12 0 -70 -1 -174 -3v-251h163v-39h-163z" />
    <glyph glyph-name="Ntilde" unicode="&#xd1;" horiz-adv-x="699" 
d="M238 769l-31.998 0.000976562c-2.66699 36 3.16602 63.167 17.499 81.5s34.166 26.5 59.499 24.5c20.667 -2 45.5 -12 74.5 -30s52.833 -28 71.5 -30c19.333 -2 32.833 1.33301 40.5 10s11.5 23.667 11.5 45h32c2.66699 -34 -3.16602 -60 -17.499 -78
s-34.166 -26 -59.499 -24c-24 2 -50.833 12.167 -80.5 30.5s-51.834 28.166 -66.501 29.499c-18.667 2 -31.834 -1.66699 -39.501 -11s-11.5 -25.333 -11.5 -48zM606.002 690.001v-662c0 -18.667 -9 -28 -27 -28h-70c-14.667 0 -25.334 7.33301 -32.001 22l-263 524
c-24.667 51.333 -37.667 79 -39 83h-19c1.33301 -18 2 -45.667 2 -83v-546h-65v662c0 18.667 9 28 27 28h68c14.667 0 25.334 -7.33301 32.001 -22l257 -512l46 -93h21c-2 32.667 -3 65.667 -3 99v528h65z" />
    <glyph glyph-name="Ograve" unicode="&#xd2;" horiz-adv-x="666" 
d="M379 761l-24 -30l-178 128l38 48zM333 702c98.667 0 167.667 -26.167 207 -78.5s59 -145.166 59 -278.499s-19.667 -226.166 -59 -278.499s-108.333 -78.5 -207 -78.5s-167.667 26.167 -207 78.5s-59 145.166 -59 278.499s19.667 226.166 59 278.499
s108.333 78.5 207 78.5zM333 644c-74 0 -125.5 -21.833 -154.5 -65.5s-43.5 -121.5 -43.5 -233.5s14.5 -189.833 43.5 -233.5s80.5 -65.5 154.5 -65.5s125.333 21.833 154 65.5s43 121.5 43 233.5s-14.333 189.833 -43 233.5s-80 65.5 -154 65.5z" />
    <glyph glyph-name="Oacute" unicode="&#xd3;" horiz-adv-x="666" 
d="M475 859l-177 -128l-24 30l164 146zM333 702c98.667 0 167.667 -26.167 207 -78.5s59 -145.166 59 -278.499s-19.667 -226.166 -59 -278.499s-108.333 -78.5 -207 -78.5s-167.667 26.167 -207 78.5s-59 145.166 -59 278.499s19.667 226.166 59 278.499
s108.333 78.5 207 78.5zM333 644c-74 0 -125.5 -21.833 -154.5 -65.5s-43.5 -121.5 -43.5 -233.5s14.5 -189.833 43.5 -233.5s80.5 -65.5 154.5 -65.5s125.333 21.833 154 65.5s43 121.5 43 233.5s-14.333 189.833 -43 233.5s-80 65.5 -154 65.5z" />
    <glyph glyph-name="Ocircumflex" unicode="&#xd4;" horiz-adv-x="666" 
d="M489 767l-23 -28l-130 99h-8l-129 -99l-23 28l133 124h46zM333 702c98.667 0 167.667 -26.167 207 -78.5s59 -145.166 59 -278.499s-19.667 -226.166 -59 -278.499s-108.333 -78.5 -207 -78.5s-167.667 26.167 -207 78.5s-59 145.166 -59 278.499
s19.667 226.166 59 278.499s108.333 78.5 207 78.5zM333 644c-74 0 -125.5 -21.833 -154.5 -65.5s-43.5 -121.5 -43.5 -233.5s14.5 -189.833 43.5 -233.5s80.5 -65.5 154.5 -65.5s125.333 21.833 154 65.5s43 121.5 43 233.5s-14.333 189.833 -43 233.5s-80 65.5 -154 65.5z
" />
    <glyph glyph-name="Otilde" unicode="&#xd5;" horiz-adv-x="666" 
d="M211 769l-31.998 0.000976562c-2.66699 36 3.16602 63.167 17.499 81.5s34.166 26.5 59.499 24.5c20.667 -2 45.5 -12 74.5 -30s52.833 -28 71.5 -30c19.333 -2 32.833 1.33301 40.5 10s11.5 23.667 11.5 45h32c2.66699 -34 -3.16602 -60 -17.499 -78
s-34.166 -26 -59.499 -24c-24 2 -50.833 12.167 -80.5 30.5s-51.834 28.166 -66.501 29.499c-18.667 2 -31.834 -1.66699 -39.501 -11s-11.5 -25.333 -11.5 -48zM333.002 702.001c98.667 0 167.667 -26.167 207 -78.5s59 -145.166 59 -278.499
s-19.667 -226.166 -59 -278.499s-108.333 -78.5 -207 -78.5s-167.667 26.167 -207 78.5s-59 145.166 -59 278.499s19.667 226.166 59 278.499s108.333 78.5 207 78.5zM333.002 644.001c-74 0 -125.5 -21.833 -154.5 -65.5s-43.5 -121.5 -43.5 -233.5
s14.5 -189.833 43.5 -233.5s80.5 -65.5 154.5 -65.5s125.333 21.833 154 65.5s43 121.5 43 233.5s-14.333 189.833 -43 233.5s-80 65.5 -154 65.5z" />
    <glyph glyph-name="Odieresis" unicode="&#xd6;" horiz-adv-x="666" 
d="M233 865h22c12.667 0 19 -6.66699 19 -20v-55c0 -12.667 -6.33301 -19 -19 -19h-22c-12.667 0 -19 6.33301 -19 19v55c0 13.333 6.33301 20 19 20zM410 865h22c12.667 0 19 -6.66699 19 -20v-55c0 -12.667 -6.33301 -19 -19 -19h-22c-12.667 0 -19 6.33301 -19 19v55
c0 13.333 6.33301 20 19 20zM333 702c98.667 0 167.667 -26.167 207 -78.5s59 -145.166 59 -278.499s-19.667 -226.166 -59 -278.499s-108.333 -78.5 -207 -78.5s-167.667 26.167 -207 78.5s-59 145.166 -59 278.499s19.667 226.166 59 278.499s108.333 78.5 207 78.5z
M333 644c-74 0 -125.5 -21.833 -154.5 -65.5s-43.5 -121.5 -43.5 -233.5s14.5 -189.833 43.5 -233.5s80.5 -65.5 154.5 -65.5s125.333 21.833 154 65.5s43 121.5 43 233.5s-14.333 189.833 -43 233.5s-80 65.5 -154 65.5z" />
    <glyph glyph-name="multiply" unicode="&#xd7;" horiz-adv-x="486" 
d="M53 428l354 -317l31 38l-353 318z" />
    <glyph glyph-name="Oslash" unicode="&#xd8;" horiz-adv-x="666" 
d="M531 731l-31.999 -67.999c35.333 -24 60.833 -61.333 76.5 -112s23.5 -119.334 23.5 -206.001c0 -133.333 -19.667 -226.166 -59 -278.499s-108.333 -78.5 -207 -78.5c-58.667 0 -105 8 -139 24l-32 -67l-37 16l34 72c-32.667 24.667 -56.167 62 -70.5 112
s-21.5 116.667 -21.5 200c0 133.333 19.667 226.166 59 278.499s108.333 78.5 207 78.5c53.333 0 96.666 -6.66699 129.999 -20l31 65zM189.001 98.001l247 526c-26 13.333 -60.333 20 -103 20c-74 0 -125.5 -21.833 -154.5 -65.5s-43.5 -121.5 -43.5 -233.5
c0 -122 18 -204.333 54 -247zM469.001 600.001l-248 -529c28.667 -16.667 66 -25 112 -25c74 0 125.333 21.833 154 65.5s43 121.5 43 233.5c0 129.333 -20.333 214.333 -61 255z" />
    <glyph glyph-name="Ugrave" unicode="&#xd9;" horiz-adv-x="667" 
d="M380 761l-23 -30l-178 128l37 48zM579 690l0.000976562 -429c0 -99.333 -18.333 -169.666 -55 -210.999s-99.334 -62 -188.001 -62c-90.667 0 -154.667 20.667 -192 62s-56 111.666 -56 210.999v429h65v-429c0 -79.333 13.5 -135 40.5 -167s73.833 -48 140.5 -48
c66 0 112.333 16 139 48s40 87.667 40 167v429h66z" />
    <glyph glyph-name="Uacute" unicode="&#xda;" horiz-adv-x="667" 
d="M477 859l-178 -128l-24 30l164 146zM579 690l0.000976562 -429c0 -99.333 -18.333 -169.666 -55 -210.999s-99.334 -62 -188.001 -62c-90.667 0 -154.667 20.667 -192 62s-56 111.666 -56 210.999v429h65v-429c0 -79.333 13.5 -135 40.5 -167s73.833 -48 140.5 -48
c66 0 112.333 16 139 48s40 87.667 40 167v429h66z" />
    <glyph glyph-name="Ucircumflex" unicode="&#xdb;" horiz-adv-x="667" 
d="M491 767l-24 -28l-129 99h-8l-130 -99l-22 28l133 124h46zM579 690l0.000976562 -429c0 -99.333 -18.333 -169.666 -55 -210.999s-99.334 -62 -188.001 -62c-90.667 0 -154.667 20.667 -192 62s-56 111.666 -56 210.999v429h65v-429c0 -79.333 13.5 -135 40.5 -167
s73.833 -48 140.5 -48c66 0 112.333 16 139 48s40 87.667 40 167v429h66z" />
    <glyph glyph-name="Udieresis" unicode="&#xdc;" horiz-adv-x="667" 
d="M234 865h23c12 0 18 -6.66699 18 -20v-55c0 -12.667 -6 -19 -18 -19h-23c-12 0 -18 6.33301 -18 19v55c0 13.333 6 20 18 20zM412 865h22c12.667 0 19 -6.66699 19 -20v-55c0 -12.667 -6.33301 -19 -19 -19h-22c-12.667 0 -19 6.33301 -19 19v55
c0 13.333 6.33301 20 19 20zM579 690l0.000976562 -429c0 -99.333 -18.333 -169.666 -55 -210.999s-99.334 -62 -188.001 -62c-90.667 0 -154.667 20.667 -192 62s-56 111.666 -56 210.999v429h65v-429c0 -79.333 13.5 -135 40.5 -167s73.833 -48 140.5 -48
c66 0 112.333 16 139 48s40 87.667 40 167v429h66z" />
    <glyph glyph-name="Yacute" unicode="&#xdd;" horiz-adv-x="559" 
d="M244 731l-24 30l164 146l38 -48zM312 247v-247h-65v248l-232 442h70l158 -306c8.66699 -17.333 19.667 -42 33 -74h7c8.66699 20.667 19.667 45 33 73l158 307h69z" />
    <glyph glyph-name="Thorn" unicode="&#xde;" horiz-adv-x="589" 
d="M158 690l-0.000976562 -129.999c30.667 2 86 3 166 3c80.667 0 136.5 -14.833 167.5 -44.5s46.5 -85.834 46.5 -168.501s-15.167 -138.667 -45.5 -168s-84.166 -44 -161.499 -44c-65.333 0 -123 2.33301 -173 7v-145h-65v555v135h65zM157.999 195.001l165 0.000976562
c56 0.666992 94.667 11.5 116 32.5s32 61.833 32 122.5c0 61.333 -10.667 102.666 -32 123.999s-60 32 -116 32c-82.667 0 -137.667 -0.333008 -165 -1v-310z" />
    <glyph glyph-name="germandbls" unicode="&#xdf;" horiz-adv-x="667" 
d="M419 295l115.001 -43c32 -13.333 55 -29.166 69 -47.499s21 -44.833 21 -79.5c0 -54.667 -13.5 -91 -40.5 -109s-70.167 -27 -129.5 -27c-54 0 -108 3.66699 -162 11l4 48c43.333 -4 92.333 -6 147 -6c45.333 0.666992 76.5 6.16699 93.5 16.5s25.5 33.166 25.5 68.499
c0 24.667 -5.33301 42.334 -16 53.001s-28.667 21 -54 31l-115 45c-56 21.333 -84 57.666 -84 108.999c0 10 1 19.167 3 27.5s4.16699 15.5 6.5 21.5s6.66602 12.167 12.999 18.5s11.333 11.166 15 14.499s10.5 7.83301 20.5 13.5s17.167 9.5 21.5 11.5l26.5 12l27 12
c27.333 12.667 46 25.667 56 39s15 32.333 15 57c0 26 -12.167 44.667 -36.5 56s-64.833 17 -121.5 17c-61.333 0 -102.833 -8.83301 -124.5 -26.5s-32.5 -52.834 -32.5 -105.501v-533h-64v433h-87v49l87 2v55c0 38.667 4.83301 70.334 14.5 95.001s25 43 46 55
s43.333 19.833 67 23.5s54.167 5.5 91.5 5.5c77.333 0 133.166 -9.16699 167.499 -27.5s51.5 -50.833 51.5 -97.5c0 -32.667 -6.5 -58.334 -19.5 -77.001s-37.167 -36.667 -72.5 -54c-8 -4 -18.833 -9 -32.5 -15s-23.167 -10.333 -28.5 -13s-12.166 -6.5 -20.499 -11.5
s-14 -9.66699 -17 -14s-5.66699 -10.166 -8 -17.499s-3.5 -15.666 -3.5 -24.999c0 -18.667 5 -32.667 15 -42s26.667 -19 50 -29z" />
    <glyph glyph-name="agrave" unicode="&#xe0;" horiz-adv-x="545" 
d="M290 550l-178 128l38 48l164 -146zM83 428l-6 47c96.667 14.667 174.334 22 233.001 22c52 0 90.833 -11.5 116.5 -34.5s38.5 -61.167 38.5 -114.5v-348h-50l-8 85c-24 -24 -55.167 -45.5 -93.5 -64.5s-77.833 -28.5 -118.5 -28.5c-42.667 0 -76.334 11.333 -101.001 34
s-37 55 -37 97v56c0 37.333 11 66.333 33 87s53.333 31 94 31h217v51c0 32 -7.5 55.667 -22.5 71s-41.833 23 -80.5 23c-57.333 0 -129 -4.66699 -215 -14zM121 171l0.000976562 -42c0 -54 28.333 -81 85 -81c29.333 -0.666992 62.166 6.5 98.499 21.5
s68.5 35.167 96.5 60.5v116h-207c-48.667 -2 -73 -27 -73 -75z" />
    <glyph glyph-name="aacute" unicode="&#xe1;" horiz-adv-x="545" 
d="M233 550l-24 30l164 146l38 -48zM83 428l-6 47c96.667 14.667 174.334 22 233.001 22c52 0 90.833 -11.5 116.5 -34.5s38.5 -61.167 38.5 -114.5v-348h-50l-8 85c-24 -24 -55.167 -45.5 -93.5 -64.5s-77.833 -28.5 -118.5 -28.5c-42.667 0 -76.334 11.333 -101.001 34
s-37 55 -37 97v56c0 37.333 11 66.333 33 87s53.333 31 94 31h217v51c0 32 -7.5 55.667 -22.5 71s-41.833 23 -80.5 23c-57.333 0 -129 -4.66699 -215 -14zM121 171l0.000976562 -42c0 -54 28.333 -81 85 -81c29.333 -0.666992 62.166 6.5 98.499 21.5
s68.5 35.167 96.5 60.5v116h-207c-48.667 -2 -73 -27 -73 -75z" />
    <glyph glyph-name="acircumflex" unicode="&#xe2;" horiz-adv-x="545" 
d="M134 558l-23 28l134 124h46l134 -124l-24 -28l-129 100h-8zM83 428l-6 47c96.667 14.667 174.334 22 233.001 22c52 0 90.833 -11.5 116.5 -34.5s38.5 -61.167 38.5 -114.5v-348h-50l-8 85c-24 -24 -55.167 -45.5 -93.5 -64.5s-77.833 -28.5 -118.5 -28.5
c-42.667 0 -76.334 11.333 -101.001 34s-37 55 -37 97v56c0 37.333 11 66.333 33 87s53.333 31 94 31h217v51c0 32 -7.5 55.667 -22.5 71s-41.833 23 -80.5 23c-57.333 0 -129 -4.66699 -215 -14zM121 171l0.000976562 -42c0 -54 28.333 -81 85 -81
c29.333 -0.666992 62.166 6.5 98.499 21.5s68.5 35.167 96.5 60.5v116h-207c-48.667 -2 -73 -27 -73 -75z" />
    <glyph glyph-name="atilde" unicode="&#xe3;" horiz-adv-x="545" 
d="M147 589l-31.9971 0.000976562c-2.66699 35.333 3.16602 62.166 17.499 80.499s34.166 26.5 59.499 24.5c20.667 -2 45.5 -12 74.5 -30s52.833 -28 71.5 -30c19.333 -2 32.833 1.33301 40.5 10s11.5 23.667 11.5 45h31c3.33301 -34 -2.16699 -60 -16.5 -78
s-34.166 -26 -59.499 -24c-24.667 2 -51.834 12.167 -81.501 30.5s-51.5 28.5 -65.5 30.5c-18.667 2 -31.834 -1.83301 -39.501 -11.5s-11.5 -25.5 -11.5 -47.5zM83.0029 428.001l-6 47c96.667 14.667 174.334 22 233.001 22c52 0 90.833 -11.5 116.5 -34.5
s38.5 -61.167 38.5 -114.5v-348h-50l-8 85c-24 -24 -55.167 -45.5 -93.5 -64.5s-77.833 -28.5 -118.5 -28.5c-42.667 0 -76.334 11.333 -101.001 34s-37 55 -37 97v56c0 37.333 11 66.333 33 87s53.333 31 94 31h217v51c0 32 -7.5 55.667 -22.5 71s-41.833 23 -80.5 23
c-57.333 0 -129 -4.66699 -215 -14zM121.003 171.001l0.000976562 -42c0 -54 28.333 -81 85 -81c29.333 -0.666992 62.166 6.5 98.499 21.5s68.5 35.167 96.5 60.5v116h-207c-48.667 -2 -73 -27 -73 -75z" />
    <glyph glyph-name="adieresis" unicode="&#xe4;" horiz-adv-x="545" 
d="M191 590h-23c-12 0 -18 6.66699 -18 20v55c0 12.667 6 19 18 19h23c12 0 18 -6.33301 18 -19v-55c0 -13.333 -6 -20 -18 -20zM368 590h-22c-12.667 0 -19 6.66699 -19 20v55c0 12.667 6.33301 19 19 19h22c12 0 18 -6.33301 18 -19v-55c0 -13.333 -6 -20 -18 -20zM83 428
l-6 47c96.667 14.667 174.334 22 233.001 22c52 0 90.833 -11.5 116.5 -34.5s38.5 -61.167 38.5 -114.5v-348h-50l-8 85c-24 -24 -55.167 -45.5 -93.5 -64.5s-77.833 -28.5 -118.5 -28.5c-42.667 0 -76.334 11.333 -101.001 34s-37 55 -37 97v56c0 37.333 11 66.333 33 87
s53.333 31 94 31h217v51c0 32 -7.5 55.667 -22.5 71s-41.833 23 -80.5 23c-57.333 0 -129 -4.66699 -215 -14zM121 171l0.000976562 -42c0 -54 28.333 -81 85 -81c29.333 -0.666992 62.166 6.5 98.499 21.5s68.5 35.167 96.5 60.5v116h-207c-48.667 -2 -73 -27 -73 -75z" />
    <glyph glyph-name="aring" unicode="&#xe5;" horiz-adv-x="545" 
d="M268 536c-28.667 0 -53 9.66699 -73 29s-30 43.333 -30 72c0 28 10.167 51.833 30.5 71.5s44.5 29.5 72.5 29.5c28.667 0 53.167 -9.83301 73.5 -29.5s30.5 -43.5 30.5 -71.5c0 -28.667 -10.167 -52.667 -30.5 -72s-44.833 -29 -73.5 -29zM268 703
c-18.667 0 -34.167 -6.16699 -46.5 -18.5s-18.5 -28.166 -18.5 -47.499s6.16699 -35.166 18.5 -47.499s27.833 -18.5 46.5 -18.5s34.334 6.16699 47.001 18.5s19 28.166 19 47.499s-6.33301 35.166 -19 47.499s-28.334 18.5 -47.001 18.5zM83 428l-6 47
c96.667 14.667 174.334 22 233.001 22c52 0 90.833 -11.5 116.5 -34.5s38.5 -61.167 38.5 -114.5v-348h-50l-8 85c-24 -24 -55.167 -45.5 -93.5 -64.5s-77.833 -28.5 -118.5 -28.5c-42.667 0 -76.334 11.333 -101.001 34s-37 55 -37 97v56c0 37.333 11 66.333 33 87
s53.333 31 94 31h217v51c0 32 -7.5 55.667 -22.5 71s-41.833 23 -80.5 23c-57.333 0 -129 -4.66699 -215 -14zM121 171l0.000976562 -42c0 -54 28.333 -81 85 -81c29.333 -0.666992 62.166 6.5 98.499 21.5s68.5 35.167 96.5 60.5v116h-207c-48.667 -2 -73 -27 -73 -75z" />
    <glyph glyph-name="ae" unicode="&#xe6;" horiz-adv-x="874" 
d="M688 211l-219.998 0.000976562c3.33301 -64 17.666 -108 42.999 -132s66.666 -36 123.999 -36c51.333 0 107 4 167 12l7 -43c-40.667 -16 -101.334 -24 -182.001 -24c-55.333 0 -99.333 8.5 -132 25.5s-56.667 44.5 -72 82.5c-24 -26 -56.833 -49.833 -98.5 -71.5
s-84.834 -32.5 -129.501 -32.5c-42.667 0 -76.334 11.333 -101.001 34s-37 55 -37 97v56c0 37.333 11 66.333 33 87s53.333 31 94 31h217v51c0 32 -7.5 55.667 -22.5 71s-41.833 23 -80.5 23c-57.333 0 -129 -4.66699 -215 -14l-6 47c96.667 14.667 174.334 22 233.001 22
c69.333 0 115 -20.667 137 -62c32.667 41.333 89.667 62 171 62c68.667 0 119.334 -12.5 152.001 -37.5s49.334 -62.833 50.001 -113.5c0.666992 -46.667 -9.5 -80.834 -30.5 -102.501s-54.833 -32.5 -101.5 -32.5zM467.002 261.001l207.003 0.000976562
c30.667 0 52.167 7.16699 64.5 21.5s18.166 35.166 17.499 62.499c-0.666992 33.333 -11.667 57.833 -33 73.5s-55.333 23.5 -102 23.5c-56.667 0 -96.334 -13.167 -119.001 -39.5s-34.334 -73.5 -35.001 -141.5zM121.005 171.002l0.000976562 -42c0 -54 28.333 -81 85 -81
c30.667 -0.666992 65.167 7 103.5 23s72.166 37.333 101.499 64c-6.66699 28.667 -10 65 -10 109v2h-207c-48.667 -2 -73 -27 -73 -75z" />
    <glyph glyph-name="ccedilla" unicode="&#xe7;" horiz-adv-x="485" 
d="M438 54l7 -43.999c-49.333 -14.667 -102 -22 -158 -22c-83.333 0 -142 19 -176 57s-51 103.667 -51 197s17 159.166 51 197.499s92.667 57.5 176 57.5c59.333 0 109 -7.33301 149 -22l-10 -41c-35.333 5.33301 -78.333 8 -129 8c-64 0 -108.5 -14.167 -133.5 -42.5
s-37.5 -80.833 -37.5 -157.5s12.5 -129 37.5 -157s69.5 -42 133.5 -42c56 0 103 3.66699 141 11zM236 -87.999l6.99902 31c35.333 3.33301 61 0.166016 77 -9.50098s23.667 -28.167 23 -55.5c-1.33301 -40 -16.5 -70.833 -45.5 -92.5s-66.5 -29.5 -112.5 -23.5l10 35
c29.333 -0.666992 53.166 6.33301 71.499 21s27.833 33.334 28.5 56.001c0.666992 14 -3.16602 23.667 -11.499 29s-24.166 8.33301 -47.499 9z" />
    <glyph glyph-name="egrave" unicode="&#xe8;" horiz-adv-x="534" 
d="M301 550l-178 128l38 48l164 -146zM368 211h-242.002c4 -64 18.667 -108 44 -132s66.666 -36 123.999 -36c50 0 105.667 4 167 12l7 -43c-41.333 -16 -102.333 -24 -183 -24c-81.333 0 -139.166 19.5 -173.499 58.5s-51.5 104.833 -51.5 197.5
c0 93.333 16.667 158.833 50 196.5s89 56.5 167 56.5c68.667 0 119.334 -12.5 152.001 -37.5s49.334 -62.833 50.001 -113.5c1.33301 -90 -35.667 -135 -111 -135zM125.998 261h227.001c42.667 0 63.334 28 62.001 84c-0.666992 34 -11.667 58.667 -33 74
s-55.333 23 -102 23c-56.667 0 -96.334 -13.167 -119.001 -39.5s-34.334 -73.5 -35.001 -141.5z" />
    <glyph glyph-name="eacute" unicode="&#xe9;" horiz-adv-x="534" 
d="M243 550l-23 30l164 146l37 -48zM368 211h-242.002c4 -64 18.667 -108 44 -132s66.666 -36 123.999 -36c50 0 105.667 4 167 12l7 -43c-41.333 -16 -102.333 -24 -183 -24c-81.333 0 -139.166 19.5 -173.499 58.5s-51.5 104.833 -51.5 197.5
c0 93.333 16.667 158.833 50 196.5s89 56.5 167 56.5c68.667 0 119.334 -12.5 152.001 -37.5s49.334 -62.833 50.001 -113.5c1.33301 -90 -35.667 -135 -111 -135zM125.998 261h227.001c42.667 0 63.334 28 62.001 84c-0.666992 34 -11.667 58.667 -33 74
s-55.333 23 -102 23c-56.667 0 -96.334 -13.167 -119.001 -39.5s-34.334 -73.5 -35.001 -141.5z" />
    <glyph glyph-name="ecircumflex" unicode="&#xea;" horiz-adv-x="534" 
d="M145 558l-23 28l133 124h46l134 -124l-23 -28l-130 100h-8zM368 211h-242.002c4 -64 18.667 -108 44 -132s66.666 -36 123.999 -36c50 0 105.667 4 167 12l7 -43c-41.333 -16 -102.333 -24 -183 -24c-81.333 0 -139.166 19.5 -173.499 58.5s-51.5 104.833 -51.5 197.5
c0 93.333 16.667 158.833 50 196.5s89 56.5 167 56.5c68.667 0 119.334 -12.5 152.001 -37.5s49.334 -62.833 50.001 -113.5c1.33301 -90 -35.667 -135 -111 -135zM125.998 261h227.001c42.667 0 63.334 28 62.001 84c-0.666992 34 -11.667 58.667 -33 74
s-55.333 23 -102 23c-56.667 0 -96.334 -13.167 -119.001 -39.5s-34.334 -73.5 -35.001 -141.5z" />
    <glyph glyph-name="edieresis" unicode="&#xeb;" horiz-adv-x="534" 
d="M201 590h-22c-12.667 0 -19 6.66699 -19 20v55c0 12.667 6.33301 19 19 19h22c12 0 18 -6.33301 18 -19v-55c0 -13.333 -6 -20 -18 -20zM378 590h-22c-12.667 0 -19 6.66699 -19 20v55c0 12.667 6.33301 19 19 19h22c12.667 0 19 -6.33301 19 -19v-55
c0 -13.333 -6.33301 -20 -19 -20zM368 211h-242.002c4 -64 18.667 -108 44 -132s66.666 -36 123.999 -36c50 0 105.667 4 167 12l7 -43c-41.333 -16 -102.333 -24 -183 -24c-81.333 0 -139.166 19.5 -173.499 58.5s-51.5 104.833 -51.5 197.5
c0 93.333 16.667 158.833 50 196.5s89 56.5 167 56.5c68.667 0 119.334 -12.5 152.001 -37.5s49.334 -62.833 50.001 -113.5c1.33301 -90 -35.667 -135 -111 -135zM125.998 261h227.001c42.667 0 63.334 28 62.001 84c-0.666992 34 -11.667 58.667 -33 74
s-55.333 23 -102 23c-56.667 0 -96.334 -13.167 -119.001 -39.5s-34.334 -73.5 -35.001 -141.5z" />
    <glyph glyph-name="igrave" unicode="&#xec;" horiz-adv-x="239" 
d="M165 580l-24 -30l-178 128l38 48zM151 0h-63v484h63v-484z" />
    <glyph glyph-name="iacute" unicode="&#xed;" horiz-adv-x="239" 
d="M262 678l-178 -128l-24 30l164 146zM151 0h-63v484h63v-484z" />
    <glyph glyph-name="icircumflex" unicode="&#xee;" horiz-adv-x="239" 
d="M275 586l-23 -28l-129 100h-8l-130 -100l-23 28l134 124h46zM151 0h-63v484h63v-484z" />
    <glyph glyph-name="idieresis" unicode="&#xef;" horiz-adv-x="239" 
d="M19 684h22c12.667 0 19 -6.33301 19 -19v-55c0 -13.333 -6.33301 -20 -19 -20h-22c-12 0 -18 6.66699 -18 20v55c0 12.667 6 19 18 19zM197 684h21c12.667 0 19 -6.33301 19 -19v-55c0 -13.333 -6.33301 -20 -19 -20h-21c-12.667 0 -19 6.66699 -19 20v55
c0 12.667 6.33301 19 19 19zM151 0h-63v484h63v-484z" />
    <glyph glyph-name="eth" unicode="&#xf0;" horiz-adv-x="555" 
d="M437 676l-71.002 -53.001c79.333 -69.333 119 -183.333 119 -342c0 -46 -2.66699 -85 -8 -117s-15.166 -62.167 -29.499 -90.5s-36 -49.666 -65 -63.999s-65.5 -21.5 -109.5 -21.5c-73.333 0 -127 18.5 -161 55.5s-51 95.833 -51 176.5c0 74.667 15.667 131.167 47 169.5
s83 57.5 155 57.5c54.667 0 104 -14 148 -42c-14.667 82 -45 143.333 -91 184l-83 -61l-23 30l73 55c-43.333 27.333 -99.666 40.333 -168.999 39l8 46c82 3.33301 151 -13.667 207 -51l80 60zM273.998 41.999c59.333 0 98.501 19.333 117.501 58s28.5 101 28.5 187
c0 26.667 -1 51 -3 73c-44.667 22 -93.667 33 -147 33c-52 0 -88.833 -14.833 -110.5 -44.5s-32.5 -72.5 -32.5 -128.5c0 -64 11.667 -109.667 35 -137s60.666 -41 111.999 -41z" />
    <glyph glyph-name="ntilde" unicode="&#xf1;" horiz-adv-x="577" 
d="M174 589l-31.998 0.000976562c-2.66699 35.333 3.16602 62.166 17.499 80.499s34.166 26.5 59.499 24.5c20.667 -2 45.5 -12 74.5 -30s52.833 -28 71.5 -30c19.333 -2 32.833 1.33301 40.5 10s11.5 23.667 11.5 45h32c2.66699 -34 -3.16602 -60 -17.499 -78
s-34.166 -26 -59.499 -24c-24.667 2 -51.834 12.167 -81.501 30.5s-51.5 28.5 -65.5 30.5c-18.667 2 -31.834 -1.83301 -39.501 -11.5s-11.5 -25.5 -11.5 -47.5zM137.002 484.001l4.99902 -80.001c80.667 62 155.334 93 224.001 93c86.667 0 130 -44.333 130 -133v-364h-63
v347c0 34 -6.5 58.333 -19.5 73s-34.5 22 -64.5 22c-29.333 0 -58.833 -6.66699 -88.5 -20s-67.167 -34.666 -112.5 -63.999v-358h-64v484h53z" />
    <glyph glyph-name="ograve" unicode="&#xf2;" horiz-adv-x="565" 
d="M328 580l-24 -30l-178 128l38 48zM283 497c81.333 0 138.666 -19.167 171.999 -57.5s50 -104.166 50 -197.499s-16.667 -159 -50 -197s-90.666 -57 -171.999 -57s-138.833 19.167 -172.5 57.5s-50.5 103.833 -50.5 196.5c0 93.333 16.833 159.166 50.5 197.499
s91.167 57.5 172.5 57.5zM283 442c-58.667 0 -99.334 -14.333 -122.001 -43s-34 -81 -34 -157s11.333 -128.333 34 -157s63.334 -43 122.001 -43s99.334 14.333 122.001 43s34 81 34 157s-11.333 128.333 -34 157s-63.334 43 -122.001 43z" />
    <glyph glyph-name="oacute" unicode="&#xf3;" horiz-adv-x="565" 
d="M424 678l-178 -128l-23 30l164 146zM283 497c81.333 0 138.666 -19.167 171.999 -57.5s50 -104.166 50 -197.499s-16.667 -159 -50 -197s-90.666 -57 -171.999 -57s-138.833 19.167 -172.5 57.5s-50.5 103.833 -50.5 196.5c0 93.333 16.833 159.166 50.5 197.499
s91.167 57.5 172.5 57.5zM283 442c-58.667 0 -99.334 -14.333 -122.001 -43s-34 -81 -34 -157s11.333 -128.333 34 -157s63.334 -43 122.001 -43s99.334 14.333 122.001 43s34 81 34 157s-11.333 128.333 -34 157s-63.334 43 -122.001 43z" />
    <glyph glyph-name="ocircumflex" unicode="&#xf4;" horiz-adv-x="565" 
d="M438 586l-23 -28l-130 100h-8l-129 -100l-23 28l133 124h46zM283 497c81.333 0 138.666 -19.167 171.999 -57.5s50 -104.166 50 -197.499s-16.667 -159 -50 -197s-90.666 -57 -171.999 -57s-138.833 19.167 -172.5 57.5s-50.5 103.833 -50.5 196.5
c0 93.333 16.833 159.166 50.5 197.499s91.167 57.5 172.5 57.5zM283 442c-58.667 0 -99.334 -14.333 -122.001 -43s-34 -81 -34 -157s11.333 -128.333 34 -157s63.334 -43 122.001 -43s99.334 14.333 122.001 43s34 81 34 157s-11.333 128.333 -34 157
s-63.334 43 -122.001 43z" />
    <glyph glyph-name="otilde" unicode="&#xf5;" horiz-adv-x="565" 
d="M160 589l-31.998 0.000976562c-2.66699 35.333 3.16602 62.166 17.499 80.499s34.166 26.5 59.499 24.5c20.667 -2 45.5 -12 74.5 -30s52.833 -28 71.5 -30c19.333 -2 32.833 1.33301 40.5 10s11.5 23.667 11.5 45h32c2.66699 -34 -3.16602 -60 -17.499 -78
s-34.166 -26 -59.499 -24c-24.667 2 -51.834 12.167 -81.501 30.5s-51.5 28.5 -65.5 30.5c-18.667 2 -31.834 -1.83301 -39.501 -11.5s-11.5 -25.5 -11.5 -47.5zM283.002 497.001c81.333 0 138.666 -19.167 171.999 -57.5s50 -104.166 50 -197.499s-16.667 -159 -50 -197
s-90.666 -57 -171.999 -57s-138.833 19.167 -172.5 57.5s-50.5 103.833 -50.5 196.5c0 93.333 16.833 159.166 50.5 197.499s91.167 57.5 172.5 57.5zM283.002 442.001c-58.667 0 -99.334 -14.333 -122.001 -43s-34 -81 -34 -157s11.333 -128.333 34 -157
s63.334 -43 122.001 -43s99.334 14.333 122.001 43s34 81 34 157s-11.333 128.333 -34 157s-63.334 43 -122.001 43z" />
    <glyph glyph-name="odieresis" unicode="&#xf6;" horiz-adv-x="565" 
d="M182 684h22c12 0 18 -6.33301 18 -19v-55c0 -13.333 -6 -20 -18 -20h-22c-12.667 0 -19 6.66699 -19 20v55c0 12.667 6.33301 19 19 19zM359 684h22c12.667 0 19 -6.33301 19 -19v-55c0 -13.333 -6.33301 -20 -19 -20h-22c-12.667 0 -19 6.66699 -19 20v55
c0 12.667 6.33301 19 19 19zM283 497c81.333 0 138.666 -19.167 171.999 -57.5s50 -104.166 50 -197.499s-16.667 -159 -50 -197s-90.666 -57 -171.999 -57s-138.833 19.167 -172.5 57.5s-50.5 103.833 -50.5 196.5c0 93.333 16.833 159.166 50.5 197.499
s91.167 57.5 172.5 57.5zM283 442c-58.667 0 -99.334 -14.333 -122.001 -43s-34 -81 -34 -157s11.333 -128.333 34 -157s63.334 -43 122.001 -43s99.334 14.333 122.001 43s34 81 34 157s-11.333 128.333 -34 157s-63.334 43 -122.001 43z" />
    <glyph glyph-name="divide" unicode="&#xf7;" horiz-adv-x="577" 
d="M278 517l17.999 0.000976562c16.667 0 25 -8.33301 25 -25v-54c0 -16 -8.33301 -24 -25 -24h-18c-9.33301 0 -15.666 1.66699 -18.999 5s-5 9.66602 -5 18.999v54c0 16.667 8 25 24 25zM503.999 271.001h-431v49h431v-49zM277.999 176.001l17.999 0.000976562
c16.667 0 25 -8.33301 25 -25v-53c0 -16 -8.33301 -24 -25 -24h-18c-9.33301 0 -15.666 1.66699 -18.999 5s-5 9.66602 -5 18.999v53c0 16.667 8 25 24 25z" />
    <glyph glyph-name="oslash" unicode="&#xf8;" horiz-adv-x="565" 
d="M437 537l-29 -61.999c34 -16 58.667 -42.833 74 -80.5s23 -88.5 23 -152.5c0 -93.333 -16.667 -159 -50 -197s-90.666 -57 -171.999 -57c-40 0 -72.333 3.66699 -97 11l-32 -69l-33 15l32 67c-32.667 16.667 -56.334 43.5 -71.001 80.5s-22 86.833 -22 149.5
c0 93.333 16.833 159.166 50.5 197.499s91.167 57.5 172.5 57.5c36 0 66.333 -3.33301 91 -10l30 66zM178 67.001l171.001 368c-16.667 4.66699 -38.667 7 -66 7c-58.667 0 -99.334 -14.333 -122.001 -43s-34 -81 -34 -157c0 -90.667 17 -149 51 -175zM382.001 420.001
l-172.001 -368.999c20 -6 44.333 -9 73 -9c58.667 0 99.334 14.333 122.001 43s34 81 34 157c0 93.333 -19 152.666 -57 177.999z" />
    <glyph glyph-name="ugrave" unicode="&#xf9;" 
d="M307 553l-178 127l38 48l164 -146zM482 484l0.00195312 -484h-50l-5 76c-74.667 -58.667 -146.334 -88 -215.001 -88c-87.333 0 -131 44 -131 132v364h63v-347c0 -33.333 7 -57.333 21 -72s36.667 -22 68 -22c27.333 0 54.666 6.16699 81.999 18.5s62 32.833 104 61.5
v361h63z" />
    <glyph glyph-name="uacute" unicode="&#xfa;" 
d="M249 553l-24 29l164 146l38 -48zM482 484l0.00195312 -484h-50l-5 76c-74.667 -58.667 -146.334 -88 -215.001 -88c-87.333 0 -131 44 -131 132v364h63v-347c0 -33.333 7 -57.333 21 -72s36.667 -22 68 -22c27.333 0 54.666 6.16699 81.999 18.5s62 32.833 104 61.5v361
h63z" />
    <glyph glyph-name="ucircumflex" unicode="&#xfb;" 
d="M151 561l-23 28l133 123h46l134 -123l-23 -28l-130 99h-8zM482 484l0.00195312 -484h-50l-5 76c-74.667 -58.667 -146.334 -88 -215.001 -88c-87.333 0 -131 44 -131 132v364h63v-347c0 -33.333 7 -57.333 21 -72s36.667 -22 68 -22c27.333 0 54.666 6.16699 81.999 18.5
s62 32.833 104 61.5v361h63z" />
    <glyph glyph-name="udieresis" unicode="&#xfc;" 
d="M207 593h-22c-12.667 0 -19 6.33301 -19 19v55c0 13.333 6.33301 20 19 20h22c12 0 18 -6.66699 18 -20v-55c0 -12.667 -6 -19 -18 -19zM384 593h-22c-12.667 0 -19 6.33301 -19 19v55c0 13.333 6.33301 20 19 20h22c12.667 0 19 -6.66699 19 -20v-55
c0 -12.667 -6.33301 -19 -19 -19zM482 484l0.00195312 -484h-50l-5 76c-74.667 -58.667 -146.334 -88 -215.001 -88c-87.333 0 -131 44 -131 132v364h63v-347c0 -33.333 7 -57.333 21 -72s36.667 -22 68 -22c27.333 0 54.666 6.16699 81.999 18.5s62 32.833 104 61.5v361h63
z" />
    <glyph glyph-name="yacute" unicode="&#xfd;" horiz-adv-x="521" 
d="M228 550l-24 30l164 146l38 -48zM498 484l-204.001 -518.004c-19.333 -49.333 -43.666 -89.166 -72.999 -119.499s-69 -48.166 -119 -53.499l-8 41c38 12.667 67.667 30.334 89 53.001s38.666 51.334 51.999 86.001l12 27h-16c-12.667 0 -21 5.66699 -25 17l-184 467h68
l143 -378c10.667 -28 17.334 -46.667 20.001 -56h14l21 57l142 377h68z" />
    <glyph glyph-name="thorn" unicode="&#xfe;" horiz-adv-x="570" 
d="M148 700v-181.998c0 -42.667 -1.33301 -75.334 -4 -98.001c62 50.667 124.667 76 188 76s108.333 -19.833 135 -59.5s40 -105.167 40 -196.5c0 -92.667 -13.5 -157.834 -40.5 -195.501s-72.167 -56.5 -135.5 -56.5s-125.333 15.667 -186 47c2 -21.333 3 -52 3 -92v-147
h-64v904h64zM148 367.002l-0.000976562 -285.001c68 -27.333 123 -41 165 -41c46.667 0 79.834 14.667 99.501 44s29.5 81 29.5 155c0 74.667 -9.5 126.834 -28.5 156.501s-51.5 44.5 -97.5 44.5c-46.667 0 -102.667 -24.667 -168 -74z" />
    <glyph glyph-name="ydieresis" unicode="&#xff;" horiz-adv-x="521" 
d="M185 590h-22c-12.667 0 -19 6.66699 -19 20v55c0 12.667 6.33301 19 19 19h22c12.667 0 19 -6.33301 19 -19v-55c0 -13.333 -6.33301 -20 -19 -20zM362 590h-22c-12.667 0 -19 6.66699 -19 20v55c0 12.667 6.33301 19 19 19h22c12.667 0 19 -6.33301 19 -19v-55
c0 -13.333 -6.33301 -20 -19 -20zM498 484l-204.001 -518.004c-19.333 -49.333 -43.666 -89.166 -72.999 -119.499s-69 -48.166 -119 -53.499l-8 41c38 12.667 67.667 30.334 89 53.001s38.666 51.334 51.999 86.001l12 27h-16c-12.667 0 -21 5.66699 -25 17l-184 467h68
l143 -378c10.667 -28 17.334 -46.667 20.001 -56h14l21 57l142 377h68z" />
    <glyph glyph-name="Amacron" unicode="&#x100;" horiz-adv-x="615" 
d="M444 792h-272v49h272v-49zM458 228h-301l-76 -228h-68l231 671c4 12.667 12.667 19 26 19h75c13.333 0 22 -6.33301 26 -19l231 -671h-68zM439 285l-98.999 296.999c-0.666992 3.33301 -3.33398 11.833 -8.00098 25.5s-8 23.834 -10 30.501h-28l-19 -56l-99 -297h263z
" />
    <glyph glyph-name="amacron" unicode="&#x101;" horiz-adv-x="545" 
d="M405 612h-273v49h273v-49zM83 428l-6 47c96.667 14.667 174.334 22 233.001 22c52 0 90.833 -11.5 116.5 -34.5s38.5 -61.167 38.5 -114.5v-348h-50l-8 85c-24 -24 -55.167 -45.5 -93.5 -64.5s-77.833 -28.5 -118.5 -28.5c-42.667 0 -76.334 11.333 -101.001 34
s-37 55 -37 97v56c0 37.333 11 66.333 33 87s53.333 31 94 31h217v51c0 32 -7.5 55.667 -22.5 71s-41.833 23 -80.5 23c-57.333 0 -129 -4.66699 -215 -14zM121 171l0.000976562 -42c0 -54 28.333 -81 85 -81c29.333 -0.666992 62.166 6.5 98.499 21.5
s68.5 35.167 96.5 60.5v116h-207c-48.667 -2 -73 -27 -73 -75z" />
    <glyph glyph-name="Abreve" unicode="&#x102;" horiz-adv-x="615" 
d="M418 880l34.001 -6c2 -37.333 -10 -67.5 -36 -90.5s-62 -34.5 -108 -34.5s-82.167 11.5 -108.5 34.5s-38.833 53.167 -37.5 90.5l35 6c0 -26 9.66699 -46.167 29 -60.5s46.666 -21.5 81.999 -21.5c34 0 60.833 7.16699 80.5 21.5s29.5 34.5 29.5 60.5zM458.001 228h-301
l-76 -228h-68l231 671c4 12.667 12.667 19 26 19h75c13.333 0 22 -6.33301 26 -19l231 -671h-68zM439.001 285l-98.999 296.999c-0.666992 3.33301 -3.33398 11.833 -8.00098 25.5s-8 23.834 -10 30.501h-28l-19 -56l-99 -297h263z" />
    <glyph glyph-name="abreve" unicode="&#x103;" horiz-adv-x="545" 
d="M378 699l35 -5c1.33301 -38 -11 -68.5 -37 -91.5s-62 -34.5 -108 -34.5s-82.167 11.5 -108.5 34.5s-38.5 53.5 -36.5 91.5l34 5c0 -26 9.83301 -46 29.5 -60s47.167 -21 82.5 -21c34 0 60.667 7 80 21s29 34 29 60zM83 428l-6 47c96.667 14.667 174.334 22 233.001 22
c52 0 90.833 -11.5 116.5 -34.5s38.5 -61.167 38.5 -114.5v-348h-50l-8 85c-24 -24 -55.167 -45.5 -93.5 -64.5s-77.833 -28.5 -118.5 -28.5c-42.667 0 -76.334 11.333 -101.001 34s-37 55 -37 97v56c0 37.333 11 66.333 33 87s53.333 31 94 31h217v51
c0 32 -7.5 55.667 -22.5 71s-41.833 23 -80.5 23c-57.333 0 -129 -4.66699 -215 -14zM121 171l0.000976562 -42c0 -54 28.333 -81 85 -81c29.333 -0.666992 62.166 6.5 98.499 21.5s68.5 35.167 96.5 60.5v116h-207c-48.667 -2 -73 -27 -73 -75z" />
    <glyph glyph-name="Aogonek" unicode="&#x104;" horiz-adv-x="615" 
d="M607 -166l7.00293 -27.999c-57.333 -22 -97.833 -24.5 -121.5 -7.5s-28.834 44.167 -15.501 81.5c13.333 40 43.666 80 90.999 120h-34l-76 228h-301l-76 -228h-68l231 671c4 12.667 12.667 19 26 19h75c13.333 0 22 -6.33301 26 -19l231 -671
c-38.667 -42.667 -65 -82 -79 -118c-10.667 -26.667 -7.83398 -44.334 8.49902 -53.001s41.5 -7 75.5 5zM439.003 285.001l-98.999 296.999c-0.666992 3.33301 -3.33398 11.833 -8.00098 25.5s-8 23.834 -10 30.501h-28l-19 -56l-99 -297h263z" />
    <glyph glyph-name="aogonek" unicode="&#x105;" horiz-adv-x="545" 
d="M470 -166l7.00293 -27.999c-57.333 -22 -97.833 -24.5 -121.5 -7.5s-28.834 44.167 -15.501 81.5c13.333 40 43.666 80 90.999 120h-16l-8 85c-24 -24 -55.167 -45.5 -93.5 -64.5s-77.833 -28.5 -118.5 -28.5c-42.667 0 -76.334 11.333 -101.001 34s-37 55 -37 97v56
c0 37.333 11 66.333 33 87s53.333 31 94 31h217v51c0 32 -7.5 55.667 -22.5 71s-41.833 23 -80.5 23c-57.333 0 -129 -4.66699 -215 -14l-6 47c96.667 14.667 174.334 22 233.001 22c52 0 90.833 -11.5 116.5 -34.5s38.5 -61.167 38.5 -114.5v-348
c-38.667 -42.667 -65 -82 -79 -118c-10.667 -26.667 -7.83398 -44.334 8.49902 -53.001s41.5 -7 75.5 5zM121.003 171.001l0.000976562 -42c0 -54 28.333 -81 85 -81c29.333 -0.666992 62.166 6.5 98.499 21.5s68.5 35.167 96.5 60.5v116h-207c-48.667 -2 -73 -27 -73 -75z
" />
    <glyph glyph-name="Cacute" unicode="&#x106;" 
d="M464 859l-178 -128l-24 30l164 146zM521 58l8.00098 -48.998c-52 -14 -118 -21 -198 -21c-97.333 0 -165.666 26.667 -204.999 80s-59 145.666 -59 276.999s19.667 223.666 59 276.999s107.666 80 204.999 80c72.667 0 134 -6.33301 184 -19l-8 -49
c-50.667 6 -109.334 9 -176.001 9c-73.333 0 -124.333 -21.667 -153 -65s-43 -121 -43 -233s14.333 -189.667 43 -233s79.667 -65 153 -65c76 0 139.333 3.66699 190 11z" />
    <glyph glyph-name="cacute" unicode="&#x107;" horiz-adv-x="485" 
d="M412 678l-178 -128l-24 30l164 146zM438 54l7 -43.999c-49.333 -14.667 -102 -22 -158 -22c-83.333 0 -142 19 -176 57s-51 103.667 -51 197s17 159.166 51 197.499s92.667 57.5 176 57.5c59.333 0 109 -7.33301 149 -22l-10 -41c-35.333 5.33301 -78.333 8 -129 8
c-64 0 -108.5 -14.167 -133.5 -42.5s-37.5 -80.833 -37.5 -157.5s12.5 -129 37.5 -157s69.5 -42 133.5 -42c56 0 103 3.66699 141 11z" />
    <glyph glyph-name="Cdotaccent" unicode="&#x10a;" 
d="M310 865h22c14 0 21 -7 21 -21v-59c0 -14 -7 -21 -21 -21h-22c-14 0 -21 7 -21 21v59c0 14 7 21 21 21zM521 58l8.00098 -48.998c-52 -14 -118 -21 -198 -21c-97.333 0 -165.666 26.667 -204.999 80s-59 145.666 -59 276.999s19.667 223.666 59 276.999
s107.666 80 204.999 80c72.667 0 134 -6.33301 184 -19l-8 -49c-50.667 6 -109.334 9 -176.001 9c-73.333 0 -124.333 -21.667 -153 -65s-43 -121 -43 -233s14.333 -189.667 43 -233s79.667 -65 153 -65c76 0 139.333 3.66699 190 11z" />
    <glyph glyph-name="cdotaccent" unicode="&#x10b;" horiz-adv-x="485" 
d="M259 684h21c14 0 21 -7 21 -21v-59c0 -13.333 -7 -20 -21 -20h-21c-14 0 -21 6.66699 -21 20v59c0 14 7 21 21 21zM438 54l7 -43.999c-49.333 -14.667 -102 -22 -158 -22c-83.333 0 -142 19 -176 57s-51 103.667 -51 197s17 159.166 51 197.499s92.667 57.5 176 57.5
c59.333 0 109 -7.33301 149 -22l-10 -41c-35.333 5.33301 -78.333 8 -129 8c-64 0 -108.5 -14.167 -133.5 -42.5s-37.5 -80.833 -37.5 -157.5s12.5 -129 37.5 -157s69.5 -42 133.5 -42c56 0 103 3.66699 141 11z" />
    <glyph glyph-name="Ccaron" unicode="&#x10c;" 
d="M479 870l-141 -124h-32l-141 124l24 28l129 -93h8l130 93zM521 58l8.00098 -48.998c-52 -14 -118 -21 -198 -21c-97.333 0 -165.666 26.667 -204.999 80s-59 145.666 -59 276.999s19.667 223.666 59 276.999s107.666 80 204.999 80c72.667 0 134 -6.33301 184 -19l-8 -49
c-50.667 6 -109.334 9 -176.001 9c-73.333 0 -124.333 -21.667 -153 -65s-43 -121 -43 -233s14.333 -189.667 43 -233s79.667 -65 153 -65c76 0 139.333 3.66699 190 11z" />
    <glyph glyph-name="ccaron" unicode="&#x10d;" horiz-adv-x="485" 
d="M428 689l-141 -123h-32l-141 123l23 28l130 -92h8l129 92zM438 54l7 -43.999c-49.333 -14.667 -102 -22 -158 -22c-83.333 0 -142 19 -176 57s-51 103.667 -51 197s17 159.166 51 197.499s92.667 57.5 176 57.5c59.333 0 109 -7.33301 149 -22l-10 -41
c-35.333 5.33301 -78.333 8 -129 8c-64 0 -108.5 -14.167 -133.5 -42.5s-37.5 -80.833 -37.5 -157.5s12.5 -129 37.5 -157s69.5 -42 133.5 -42c56 0 103 3.66699 141 11z" />
    <glyph glyph-name="Dcaron" unicode="&#x10e;" horiz-adv-x="662" 
d="M305 746l-141 124l24 28l129 -93h8l130 93l23 -28l-141 -124h-32zM93 0l-0.000976562 689.998c82.667 6 162.334 9 239.001 9c97.333 0 165.5 -26.167 204.5 -78.5s58.5 -144.166 58.5 -275.499s-19.5 -223.166 -58.5 -275.499s-107.167 -78.5 -204.5 -78.5
c-75.333 0 -155 3 -239 9zM157.999 638.998v-588.001c66.667 -1.33301 124.667 -2 174 -2c72.667 0 123.167 21.667 151.5 65s42.5 120.333 42.5 231s-14.167 187.834 -42.5 231.501s-78.833 65.5 -151.5 65.5c-12 0 -70 -1 -174 -3z" />
    <glyph glyph-name="dcaron" unicode="&#x10f;" horiz-adv-x="569" 
d="M578 703l16.998 -0.000976562c14 0 21 -7 21 -21v-53c-1.33301 -43.333 -9.66602 -83.666 -24.999 -120.999l-27 8c4.66699 32 7 64.667 7 98c-12 0 -17.333 6 -16 18v50c0.666992 14 8.33398 21 23.001 21zM483.998 699.999v-700.001h-49l-7 75
c-66 -58 -130.667 -87 -194 -87c-61.333 0 -105.5 20.333 -132.5 61s-40.5 105.334 -40.5 194.001c0 92 14.333 157.333 43 196s74.667 58 138 58c61.333 0 122.333 -15.667 183 -47c-2.66699 22 -4 53.667 -4 95v155h63zM420.998 120.998v285
c-68.667 23.333 -124 35 -166 35c-47.333 0 -80.5 -14.167 -99.5 -42.5s-28.5 -79.833 -28.5 -154.5c0 -75.333 9.33301 -127.5 28 -156.5s51 -43.5 97 -43.5c27.333 0 53 5.66699 77 17s54.667 31.333 92 60z" />
    <glyph glyph-name="Dcroat" unicode="&#x110;" horiz-adv-x="666" 
d="M97 388l-0.000976562 301.998c82.667 6 162.334 9 239.001 9c97.333 0 165.5 -26.167 204.5 -78.5s58.5 -144.166 58.5 -275.499s-19.5 -223.166 -58.5 -275.499s-107.167 -78.5 -204.5 -78.5c-75.333 0 -155 3 -239 9v349h-73v39h73zM161.999 348.998v-298.001
c66.667 -1.33301 124.667 -2 174 -2c72.667 0 123.167 21.667 151.5 65s42.5 120.333 42.5 231s-14.167 187.834 -42.5 231.501s-78.833 65.5 -151.5 65.5c-12 0 -70 -1 -174 -3v-251h163v-39h-163z" />
    <glyph glyph-name="dcroat" unicode="&#x111;" horiz-adv-x="562" 
d="M554 579l-70 -0.000976562v-579h-49l-7 75c-66 -58 -130.667 -87 -194 -87c-61.333 0 -105.5 20.333 -132.5 61s-40.5 105.334 -40.5 194.001c0 92 14.333 157.333 43 196s74.667 58 138 58c61.333 0 122.333 -15.667 183 -47c-2.66699 22 -4 53.667 -4 95v34h-162v39
h162v82h63v-82h70v-39zM421 120.999v285c-68.667 23.333 -124 35 -166 35c-47.333 0 -80.5 -14.167 -99.5 -42.5s-28.5 -79.833 -28.5 -154.5c0 -75.333 9.33301 -127.5 28 -156.5s51 -43.5 97 -43.5c27.333 0 53 5.66699 77 17s54.667 31.333 92 60z" />
    <glyph glyph-name="Emacron" unicode="&#x112;" horiz-adv-x="557" 
d="M446 814h-272v49h272v-49zM500 55l4 -50.002c-62.667 -4 -161 -6 -295 -6c-36.667 0 -66.167 10.333 -88.5 31s-33.5 48.334 -33.5 83.001v464c0 34.667 11.167 62.334 33.5 83.001s51.833 31 88.5 31c134 0 232.333 -2 295 -6l-4 -50h-280
c-44.667 0 -67 -24.333 -67 -73v-169h308v-53h-308v-213c0 -48 22.333 -72 67 -72h280z" />
    <glyph glyph-name="emacron" unicode="&#x113;" horiz-adv-x="534" 
d="M415 612h-272v49h272v-49zM368 211h-242.002c4 -64 18.667 -108 44 -132s66.666 -36 123.999 -36c50 0 105.667 4 167 12l7 -43c-41.333 -16 -102.333 -24 -183 -24c-81.333 0 -139.166 19.5 -173.499 58.5s-51.5 104.833 -51.5 197.5c0 93.333 16.667 158.833 50 196.5
s89 56.5 167 56.5c68.667 0 119.334 -12.5 152.001 -37.5s49.334 -62.833 50.001 -113.5c1.33301 -90 -35.667 -135 -111 -135zM125.998 261h227.001c42.667 0 63.334 28 62.001 84c-0.666992 34 -11.667 58.667 -33 74s-55.333 23 -102 23
c-56.667 0 -96.334 -13.167 -119.001 -39.5s-34.334 -73.5 -35.001 -141.5z" />
    <glyph glyph-name="Edotaccent" unicode="&#x116;" horiz-adv-x="557" 
d="M321 786h-22c-14 0 -21 7 -21 21v59c0 14 7 21 21 21h22c14 0 21 -7 21 -21v-59c0 -14 -7 -21 -21 -21zM500 55l4 -50.002c-62.667 -4 -161 -6 -295 -6c-36.667 0 -66.167 10.333 -88.5 31s-33.5 48.334 -33.5 83.001v464c0 34.667 11.167 62.334 33.5 83.001
s51.833 31 88.5 31c134 0 232.333 -2 295 -6l-4 -50h-280c-44.667 0 -67 -24.333 -67 -73v-169h308v-53h-308v-213c0 -48 22.333 -72 67 -72h280z" />
    <glyph glyph-name="edotaccent" unicode="&#x117;" horiz-adv-x="534" 
d="M290 584h-22c-14 0 -21 6.66699 -21 20v59c0 14 7 21 21 21h22c13.333 0 20 -7 20 -21v-59c0 -13.333 -6.66699 -20 -20 -20zM368 211h-242.002c4 -64 18.667 -108 44 -132s66.666 -36 123.999 -36c50 0 105.667 4 167 12l7 -43c-41.333 -16 -102.333 -24 -183 -24
c-81.333 0 -139.166 19.5 -173.499 58.5s-51.5 104.833 -51.5 197.5c0 93.333 16.667 158.833 50 196.5s89 56.5 167 56.5c68.667 0 119.334 -12.5 152.001 -37.5s49.334 -62.833 50.001 -113.5c1.33301 -90 -35.667 -135 -111 -135zM125.998 261h227.001
c42.667 0 63.334 28 62.001 84c-0.666992 34 -11.667 58.667 -33 74s-55.333 23 -102 23c-56.667 0 -96.334 -13.167 -119.001 -39.5s-34.334 -73.5 -35.001 -141.5z" />
    <glyph glyph-name="Eogonek" unicode="&#x118;" horiz-adv-x="557" 
d="M509 -162l7 -27c-57.333 -22 -97.833 -24.5 -121.5 -7.5s-28.834 44.167 -15.501 81.5c12.667 38.667 42.334 78 89.001 118c-56 -2.66699 -142.333 -4 -259 -4c-36.667 0 -66.167 10.333 -88.5 31s-33.5 48.334 -33.5 83.001v464c0 34.667 11.167 62.334 33.5 83.001
s51.833 31 88.5 31c134 0 232.333 -2 295 -6l-4 -50h-280c-44.667 0 -67 -24.333 -67 -73v-169h308v-53h-308v-213c0 -48 22.333 -72 67 -72h280l4 -50c-38.667 -42.667 -65 -82 -79 -118c-10 -26.667 -7 -44.334 9 -53.001s41 -7.33398 75 3.99902z" />
    <glyph glyph-name="eogonek" unicode="&#x119;" horiz-adv-x="534" 
d="M472 -154l8 -26.999c-58 -22 -98.833 -24.667 -122.5 -8s-28.5 43.667 -14.5 81c11.333 36 37 72 77 108c-42.667 -8 -87.667 -12 -135 -12c-81.333 0 -139.166 19.5 -173.499 58.5s-51.5 104.833 -51.5 197.5c0 93.333 16.667 158.833 50 196.5s89 56.5 167 56.5
c68.667 0 119.334 -12.5 152.001 -37.5s49.334 -62.833 50.001 -113.5c1.33301 -90 -35.667 -135 -111 -135h-242c4 -64 18.667 -108 44 -132s66.666 -36 123.999 -36c50 0 105.667 4 167 12l7 -43c-38 -40.667 -64.333 -80 -79 -118
c-10.667 -26.667 -7.83398 -44.334 8.49902 -53.001s41.166 -7 74.499 5zM126 261.001h227.001c42.667 0 63.334 28 62.001 84c-0.666992 34 -11.667 58.667 -33 74s-55.333 23 -102 23c-56.667 0 -96.334 -13.167 -119.001 -39.5s-34.334 -73.5 -35.001 -141.5z" />
    <glyph glyph-name="Ecaron" unicode="&#x11a;" horiz-adv-x="557" 
d="M295 769l-141 123l23 28l130 -92h8l129 92l24 -28l-141 -123h-32zM500 55l4 -50.002c-62.667 -4 -161 -6 -295 -6c-36.667 0 -66.167 10.333 -88.5 31s-33.5 48.334 -33.5 83.001v464c0 34.667 11.167 62.334 33.5 83.001s51.833 31 88.5 31c134 0 232.333 -2 295 -6
l-4 -50h-280c-44.667 0 -67 -24.333 -67 -73v-169h308v-53h-308v-213c0 -48 22.333 -72 67 -72h280z" />
    <glyph glyph-name="ecaron" unicode="&#x11b;" horiz-adv-x="534" 
d="M264 566l-141 123l23 28l130 -92h8l129 92l24 -28l-141 -123h-32zM368 211h-242.002c4 -64 18.667 -108 44 -132s66.666 -36 123.999 -36c50 0 105.667 4 167 12l7 -43c-41.333 -16 -102.333 -24 -183 -24c-81.333 0 -139.166 19.5 -173.499 58.5
s-51.5 104.833 -51.5 197.5c0 93.333 16.667 158.833 50 196.5s89 56.5 167 56.5c68.667 0 119.334 -12.5 152.001 -37.5s49.334 -62.833 50.001 -113.5c1.33301 -90 -35.667 -135 -111 -135zM125.998 261h227.001c42.667 0 63.334 28 62.001 84
c-0.666992 34 -11.667 58.667 -33 74s-55.333 23 -102 23c-56.667 0 -96.334 -13.167 -119.001 -39.5s-34.334 -73.5 -35.001 -141.5z" />
    <glyph glyph-name="Gbreve" unicode="&#x11e;" horiz-adv-x="626" 
d="M436 880l34 -6c2 -37.333 -10 -67.5 -36 -90.5s-62 -34.5 -108 -34.5s-82.167 11.5 -108.5 34.5s-38.5 53.167 -36.5 90.5l34 6c0 -26 9.83301 -46.167 29.5 -60.5s47.167 -21.5 82.5 -21.5c34 0 60.667 7.16699 80 21.5s29 34.5 29 60.5zM553 399l0.00195312 -399h-47
l-9 78c-58.667 -60 -128.334 -90 -209.001 -90c-78.667 0 -135.167 28.333 -169.5 85s-51.5 147.667 -51.5 273c0 134 20.333 226.833 61 278.5s112.667 77.5 216 77.5c76 0 140.667 -6.33301 194 -19l-8 -49c-60 6.66699 -120.667 10 -182 10
c-54.667 0 -96.667 -8.33301 -126 -25s-51 -46.5 -65 -89.5s-21 -105.167 -21 -186.5c0 -108 12.667 -184.667 38 -230s69 -68 131 -68c24.667 0 49 4.33301 73 13s43.167 17.667 57.5 27s32.166 22.333 53.499 39v275h64z" />
    <glyph glyph-name="gbreve" unicode="&#x11f;" horiz-adv-x="553" 
d="M381 699l35 -5c1.33301 -38 -11 -68.5 -37 -91.5s-62 -34.5 -108 -34.5s-82.167 11.5 -108.5 34.5s-38.5 53.5 -36.5 91.5l34 5c0 -26 9.83301 -46 29.5 -60s47.167 -21 82.5 -21c34 0 60.667 7 80 21s29 34 29 60zM525 448l-81.002 -5.99609
c18.667 -22.667 28 -55.667 28 -99c0 -52.667 -15.333 -91 -46 -115s-82.667 -36 -156 -36c-45.333 0 -82 4.33301 -110 13c-10 -12.667 -16 -25.834 -18 -39.501s1.5 -26.334 10.5 -38.001s23.833 -19.167 44.5 -22.5l186 -31c44 -6.66699 74.5 -20.334 91.5 -41.001
s25.5 -51.334 25.5 -92.001c0 -54.667 -16.5 -92.667 -49.5 -114s-91.5 -32 -175.5 -32c-85.333 0 -144.666 10.5 -177.999 31.5s-50 58.5 -50 112.5c0 32 6 57.5 18 76.5s33.333 36.5 64 52.5c-28.667 18 -42.5 43 -41.5 75s14.167 57.333 39.5 76
c-40 22 -60 63.333 -60 124c0 54 15.333 93.167 46 117.5s83 36.5 157 36.5c44.667 0 80.334 -4.33301 107.001 -13h152zM269.998 241.004c52 0 88.668 8 110.001 24s32 42 32 78c0 37.333 -10.667 64 -32 80s-58 24 -110 24c-52.667 0 -89.834 -8 -111.501 -24
s-32.5 -42.667 -32.5 -80c0 -36 11 -62 33 -78s59 -24 111 -24zM171.999 54.0039l-4 -3.00098c-22 -15.333 -37.333 -30.666 -46 -45.999s-13 -36 -13 -62c0 -36.667 11.667 -61.5 35 -74.5s67 -19.5 131 -19.5c62.667 0 105.5 6.66699 128.5 20s34.5 38 34.5 74
c0 28 -5.5 47.5 -16.5 58.5s-33.833 19.167 -68.5 24.5z" />
    <glyph glyph-name="Gdotaccent" unicode="&#x120;" horiz-adv-x="626" 
d="M337 764h-21c-14 0 -21 7 -21 21v59c0 14 7 21 21 21h21c14 0 21 -7 21 -21v-59c0 -14 -7 -21 -21 -21zM553 399l0.00195312 -399h-47l-9 78c-58.667 -60 -128.334 -90 -209.001 -90c-78.667 0 -135.167 28.333 -169.5 85s-51.5 147.667 -51.5 273
c0 134 20.333 226.833 61 278.5s112.667 77.5 216 77.5c76 0 140.667 -6.33301 194 -19l-8 -49c-60 6.66699 -120.667 10 -182 10c-54.667 0 -96.667 -8.33301 -126 -25s-51 -46.5 -65 -89.5s-21 -105.167 -21 -186.5c0 -108 12.667 -184.667 38 -230s69 -68 131 -68
c24.667 0 49 4.33301 73 13s43.167 17.667 57.5 27s32.166 22.333 53.499 39v275h64z" />
    <glyph glyph-name="gdotaccent" unicode="&#x121;" horiz-adv-x="553" 
d="M282 584h-21c-14 0 -21 6.66699 -21 20v59c0 14 7 21 21 21h21c14 0 21 -7 21 -21v-59c0 -13.333 -7 -20 -21 -20zM525 448l-81.002 -5.99609c18.667 -22.667 28 -55.667 28 -99c0 -52.667 -15.333 -91 -46 -115s-82.667 -36 -156 -36c-45.333 0 -82 4.33301 -110 13
c-10 -12.667 -16 -25.834 -18 -39.501s1.5 -26.334 10.5 -38.001s23.833 -19.167 44.5 -22.5l186 -31c44 -6.66699 74.5 -20.334 91.5 -41.001s25.5 -51.334 25.5 -92.001c0 -54.667 -16.5 -92.667 -49.5 -114s-91.5 -32 -175.5 -32c-85.333 0 -144.666 10.5 -177.999 31.5
s-50 58.5 -50 112.5c0 32 6 57.5 18 76.5s33.333 36.5 64 52.5c-28.667 18 -42.5 43 -41.5 75s14.167 57.333 39.5 76c-40 22 -60 63.333 -60 124c0 54 15.333 93.167 46 117.5s83 36.5 157 36.5c44.667 0 80.334 -4.33301 107.001 -13h152zM269.998 241.004
c52 0 88.668 8 110.001 24s32 42 32 78c0 37.333 -10.667 64 -32 80s-58 24 -110 24c-52.667 0 -89.834 -8 -111.501 -24s-32.5 -42.667 -32.5 -80c0 -36 11 -62 33 -78s59 -24 111 -24zM171.999 54.0039l-4 -3.00098c-22 -15.333 -37.333 -30.666 -46 -45.999
s-13 -36 -13 -62c0 -36.667 11.667 -61.5 35 -74.5s67 -19.5 131 -19.5c62.667 0 105.5 6.66699 128.5 20s34.5 38 34.5 74c0 28 -5.5 47.5 -16.5 58.5s-33.833 19.167 -68.5 24.5z" />
    <glyph glyph-name="Gcommaaccent" unicode="&#x122;" horiz-adv-x="626" 
d="M553 399l0.00195312 -399h-47l-9 78c-58.667 -60 -128.334 -90 -209.001 -90c-78.667 0 -135.167 28.333 -169.5 85s-51.5 147.667 -51.5 273c0 134 20.333 226.833 61 278.5s112.667 77.5 216 77.5c76 0 140.667 -6.33301 194 -19l-8 -49
c-60 6.66699 -120.667 10 -182 10c-54.667 0 -96.667 -8.33301 -126 -25s-51 -46.5 -65 -89.5s-21 -105.167 -21 -186.5c0 -108 12.667 -184.667 38 -230s69 -68 131 -68c24.667 0 49 4.33301 73 13s43.167 17.667 57.5 27s32.166 22.333 53.499 39v275h64zM315.002 -60h18
c14.667 0 22 -7.33301 22 -22v-56c-1.33301 -46 -10 -88.333 -26 -127l-28 9c4.66699 32.667 7 66.667 7 102c-11.333 0 -16.333 6.33301 -15 19v53c0 14.667 7.33301 22 22 22z" />
    <glyph glyph-name="gcommaaccent" unicode="&#x123;" horiz-adv-x="553" 
d="M289 560h-18c-14.667 0 -22 7.33301 -22 22v56c1.33301 44.667 10.333 86.667 27 126l27 -8c-4.66699 -32.667 -7 -67 -7 -103c12 0 17.333 -6 16 -18v-53c0 -14.667 -7.66699 -22 -23 -22zM525 448l-81.002 -5.99609c18.667 -22.667 28 -55.667 28 -99
c0 -52.667 -15.333 -91 -46 -115s-82.667 -36 -156 -36c-45.333 0 -82 4.33301 -110 13c-10 -12.667 -16 -25.834 -18 -39.501s1.5 -26.334 10.5 -38.001s23.833 -19.167 44.5 -22.5l186 -31c44 -6.66699 74.5 -20.334 91.5 -41.001s25.5 -51.334 25.5 -92.001
c0 -54.667 -16.5 -92.667 -49.5 -114s-91.5 -32 -175.5 -32c-85.333 0 -144.666 10.5 -177.999 31.5s-50 58.5 -50 112.5c0 32 6 57.5 18 76.5s33.333 36.5 64 52.5c-28.667 18 -42.5 43 -41.5 75s14.167 57.333 39.5 76c-40 22 -60 63.333 -60 124
c0 54 15.333 93.167 46 117.5s83 36.5 157 36.5c44.667 0 80.334 -4.33301 107.001 -13h152zM269.998 241.004c52 0 88.668 8 110.001 24s32 42 32 78c0 37.333 -10.667 64 -32 80s-58 24 -110 24c-52.667 0 -89.834 -8 -111.501 -24s-32.5 -42.667 -32.5 -80
c0 -36 11 -62 33 -78s59 -24 111 -24zM171.999 54.0039l-4 -3.00098c-22 -15.333 -37.333 -30.666 -46 -45.999s-13 -36 -13 -62c0 -36.667 11.667 -61.5 35 -74.5s67 -19.5 131 -19.5c62.667 0 105.5 6.66699 128.5 20s34.5 38 34.5 74c0 28 -5.5 47.5 -16.5 58.5
s-33.833 19.167 -68.5 24.5z" />
    <glyph glyph-name="Hbar" unicode="&#x126;" horiz-adv-x="672" 
d="M649 521h-74v-521h-65v341h-348v-341h-65v521h-74v38h74v131h65v-131h348v131h65v-131h74v-38zM510 521h-348v-124h348v124z" />
    <glyph glyph-name="hbar" unicode="&#x127;" horiz-adv-x="581" 
d="M153 579v-80c0 -38.667 -2.33301 -70 -7 -94c82.667 61.333 157 92 223 92c42.667 0 75.167 -11.333 97.5 -34s33.5 -55.667 33.5 -99v-364h-64v347c0 34 -6.5 58.333 -19.5 73s-34.5 22 -64.5 22c-29.333 0 -59 -6.5 -89 -19.5s-67.333 -34.5 -112 -64.5v-358h-63v579
h-79v39h79v82h64v-82h152v-39h-151z" />
    <glyph glyph-name="Imacron" unicode="&#x12a;" horiz-adv-x="251" 
d="M261 792h-272v49h272v-49zM158 0h-65v690h65v-690z" />
    <glyph glyph-name="imacron" unicode="&#x12b;" horiz-adv-x="239" 
d="M255 612h-272v49h272v-49zM151 0h-63v484h63v-484z" />
    <glyph glyph-name="Iogonek" unicode="&#x12e;" horiz-adv-x="251" 
d="M157 -166l7.00098 -27.999c-57.333 -22 -97.833 -24.5 -121.5 -7.5s-28.834 44.167 -15.501 81.5c13.333 40.667 44 80.667 92 120h-26v690h65v-690h-6c-38.667 -42.667 -65 -82 -79 -118c-10 -26.667 -7 -44.334 9 -53.001s41 -7 75 5z" />
    <glyph glyph-name="iogonek" unicode="&#x12f;" horiz-adv-x="239" 
d="M130 584h-21c-14 0 -21 6.66699 -21 20v59c0 14 7 21 21 21h21c14 0 21 -7 21 -21v-59c0 -13.333 -7 -20 -21 -20zM152 -166l7.00195 -27.999c-57.333 -22 -97.833 -24.5 -121.5 -7.5s-28.834 44.167 -15.501 81.5c13.333 40 43.666 80 90.999 120h-25v484h63v-484h-4
c-38.667 -42.667 -65 -82 -79 -118c-10 -26.667 -7 -44.334 9 -53.001s41 -7 75 5z" />
    <glyph glyph-name="Idotaccent" unicode="&#x130;" horiz-adv-x="251" 
d="M115 865h21c14 0 21 -7 21 -21v-59c0 -14 -7 -21 -21 -21h-21c-14 0 -21 7 -21 21v59c0 14 7 21 21 21zM158 0h-65v690h65v-690z" />
    <glyph glyph-name="dotlessi" unicode="&#x131;" horiz-adv-x="239" 
d="M151 0h-63v484h63v-484z" />
    <glyph glyph-name="IJ" unicode="&#x132;" horiz-adv-x="585" 
d="M158 0h-65v690h65v-690zM495 690v-556c0 -94.667 -43 -142 -129 -142c-28 0 -55.333 3.33301 -82 10l7 46h53c57.333 0 86 28 86 84v558h65z" />
    <glyph glyph-name="ij" unicode="&#x133;" horiz-adv-x="478" 
d="M105 688h29c14 0 21 -7 21 -21v-58c0 -14 -7 -21 -21 -21h-29c-14 0 -21 7 -21 21v58c0 14 7 21 21 21zM344 688h29c14 0 21 -7 21 -21v-58c0 -14 -7 -21 -21 -21h-29c-14 0 -21 7 -21 21v58c0 14 7 21 21 21zM151 0h-63v484h63v-484zM390 484v-508
c0 -73.333 -28 -134 -84 -182l-35 28c36.667 46.667 55 98 55 154v508h64z" />
    <glyph glyph-name="Kcommaaccent" unicode="&#x136;" horiz-adv-x="581" 
d="M557 0h-74l-235 333h-96c4 -27.333 6 -53.333 6 -78v-255h-65v690h65v-223c0 -27.333 -2 -54 -6 -80h96l221 303h73l-212 -293c-7.33301 -11.333 -18 -23.333 -32 -36v-3c14 -12.667 25.667 -25.667 35 -39zM303 -60h17c8.66699 0 14.5 -1.66699 17.5 -5s4.5 -9 4.5 -17
v-56c-1.33301 -46 -10 -88.333 -26 -127l-28 9c5.33301 37.333 8 71.333 8 102c-12 0 -17.333 6.33301 -16 19v53c0 14.667 7.66699 22 23 22z" />
    <glyph glyph-name="kcommaaccent" unicode="&#x137;" horiz-adv-x="497" 
d="M473 0l-74 -0.000976562l-184 251h-72c2.66699 -24.667 4 -51.667 4 -81v-170h-63v700h65v-318c0 -25.333 -1.66699 -53 -5 -83h71l167 185h75l-162 -181c-10 -12.667 -20 -22 -30 -28v-2c10 -7.33301 20 -18.666 30 -33.999zM262 -60.001h17
c15.333 0 23 -7.33301 23 -22v-56c-1.33301 -44 -10.333 -86.333 -27 -127l-27 9c4.66699 32.667 7 66.667 7 102c-12 0 -17.333 6.33301 -16 19v53c0 14.667 7.66699 22 23 22z" />
    <glyph glyph-name="Lacute" unicode="&#x139;" horiz-adv-x="511" 
d="M267 859l-178 -128l-24 30l164 146zM156 690v-562c0 -48.667 24 -73 72 -73h257l2 -50c-70.667 -4 -160.667 -6 -270 -6c-42 0 -73.667 11 -95 33s-32 51 -32 87v571h66z" />
    <glyph glyph-name="lacute" unicode="&#x13a;" horiz-adv-x="287" 
d="M261 881l-178 -128l-24 30l164 146zM148 700v-580c0 -46.667 23.667 -70 71 -70h51l7 -48c-18 -6.66699 -44.667 -10 -80 -10c-34.667 0 -62 10.167 -82 30.5s-30 48.833 -30 85.5v592h63z" />
    <glyph glyph-name="Lcommaaccent" unicode="&#x13b;" horiz-adv-x="511" 
d="M156 690v-562c0 -48.667 24 -73 72 -73h257l2 -50c-70.667 -4 -160.667 -6 -270 -6c-42 0 -73.667 11 -95 33s-32 51 -32 87v571h66zM289 -66l17.999 0.000976562c14.667 0 22 -7 22 -21v-56c-1.33301 -46 -10 -88.333 -26 -127l-28 8c4.66699 33.333 7 67.666 7 102.999
c-12 0 -17.333 6.33301 -16 19v53c0.666992 14 8.33398 21 23.001 21z" />
    <glyph glyph-name="lcommaaccent" unicode="&#x13c;" horiz-adv-x="287" 
d="M148 700v-580c0 -46.667 23.667 -70 71 -70h51l7 -48c-18 -6.66699 -44.667 -10 -80 -10c-34.667 0 -62 10.167 -82 30.5s-30 48.833 -30 85.5v592h63zM162 -66l17 -0.000976562c8.66699 0 14.5 -1.66699 17.5 -5s4.5 -8.66602 4.5 -15.999v-56
c-1.33301 -46 -10 -88.333 -26 -127l-27 8c4.66699 42 7 76.333 7 103c-12 0 -17.333 6.33301 -16 19v53c0 14 7.66699 21 23 21z" />
    <glyph glyph-name="Lcaron" unicode="&#x13d;" horiz-adv-x="511" 
d="M307 691l18 0.000976562c14.667 0 22 -7 22 -21v-56c-1.33301 -46 -10 -88.333 -26 -127l-28 8c4.66699 33.333 7 67.666 7 102.999c-11.333 0 -16.333 6.33301 -15 19v53c0 14 7.33301 21 22 21zM156 690.001v-562c0 -48.667 24 -73 72 -73h257l2 -50
c-70.667 -4 -160.667 -6 -270 -6c-42 0 -73.667 11 -95 33s-32 51 -32 87v571h66z" />
    <glyph glyph-name="lcaron" unicode="&#x13e;" horiz-adv-x="287" 
d="M243 703l16.998 -0.000976562c14 0 21 -7 21 -21v-53c-1.33301 -43.333 -9.66602 -83.666 -24.999 -120.999l-27 8c4.66699 40 7 72.667 7 98c-12 0 -17.333 6 -16 18v50c0.666992 14 8.33398 21 23.001 21zM147.998 699.999v-580c0 -46.667 23.667 -70 71 -70h51l7 -48
c-18 -6.66699 -44.667 -10 -80 -10c-34.667 0 -62 10.167 -82 30.5s-30 48.833 -30 85.5v592h63z" />
    <glyph glyph-name="Ldot" unicode="&#x13f;" horiz-adv-x="511" 
d="M156 690v-562c0 -48.667 24 -73 72 -73h257l2 -50c-70.667 -4 -160.667 -6 -270 -6c-42 0 -73.667 11 -95 33s-32 51 -32 87v571h66zM392 336h-21c-14 0 -21 7 -21 21v58c0 14 7 21 21 21h21c14 0 21 -7 21 -21v-58c0 -14 -7 -21 -21 -21z" />
    <glyph glyph-name="ldot" unicode="&#x140;" horiz-adv-x="314" 
d="M148 700v-580c0 -46.667 23.667 -70 71 -70h51l7 -48c-18 -6.66699 -44.667 -10 -80 -10c-34.667 0 -62 10.167 -82 30.5s-30 48.833 -30 85.5v592h63zM278 339h-21c-14 0 -21 7 -21 21v59c0 14 7 21 21 21h21c14 0 21 -7 21 -21v-59c0 -14 -7 -21 -21 -21z" />
    <glyph glyph-name="Lslash" unicode="&#x141;" horiz-adv-x="517" 
d="M491 55l1.99902 -50c-71.333 -4 -161.666 -6 -270.999 -6c-42 0 -73.5 11 -94.5 33s-31.5 51 -31.5 87v224l-73 -31v42l73 31v305h65v-277l121 51v-42l-121 -52v-242c0 -48.667 24 -73 72 -73h258z" />
    <glyph glyph-name="lslash" unicode="&#x142;" horiz-adv-x="318" 
d="M292 50l8.00098 -48c-18.667 -6.66699 -45.334 -10 -80.001 -10s-62.167 10 -82.5 30s-30.5 48.667 -30.5 86v236l-83 -35v43l83 35v313h64v-286l112 48v-43l-113 -48v-251c0 -46.667 23.667 -70 71 -70h51z" />
    <glyph glyph-name="Nacute" unicode="&#x143;" horiz-adv-x="699" 
d="M502 859l-178 -128l-23 30l164 146zM606 690v-662c0 -18.667 -9 -28 -27 -28h-70c-14.667 -0 -25.334 7.33301 -32.001 22l-263 524c-24.667 51.333 -37.667 79 -39 83h-19c1.33301 -18 2 -45.667 2 -83v-546h-65v662c0 18.667 9 28 27 28h68
c14.667 0 25.334 -7.33301 32.001 -22l257 -512l46 -93h21c-2 32.667 -3 65.667 -3 99v528h65z" />
    <glyph glyph-name="nacute" unicode="&#x144;" horiz-adv-x="577" 
d="M260 550l-23 30l164 146l37 -48zM137 484l4.99902 -80.001c80.667 62 155.334 93 224.001 93c86.667 0 130 -44.333 130 -133v-364h-63v347c0 34 -6.5 58.333 -19.5 73s-34.5 22 -64.5 22c-29.333 0 -58.833 -6.66699 -88.5 -20s-67.167 -34.666 -112.5 -63.999v-358h-64
v484h53z" />
    <glyph glyph-name="Ncommaaccent" unicode="&#x145;" horiz-adv-x="699" 
d="M606 690v-662c0 -18.667 -9 -28 -27 -28h-70c-14.667 -0 -25.334 7.33301 -32.001 22l-263 524c-24.667 51.333 -37.667 79 -39 83h-19c1.33301 -18 2 -45.667 2 -83v-546h-65v662c0 18.667 9 28 27 28h68c14.667 0 25.334 -7.33301 32.001 -22l257 -512l46 -93h21
c-2 32.667 -3 65.667 -3 99v528h65zM328 -60h17c8.66699 0 14.5 -1.66699 17.5 -5s4.5 -9 4.5 -17v-56c-1.33301 -46 -10 -88.333 -26 -127l-28 9c5.33301 37.333 8 71.333 8 102c-12 0 -17.333 6.33301 -16 19v53c0 14.667 7.66699 22 23 22z" />
    <glyph glyph-name="ncommaaccent" unicode="&#x146;" horiz-adv-x="577" 
d="M137 484l4.99902 -80.001c80.667 62 155.334 93 224.001 93c86.667 0 130 -44.333 130 -133v-364h-63v347c0 34 -6.5 58.333 -19.5 73s-34.5 22 -64.5 22c-29.333 0 -58.833 -6.66699 -88.5 -20s-67.167 -34.666 -112.5 -63.999v-358h-64v484h53zM281.999 -60.001h17.999
c14.667 0 22 -7.33301 22 -22v-56c-1.33301 -44 -10.333 -86.333 -27 -127l-27 9c4.66699 32.667 7 66.667 7 102c-12 0 -17.333 6.33301 -16 19v53c0.666992 14.667 8.33398 22 23.001 22z" />
    <glyph glyph-name="Ncaron" unicode="&#x147;" horiz-adv-x="699" 
d="M518 870l-141 -124h-32l-141 124l23 28l130 -93h8l129 93zM606 690v-662c0 -18.667 -9 -28 -27 -28h-70c-14.667 -0 -25.334 7.33301 -32.001 22l-263 524c-24.667 51.333 -37.667 79 -39 83h-19c1.33301 -18 2 -45.667 2 -83v-546h-65v662c0 18.667 9 28 27 28h68
c14.667 0 25.334 -7.33301 32.001 -22l257 -512l46 -93h21c-2 32.667 -3 65.667 -3 99v528h65z" />
    <glyph glyph-name="ncaron" unicode="&#x148;" horiz-adv-x="577" 
d="M281 566l-141 123l23 28l130 -92h8l129 92l24 -28l-141 -123h-32zM137 484l4.99902 -80.001c80.667 62 155.334 93 224.001 93c86.667 0 130 -44.333 130 -133v-364h-63v347c0 34 -6.5 58.333 -19.5 73s-34.5 22 -64.5 22c-29.333 0 -58.833 -6.66699 -88.5 -20
s-67.167 -34.666 -112.5 -63.999v-358h-64v484h53z" />
    <glyph glyph-name="Eng" unicode="&#x14a;" horiz-adv-x="699" 
d="M606 690l0.000976562 -776.999c0 -42.667 -11.333 -75.334 -34 -98.001s-54.667 -33.667 -96 -33c-28.667 0 -55.334 3.33301 -80.001 10l7 41h53c58.667 0 88 28.333 88 85v82h-34c-8.66699 0 -16.667 6.66699 -24 20l-273 517c-12.667 25.333 -25.667 53 -39 83h-18
c1.33301 -18.667 2 -47 2 -85v-535h-65v662c0 18.667 9 28 27 28h58c13.333 0 24 -7.33301 32 -22l266 -502c8 -14.667 23.333 -46 46 -94h21c-1.33301 44 -2 76.667 -2 98v520h65z" />
    <glyph glyph-name="eng" unicode="&#x14b;" horiz-adv-x="577" 
d="M133 484l5.99902 -83c80 64 155.333 96 226 96c87.333 0 131 -44.333 131 -133v-439c0 -43.333 -10 -76.333 -30 -99s-49.667 -33.667 -89 -33c-22 0 -46.667 3.66699 -74 11l7 40h45c52 0 78 28.333 78 85v418c0 32 -6.66699 55.167 -20 69.5s-35.333 21.5 -66 21.5
c-49.333 0 -115.666 -27 -198.999 -81v-357h-64v484h49z" />
    <glyph glyph-name="Omacron" unicode="&#x14c;" horiz-adv-x="666" 
d="M469 792h-272v49h272v-49zM333 702c98.667 0 167.667 -26.167 207 -78.5s59 -145.166 59 -278.499s-19.667 -226.166 -59 -278.499s-108.333 -78.5 -207 -78.5s-167.667 26.167 -207 78.5s-59 145.166 -59 278.499s19.667 226.166 59 278.499s108.333 78.5 207 78.5z
M333 644c-74 0 -125.5 -21.833 -154.5 -65.5s-43.5 -121.5 -43.5 -233.5s14.5 -189.833 43.5 -233.5s80.5 -65.5 154.5 -65.5s125.333 21.833 154 65.5s43 121.5 43 233.5s-14.333 189.833 -43 233.5s-80 65.5 -154 65.5z" />
    <glyph glyph-name="omacron" unicode="&#x14d;" horiz-adv-x="565" 
d="M418 612h-272v49h272v-49zM283 497c81.333 0 138.666 -19.167 171.999 -57.5s50 -104.166 50 -197.499s-16.667 -159 -50 -197s-90.666 -57 -171.999 -57s-138.833 19.167 -172.5 57.5s-50.5 103.833 -50.5 196.5c0 93.333 16.833 159.166 50.5 197.499
s91.167 57.5 172.5 57.5zM283 442c-58.667 0 -99.334 -14.333 -122.001 -43s-34 -81 -34 -157s11.333 -128.333 34 -157s63.334 -43 122.001 -43s99.334 14.333 122.001 43s34 81 34 157s-11.333 128.333 -34 157s-63.334 43 -122.001 43z" />
    <glyph glyph-name="Ohungarumlaut" unicode="&#x150;" horiz-adv-x="666" 
d="M372 883l-128 -157l-30 22l110 168zM527 883l-128 -157l-29 22l110 168zM333 702c98.667 0 167.667 -26.167 207 -78.5s59 -145.166 59 -278.499s-19.667 -226.166 -59 -278.499s-108.333 -78.5 -207 -78.5s-167.667 26.167 -207 78.5s-59 145.166 -59 278.499
s19.667 226.166 59 278.499s108.333 78.5 207 78.5zM333 644c-74 0 -125.5 -21.833 -154.5 -65.5s-43.5 -121.5 -43.5 -233.5s14.5 -189.833 43.5 -233.5s80.5 -65.5 154.5 -65.5s125.333 21.833 154 65.5s43 121.5 43 233.5s-14.333 189.833 -43 233.5s-80 65.5 -154 65.5z
" />
    <glyph glyph-name="ohungarumlaut" unicode="&#x151;" horiz-adv-x="565" 
d="M321 703l-128 -157l-31 22l111 167zM476 703l-128 -157l-30 22l110 167zM283 497c81.333 0 138.666 -19.167 171.999 -57.5s50 -104.166 50 -197.499s-16.667 -159 -50 -197s-90.666 -57 -171.999 -57s-138.833 19.167 -172.5 57.5s-50.5 103.833 -50.5 196.5
c0 93.333 16.833 159.166 50.5 197.499s91.167 57.5 172.5 57.5zM283 442c-58.667 0 -99.334 -14.333 -122.001 -43s-34 -81 -34 -157s11.333 -128.333 34 -157s63.334 -43 122.001 -43s99.334 14.333 122.001 43s34 81 34 157s-11.333 128.333 -34 157
s-63.334 43 -122.001 43z" />
    <glyph glyph-name="OE" unicode="&#x152;" horiz-adv-x="905" 
d="M849 55l1.99902 -49.998c-61.333 -4 -157.333 -6 -288 -6c-25.333 0 -48 7.33301 -68 22c-48.667 -22 -102.667 -33 -162 -33c-98.667 0 -167.667 26.167 -207 78.5s-59 145.166 -59 278.499s19.667 226.166 59 278.499s108.333 78.5 207 78.5c60 0 115 -10.667 165 -32
c20.667 14 43.667 21 69 21c128.667 0 223.334 -2 284.001 -6l-2 -50h-261c-48 0 -72 -24.333 -72 -73v-169h292v-54h-292v-212c0 -48 24 -72 72 -72h261zM449.999 119.002v452c0 19.333 3.66699 37 11 53c-40 13.333 -82.667 20 -128 20c-74 0 -125.5 -21.5 -154.5 -64.5
s-43.5 -121.167 -43.5 -234.5c0 -112 14.5 -189.833 43.5 -233.5s80.5 -65.5 154.5 -65.5c48.667 0 91 6.66699 127 20c-6.66699 18 -10 35.667 -10 53z" />
    <glyph glyph-name="oe" unicode="&#x153;" horiz-adv-x="913" 
d="M710 213l-204.998 0.000976562c3.33301 -65.333 17.833 -110 43.5 -134s67.5 -36 125.5 -36c49.333 0 104.666 4 165.999 12l7 -43c-41.333 -16 -102.333 -24 -183 -24c-95.333 0 -159 27.667 -191 83c-30.667 -55.333 -94 -83 -190 -83
c-81.333 0 -138.833 19.167 -172.5 57.5s-50.5 103.833 -50.5 196.5c0 93.333 16.833 159.166 50.5 197.499s91.167 57.5 172.5 57.5c94 0 156.667 -27 188 -81c31.333 54 92 81 182 81c136 0 204.667 -48.333 206 -145c0.666992 -52 -10.333 -88.167 -33 -108.5
s-61.334 -30.5 -116.001 -30.5zM283.002 42.001c56.667 0 96.5 13.167 119.5 39.5s35.167 73.833 36.5 142.5v21v18c-2 67.333 -14.5 114 -37.5 140s-62.5 39 -118.5 39c-58.667 0 -99.334 -14.333 -122.001 -43s-34 -81 -34 -157s11.333 -128.333 34 -157
s63.334 -43 122.001 -43zM505.002 262.001h202c33.333 0 56.5 6.66699 69.5 20s19.167 36.333 18.5 69c-2.66699 60.667 -49.334 91 -140.001 91c-54 0 -92.167 -13.167 -114.5 -39.5s-34.166 -72.5 -35.499 -138.5v-2z" />
    <glyph glyph-name="Racute" unicode="&#x154;" horiz-adv-x="614" 
d="M268 731l-24 30l164 146l38 -48zM564 0l-69.999 0.000976562l-66 217c-18.667 52.667 -51.667 79 -99 79c-60.667 0 -117.667 0.666992 -171 2v-298h-65v690c55.333 5.33301 132.333 8 231 8c79.333 0 135 -13.833 167 -41.5s48 -79.5 48 -155.5
c0 -58 -9.83301 -100.833 -29.5 -128.5s-52.167 -44.834 -97.5 -51.501v-4c39.333 -11.333 66.666 -44 81.999 -98zM158.001 353.001l165.999 0.000976562c56 0.666992 94.833 11.167 116.5 31.5s32.5 58.166 32.5 113.499c0 56 -10.833 94 -32.5 114s-60.5 30 -116.5 30
c-57.333 0 -112.666 -0.666992 -165.999 -2v-287z" />
    <glyph glyph-name="racute" unicode="&#x155;" horiz-adv-x="394" 
d="M190 550l-24 30l164 146l38 -48zM375 497l-7.99805 -59.999h-24c-28 0 -56.333 -5.83301 -85 -17.5s-65.334 -30.834 -110.001 -57.501v-362h-64v484h49l7 -80c79.333 62 150.666 93 213.999 93h21z" />
    <glyph glyph-name="Rcommaaccent" unicode="&#x156;" horiz-adv-x="614" 
d="M564 0l-69.999 0.000976562l-66 217c-18.667 52.667 -51.667 79 -99 79c-60.667 0 -117.667 0.666992 -171 2v-298h-65v690c55.333 5.33301 132.333 8 231 8c79.333 0 135 -13.833 167 -41.5s48 -79.5 48 -155.5c0 -58 -9.83301 -100.833 -29.5 -128.5
s-52.167 -44.834 -97.5 -51.501v-4c39.333 -11.333 66.666 -44 81.999 -98zM158.001 353.001l165.999 0.000976562c56 0.666992 94.833 11.167 116.5 31.5s32.5 58.166 32.5 113.499c0 56 -10.833 94 -32.5 114s-60.5 30 -116.5 30
c-57.333 0 -112.666 -0.666992 -165.999 -2v-287zM320 -59.998h17c14.667 0 22 -7.33301 22 -22v-56c-1.33301 -46 -10 -88.333 -26 -127l-28 9c4.66699 32.667 7 66.667 7 102c-11.333 0 -16.333 6.33301 -15 19v53c0 14.667 7.66699 22 23 22z" />
    <glyph glyph-name="rcommaaccent" unicode="&#x157;" horiz-adv-x="394" 
d="M375 497l-7.99805 -59.999h-24c-28 0 -56.333 -5.83301 -85 -17.5s-65.334 -30.834 -110.001 -57.501v-362h-64v484h49l7 -80c79.333 62 150.666 93 213.999 93h21zM100.002 -59.999h17.999c14.667 0 22 -7.33301 22 -22v-56c-1.33301 -44 -10.333 -86.333 -27 -127
l-27 9c4.66699 32.667 7 66.667 7 102c-12 0 -17.333 6.33301 -16 19v53c0.666992 14.667 8.33398 22 23.001 22z" />
    <glyph glyph-name="Rcaron" unicode="&#x158;" horiz-adv-x="614" 
d="M288 746l-141 124l23 28l130 -93h8l129 93l24 -28l-141 -124h-32zM564 0l-69.999 0.000976562l-66 217c-18.667 52.667 -51.667 79 -99 79c-60.667 0 -117.667 0.666992 -171 2v-298h-65v690c55.333 5.33301 132.333 8 231 8c79.333 0 135 -13.833 167 -41.5
s48 -79.5 48 -155.5c0 -58 -9.83301 -100.833 -29.5 -128.5s-52.167 -44.834 -97.5 -51.501v-4c39.333 -11.333 66.666 -44 81.999 -98zM158.001 353.001l165.999 0.000976562c56 0.666992 94.833 11.167 116.5 31.5s32.5 58.166 32.5 113.499c0 56 -10.833 94 -32.5 114
s-60.5 30 -116.5 30c-57.333 0 -112.666 -0.666992 -165.999 -2v-287z" />
    <glyph glyph-name="rcaron" unicode="&#x159;" horiz-adv-x="394" 
d="M210 566l-141 123l24 28l129 -92h8l130 92l23 -28l-141 -123h-32zM133 484l7.00195 -79.999c79.333 62 150.666 93 213.999 93h21l-8 -60h-24c-28 0 -56.333 -5.83301 -85 -17.5s-65.334 -30.834 -110.001 -57.501v-362h-64v484h49z" />
    <glyph glyph-name="Sacute" unicode="&#x15a;" horiz-adv-x="559" 
d="M422 859l-178 -128l-24 30l164 146zM341 304l-147 31.001c-48.667 10 -83.334 29.833 -104.001 59.5s-31 72.167 -31 127.5c0 40 4 72.167 12 96.5s22 42.5 42 54.5s42 19.833 66 23.5s56.667 5.16699 98 4.5c74 0 140.333 -5.33301 199 -16l-5 -48
c-78.667 4 -142.334 6 -191.001 6c-32.667 0 -56.667 -0.833008 -72 -2.5s-30.5 -6.5 -45.5 -14.5s-25 -20.333 -30 -37s-7.5 -39.667 -7.5 -69c0 -41.333 7.16699 -71.166 21.5 -89.499s38.833 -30.833 73.5 -37.5l144 -30c51.333 -10 87.5 -29.833 108.5 -59.5
s31.5 -72.834 31.5 -129.501c0 -40 -4.33301 -72.333 -13 -97s-23 -43.334 -43 -56.001s-42.667 -21.167 -68 -25.5s-58.666 -6.5 -99.999 -6.5c-76 0 -146 5 -210 15l4 49c82.667 -4 152 -6 208 -6c60.667 0.666992 101.667 9 123 25s32 50.333 32 103
c0 43.333 -7.16699 74 -21.5 92s-39.166 30.333 -74.499 37z" />
    <glyph glyph-name="sacute" unicode="&#x15b;" horiz-adv-x="505" 
d="M399 678l-178 -128l-24 30l164 146zM310 205l-148.002 27.999c-38 7.33301 -65.5 21.166 -82.5 41.499s-25.5 50.5 -25.5 90.5c0 54.667 13.833 90.5 41.5 107.5s75.834 25.167 144.501 24.5c73.333 -1.33301 139.333 -6.33301 198 -15l-6 -46c-80 4 -141.333 6 -184 6
c-53.333 0.666992 -88.666 -3.16602 -105.999 -11.499s-26 -30.166 -26 -65.499c0 -27.333 5.66699 -46.333 17 -57s30.333 -18.667 57 -24l149 -28c38.667 -8 67 -21.833 85 -41.5s27 -49.167 27 -88.5c0 -56.667 -15.167 -93.667 -45.5 -111s-82.166 -26 -155.499 -26
c-66 0 -127.667 4.33301 -185 13l5 47c52.667 -4.66699 109 -6.66699 169 -6c59.333 0.666992 99.166 6.16699 119.499 16.5s30.5 32.5 30.5 66.5c0 26 -6.33301 44.333 -19 55s-32.667 18.667 -60 24z" />
    <glyph glyph-name="Scedilla" unicode="&#x15e;" horiz-adv-x="559" 
d="M341 304l-147 31.001c-48.667 10 -83.334 29.833 -104.001 59.5s-31 72.167 -31 127.5c0 40 4 72.167 12 96.5s22 42.5 42 54.5s42 19.833 66 23.5s56.667 5.16699 98 4.5c74 0 140.333 -5.33301 199 -16l-5 -48c-78.667 4 -142.334 6 -191.001 6
c-32.667 0 -56.667 -0.833008 -72 -2.5s-30.5 -6.5 -45.5 -14.5s-25 -20.333 -30 -37s-7.5 -39.667 -7.5 -69c0 -41.333 7.16699 -71.166 21.5 -89.499s38.833 -30.833 73.5 -37.5l144 -30c51.333 -10 87.5 -29.833 108.5 -59.5s31.5 -72.834 31.5 -129.501
c0 -40 -4.33301 -72.333 -13 -97s-23 -43.334 -43 -56.001s-42.667 -21.167 -68 -25.5s-58.666 -6.5 -99.999 -6.5c-76 0 -146 5 -210 15l4 49c82.667 -4 152 -6 208 -6c60.667 0.666992 101.667 9 123 25s32 50.333 32 103c0 43.333 -7.16699 74 -21.5 92
s-39.166 30.333 -74.499 37zM238 -87.999l6.99805 31c35.333 3.33301 61 0.166016 77 -9.50098s23.667 -28.167 23 -55.5c-1.33301 -39.333 -16.5 -69.833 -45.5 -91.5s-66.5 -29.5 -112.5 -23.5l10 34c30 -0.666992 54 6.33301 72 21s27.333 33.334 28 56.001
c0.666992 14.667 -3.16602 24.667 -11.499 30s-24.166 8 -47.499 8z" />
    <glyph glyph-name="scedilla" unicode="&#x15f;" horiz-adv-x="505" 
d="M310 205l-148.002 27.999c-38 7.33301 -65.5 21.166 -82.5 41.499s-25.5 50.5 -25.5 90.5c0 54.667 13.833 90.5 41.5 107.5s75.834 25.167 144.501 24.5c73.333 -1.33301 139.333 -6.33301 198 -15l-6 -46c-80 4 -141.333 6 -184 6
c-53.333 0.666992 -88.666 -3.16602 -105.999 -11.499s-26 -30.166 -26 -65.499c0 -27.333 5.66699 -46.333 17 -57s30.333 -18.667 57 -24l149 -28c38.667 -8 67 -21.833 85 -41.5s27 -49.167 27 -88.5c0 -56.667 -15.167 -93.667 -45.5 -111s-82.166 -26 -155.499 -26
c-66 0 -127.667 4.33301 -185 13l5 47c52.667 -4.66699 109 -6.66699 169 -6c59.333 0.666992 99.166 6.16699 119.499 16.5s30.5 32.5 30.5 66.5c0 26 -6.33301 44.333 -19 55s-32.667 18.667 -60 24zM203.998 -87.001l7.00098 31c34.667 3.33301 60 0.166016 76 -9.50098
s23.667 -28.167 23 -55.5c-1.33301 -40 -16.5 -70.833 -45.5 -92.5s-66.167 -29.5 -111.5 -23.5l10 35c29.333 -0.666992 53.166 6.33301 71.499 21s27.833 33.334 28.5 56.001c0 14 -4.16699 23.667 -12.5 29s-23.833 8.33301 -46.5 9z" />
    <glyph glyph-name="Scaron" unicode="&#x160;" horiz-adv-x="559" 
d="M437 870l-141 -124h-32l-141 124l24 28l129 -93h8l130 93zM341 304l-147 31.001c-48.667 10 -83.334 29.833 -104.001 59.5s-31 72.167 -31 127.5c0 40 4 72.167 12 96.5s22 42.5 42 54.5s42 19.833 66 23.5s56.667 5.16699 98 4.5c74 0 140.333 -5.33301 199 -16l-5 -48
c-78.667 4 -142.334 6 -191.001 6c-32.667 0 -56.667 -0.833008 -72 -2.5s-30.5 -6.5 -45.5 -14.5s-25 -20.333 -30 -37s-7.5 -39.667 -7.5 -69c0 -41.333 7.16699 -71.166 21.5 -89.499s38.833 -30.833 73.5 -37.5l144 -30c51.333 -10 87.5 -29.833 108.5 -59.5
s31.5 -72.834 31.5 -129.501c0 -40 -4.33301 -72.333 -13 -97s-23 -43.334 -43 -56.001s-42.667 -21.167 -68 -25.5s-58.666 -6.5 -99.999 -6.5c-76 0 -146 5 -210 15l4 49c82.667 -4 152 -6 208 -6c60.667 0.666992 101.667 9 123 25s32 50.333 32 103
c0 43.333 -7.16699 74 -21.5 92s-39.166 30.333 -74.499 37z" />
    <glyph glyph-name="scaron" unicode="&#x161;" horiz-adv-x="505" 
d="M415 689l-142 -123h-32l-141 123l24 28l129 -92h8l130 92zM310 205l-148.002 27.999c-38 7.33301 -65.5 21.166 -82.5 41.499s-25.5 50.5 -25.5 90.5c0 54.667 13.833 90.5 41.5 107.5s75.834 25.167 144.501 24.5c73.333 -1.33301 139.333 -6.33301 198 -15l-6 -46
c-80 4 -141.333 6 -184 6c-53.333 0.666992 -88.666 -3.16602 -105.999 -11.499s-26 -30.166 -26 -65.499c0 -27.333 5.66699 -46.333 17 -57s30.333 -18.667 57 -24l149 -28c38.667 -8 67 -21.833 85 -41.5s27 -49.167 27 -88.5c0 -56.667 -15.167 -93.667 -45.5 -111
s-82.166 -26 -155.499 -26c-66 0 -127.667 4.33301 -185 13l5 47c52.667 -4.66699 109 -6.66699 169 -6c59.333 0.666992 99.166 6.16699 119.499 16.5s30.5 32.5 30.5 66.5c0 26 -6.33301 44.333 -19 55s-32.667 18.667 -60 24z" />
    <glyph glyph-name="Tcedilla" unicode="&#x162;" horiz-adv-x="575" 
d="M550 690v-58h-230v-632h-66v632h-229v58h525zM241 -76l6.00098 31c35.333 3.33301 61 0.166016 77 -9.50098s23.667 -28.167 23 -55.5c-1.33301 -40 -16.5 -70.833 -45.5 -92.5s-66.167 -29.5 -111.5 -23.5l10 35c29.333 -0.666992 53.166 6.33301 71.499 21
s27.833 33.334 28.5 56.001c0 14 -4.16699 23.667 -12.5 29s-23.833 8.33301 -46.5 9z" />
    <glyph glyph-name="tcedilla" unicode="&#x163;" horiz-adv-x="369" 
d="M330 50l8 -48c-33.333 -6.66699 -67 -10 -101 -10c-80 0 -120 40.333 -120 121v321h-88v45l88 5v147h63v-147h164v-50h-164v-314c0 -46.667 23.667 -70 71 -70h79zM165 -84l6.99805 31.0029c35.333 3.33301 61 0.166016 77 -9.50098s23.667 -28.167 23 -55.5
c-1.33301 -39.333 -16.5 -69.833 -45.5 -91.5s-66.5 -29.5 -112.5 -23.5l10 34c30 -0.666992 54 6.16602 72 20.499s27.333 33.166 28 56.499c0.666992 14 -3.16602 23.667 -11.499 29s-24.166 8.33301 -47.499 9z" />
    <glyph glyph-name="Tcaron" unicode="&#x164;" horiz-adv-x="575" 
d="M273 746l-141 124l23 28l130 -93h8l129 93l24 -28l-141 -124h-32zM550 632h-230v-632h-66v632h-229v58h525v-58z" />
    <glyph glyph-name="tcaron" unicode="&#x165;" horiz-adv-x="369" 
d="M299 558l-27 8.00098c4.66699 33.333 7 67.666 7 102.999c-12 0 -17.333 6.33301 -16 19v53c0 14 7.66699 21 23 21h17c15.333 0 23 -7 23 -21v-56c-1.33301 -44 -10.333 -86.333 -27 -127zM330 50.001l8 -48c-33.333 -6.66699 -67 -10 -101 -10
c-80 0 -120 40.333 -120 121v321h-88v45l88 5v147h63v-147h164v-50h-164v-314c0 -46.667 23.667 -70 71 -70h79z" />
    <glyph glyph-name="Tbar" unicode="&#x166;" horiz-adv-x="575" 
d="M320 632v-210h143v-39h-143v-383h-66v383h-146v39h146v210h-229v58h525v-58h-230z" />
    <glyph glyph-name="tbar" unicode="&#x167;" horiz-adv-x="369" 
d="M330 50l8 -48c-33.333 -6.66699 -67 -10 -101 -10c-80 0 -120 40.333 -120 121v179h-68v38h68v104h-88v45l88 5v147h63v-147h164v-50h-164v-104h140v-38h-140v-172c0 -46.667 23.667 -70 71 -70h79z" />
    <glyph glyph-name="Umacron" unicode="&#x16a;" horiz-adv-x="667" 
d="M471 792h-273v49h273v-49zM579 690l0.000976562 -429c0 -99.333 -18.333 -169.666 -55 -210.999s-99.334 -62 -188.001 -62c-90.667 0 -154.667 20.667 -192 62s-56 111.666 -56 210.999v429h65v-429c0 -79.333 13.5 -135 40.5 -167s73.833 -48 140.5 -48
c66 0 112.333 16 139 48s40 87.667 40 167v429h66z" />
    <glyph glyph-name="umacron" unicode="&#x16b;" 
d="M421 614h-272v49h272v-49zM482 484l0.00195312 -484h-50l-5 76c-74.667 -58.667 -146.334 -88 -215.001 -88c-87.333 0 -131 44 -131 132v364h63v-347c0 -33.333 7 -57.333 21 -72s36.667 -22 68 -22c27.333 0 54.666 6.16699 81.999 18.5s62 32.833 104 61.5v361h63z
" />
    <glyph glyph-name="Uring" unicode="&#x16e;" horiz-adv-x="667" 
d="M335 919c28 0 52.167 -10.001 72.5 -30.001s30.5 -44 30.5 -72s-10.167 -51.833 -30.5 -71.5s-44.5 -29.5 -72.5 -29.5c-29.333 0 -53.833 9.66699 -73.5 29s-29.5 43.333 -29.5 72s10 52.834 30 72.501s44.333 29.5 73 29.5zM335 883.999
c-19.333 0 -35.168 -6.16699 -47.501 -18.5s-18.5 -28.5 -18.5 -48.5c0 -19.333 6.33301 -35.166 19 -47.499s28.334 -18.5 47.001 -18.5c18 0 33.333 6.16699 46 18.5s19 28.166 19 47.499s-6.33301 35.333 -19 48s-28 19 -46 19zM578.998 689.999l0.000976562 -429
c0 -99.333 -18.333 -169.666 -55 -210.999s-99.334 -62 -188.001 -62c-90.667 0 -154.667 20.667 -192 62s-56 111.666 -56 210.999v429h65v-429c0 -79.333 13.5 -135 40.5 -167s73.833 -48 140.5 -48c66 0 112.333 16 139 48s40 87.667 40 167v429h66z" />
    <glyph glyph-name="uring" unicode="&#x16f;" 
d="M285 538c-28.667 0 -53 9.66602 -73 28.999s-30 43.333 -30 72s10 52.834 30 72.501s44.333 29.5 73 29.5c28 0 52.167 -10 72.5 -30s30.5 -44 30.5 -72c0 -28.667 -10 -52.667 -30 -72s-44.333 -29 -73 -29zM285 705.999c-18.667 0 -34.167 -6.33203 -46.5 -18.999
s-18.5 -28.667 -18.5 -48c0 -20 6.16699 -36 18.5 -48s27.833 -18 46.5 -18s34.167 6.16699 46.5 18.5s18.5 28.166 18.5 47.499s-6.33301 35.333 -19 48s-28 19 -46 19zM482 484l0.00195312 -484h-50l-5 76c-74.667 -58.667 -146.334 -88 -215.001 -88
c-87.333 0 -131 44 -131 132v364h63v-347c0 -33.333 7 -57.333 21 -72s36.667 -22 68 -22c27.333 0 54.666 6.16699 81.999 18.5s62 32.833 104 61.5v361h63z" />
    <glyph glyph-name="Uhungarumlaut" unicode="&#x170;" horiz-adv-x="667" 
d="M374 883l-129 -157l-30 22l111 168zM529 883l-128 -157l-30 22l110 168zM579 690l0.000976562 -429c0 -99.333 -18.333 -169.666 -55 -210.999s-99.334 -62 -188.001 -62c-90.667 0 -154.667 20.667 -192 62s-56 111.666 -56 210.999v429h65v-429
c0 -79.333 13.5 -135 40.5 -167s73.833 -48 140.5 -48c66 0 112.333 16 139 48s40 87.667 40 167v429h66z" />
    <glyph glyph-name="uhungarumlaut" unicode="&#x171;" 
d="M195 548l-30 22l111 168l48 -33zM321 570l110 168l48 -33l-128 -157zM482 484l0.00195312 -484h-50l-5 76c-74.667 -58.667 -146.334 -88 -215.001 -88c-87.333 0 -131 44 -131 132v364h63v-347c0 -33.333 7 -57.333 21 -72s36.667 -22 68 -22
c27.333 0 54.666 6.16699 81.999 18.5s62 32.833 104 61.5v361h63z" />
    <glyph glyph-name="Uogonek" unicode="&#x172;" horiz-adv-x="667" 
d="M579 690l0.00292969 -428.997c0 -92.667 -15.833 -160 -47.5 -202s-84.834 -65.333 -159.501 -70c-36.667 -40.667 -62.334 -79.334 -77.001 -116.001c-10 -26.667 -7 -44.334 9 -53.001s41 -7 75 5l7 -28c-57.333 -22 -97.833 -24.5 -121.5 -7.5
s-28.834 44.167 -15.501 81.5c13.333 39.333 42.333 78.333 87 117c-90.667 0 -154.667 20.667 -192 62s-56 111.666 -56 210.999v429h65v-429c0 -79.333 13.5 -135 40.5 -167s73.833 -48 140.5 -48c66 0 112.333 16 139 48s40 87.667 40 167v429h66z" />
    <glyph glyph-name="uogonek" unicode="&#x173;" 
d="M489 -166l7.00488 -27.999c-57.333 -22 -97.833 -24.5 -121.5 -7.5s-28.834 44.167 -15.501 81.5c13.333 40 43.666 80 90.999 120h-18l-5 76c-74.667 -58.667 -146.334 -88 -215.001 -88c-87.333 0 -131 44 -131 132v364h63v-347c0 -33.333 7 -57.333 21 -72
s36.667 -22 68 -22c27.333 0 54.666 6.16699 81.999 18.5s62 32.833 104 61.5v361h63v-484h2c-38.667 -42.667 -65 -82 -79 -118c-10.667 -26.667 -7.83398 -44.334 8.49902 -53.001s41.5 -7 75.5 5z" />
    <glyph glyph-name="Wcircumflex" unicode="&#x174;" horiz-adv-x="941" 
d="M628 766l-23 -28l-130 100h-8l-129 -100l-23 28l133 124h46zM910 690l-155.999 -670.001c-3.33301 -13.333 -12.333 -20 -27 -20h-79c-15.333 0 -24.666 7 -27.999 21l-121 541l-17 77h-22l-18 -77l-121 -541c-3.33301 -14 -12.333 -21 -27 -21h-80
c-14.667 0 -23.667 6.66699 -27 20l-155 670h69l126 -559c5.33301 -22 10.666 -48.667 15.999 -80h25c5.33301 28.667 10.666 55 15.999 79l122 537c3.33301 15.333 12.333 23 27 23h75c14.667 0 23.667 -7.66699 27 -23l122 -537c3.33301 -14 8.66602 -40.333 15.999 -79
h26c1.33301 6 2.83301 14.333 4.5 25s3.33398 20.334 5.00098 29.001s3.5 16.667 5.5 24l127 561h69z" />
    <glyph glyph-name="wcircumflex" unicode="&#x175;" horiz-adv-x="820" 
d="M566 586l-23 -28l-129 100h-8l-130 -100l-23 28l133 124h47zM792 484l-150.997 -465.001c-4 -12.667 -12.667 -19 -26 -19h-59c-14 0 -22.667 7 -26 21l-96 347c-2.66699 8 -6 20.333 -10 37l-9 38h-11l-19 -75l-95 -347c-3.33301 -14 -12.333 -21 -27 -21h-58
c-14 0 -22.667 6.33301 -26 19l-151 465h66l114 -371c3.33301 -11.333 9.66602 -34.666 18.999 -69.999h13l19 70l97 351c3.33301 13.333 11.666 20 24.999 20h58c13.333 0 21.666 -7 24.999 -21l97 -350l18 -70h14l18 70l115 371h66z" />
    <glyph glyph-name="Ycircumflex" unicode="&#x176;" horiz-adv-x="559" 
d="M145 739l-22 28l133 124h46l134 -124l-24 -28l-129 99h-8zM312 247v-247h-65v248l-232 442h70l158 -306c8.66699 -17.333 19.667 -42 33 -74h7c8.66699 20.667 19.667 45 33 73l158 307h69z" />
    <glyph glyph-name="ycircumflex" unicode="&#x177;" horiz-adv-x="521" 
d="M129 558l-23 28l133 124h47l133 -124l-23 -28l-130 100h-8zM498 484l-204.001 -518.004c-19.333 -49.333 -43.666 -89.166 -72.999 -119.499s-69 -48.166 -119 -53.499l-8 41c38 12.667 67.667 30.334 89 53.001s38.666 51.334 51.999 86.001l12 27h-16
c-12.667 0 -21 5.66699 -25 17l-184 467h68l143 -378c10.667 -28 17.334 -46.667 20.001 -56h14l21 57l142 377h68z" />
    <glyph glyph-name="Ydieresis" unicode="&#x178;" horiz-adv-x="559" 
d="M202 771h-23c-12 0 -18 6.33301 -18 19v55c0 13.333 6 20 18 20h23c12 0 18 -6.66699 18 -20v-55c0 -12.667 -6 -19 -18 -19zM379 771h-22c-12.667 0 -19 6.33301 -19 19v55c0 13.333 6.33301 20 19 20h22c12.667 0 19 -6.66699 19 -20v-55
c0 -12.667 -6.33301 -19 -19 -19zM312 247v-247h-65v248l-232 442h70l158 -306c8.66699 -17.333 19.667 -42 33 -74h7c8.66699 20.667 19.667 45 33 73l158 307h69z" />
    <glyph glyph-name="Zacute" unicode="&#x179;" horiz-adv-x="563" 
d="M248 731l-24 30l164 146l38 -48zM515 56v-56h-465v56l386 578h-382v56h455v-56l-386 -578h392z" />
    <glyph glyph-name="zacute" unicode="&#x17a;" horiz-adv-x="506" 
d="M217 550l-24 30l164 146l38 -48zM456 53v-53h-406v53l330 379h-326v52h398v-52l-329 -379h333z" />
    <glyph glyph-name="Zdotaccent" unicode="&#x17b;" horiz-adv-x="563" 
d="M294 764h-21c-14 0 -21 7 -21 21v59c0 14 7 21 21 21h21c14 0 21 -7 21 -21v-59c0 -14 -7 -21 -21 -21zM515 56v-56h-465v56l386 578h-382v56h455v-56l-386 -578h392z" />
    <glyph glyph-name="zdotaccent" unicode="&#x17c;" horiz-adv-x="506" 
d="M263 584h-21c-14 0 -21 6.66699 -21 20v59c0 14 7 21 21 21h21c14 0 21 -7 21 -21v-59c0 -13.333 -7 -20 -21 -20zM456 53v-53h-406v53l330 379h-326v52h398v-52l-329 -379h333z" />
    <glyph glyph-name="Zcaron" unicode="&#x17d;" horiz-adv-x="563" 
d="M268 746l-141 124l24 28l129 -93h8l130 93l23 -28l-141 -124h-32zM515 56v-56h-465v56l386 578h-382v56h455v-56l-386 -578h392z" />
    <glyph glyph-name="zcaron" unicode="&#x17e;" horiz-adv-x="506" 
d="M237 566l-141 123l24 28l129 -92h8l130 92l23 -28l-141 -123h-32zM456 53v-53h-406v53l330 379h-326v52h398v-52l-329 -379h333z" />
    <glyph glyph-name="florin" unicode="&#x192;" horiz-adv-x="428" 
d="M406 646h-71c-34 0 -58.5 -6.5 -73.5 -19.5s-23.833 -36.833 -26.5 -71.5l-16 -162h152l-5 -51h-152l-32 -343c-4 -46.667 -17 -81.5 -39 -104.5s-56 -34.5 -102 -34.5c-41.333 0 -72.333 2 -93 6l7 47h69c32 0 55 6.83301 69 20.5s22.667 37.5 26 71.5l32 337h-97l3 47
l99 4l16 168c8 92.667 57.333 139 148 139c37.333 0 68.333 -2 93 -6z" />
    <glyph glyph-name="Scommaaccent" unicode="&#x218;" horiz-adv-x="559" 
d="M341 304l-147 31.001c-48.667 10 -83.334 29.833 -104.001 59.5s-31 72.167 -31 127.5c0 40 4 72.167 12 96.5s22 42.5 42 54.5s42 19.833 66 23.5s56.667 5.16699 98 4.5c74 0 140.333 -5.33301 199 -16l-5 -48c-78.667 4 -142.334 6 -191.001 6
c-32.667 0 -56.667 -0.833008 -72 -2.5s-30.5 -6.5 -45.5 -14.5s-25 -20.333 -30 -37s-7.5 -39.667 -7.5 -69c0 -41.333 7.16699 -71.166 21.5 -89.499s38.833 -30.833 73.5 -37.5l144 -30c51.333 -10 87.5 -29.833 108.5 -59.5s31.5 -72.834 31.5 -129.501
c0 -40 -4.33301 -72.333 -13 -97s-23 -43.334 -43 -56.001s-42.667 -21.167 -68 -25.5s-58.666 -6.5 -99.999 -6.5c-76 0 -146 5 -210 15l4 49c82.667 -4 152 -6 208 -6c60.667 0.666992 101.667 9 123 25s32 50.333 32 103c0 43.333 -7.16699 74 -21.5 92
s-39.166 30.333 -74.499 37zM279 -59.999h17.999c14.667 0 22 -7.33301 22 -22v-56c-1.33301 -46 -10 -88.333 -26 -127l-28 9c4.66699 32.667 7 66.667 7 102c-10.667 0 -16 6.33301 -16 19v53c0.666992 14.667 8.33398 22 23.001 22z" />
    <glyph glyph-name="scommaaccent" unicode="&#x219;" horiz-adv-x="505" 
d="M310 205l-148.002 27.999c-38 7.33301 -65.5 21.166 -82.5 41.499s-25.5 50.5 -25.5 90.5c0 54.667 13.833 90.5 41.5 107.5s75.834 25.167 144.501 24.5c73.333 -1.33301 139.333 -6.33301 198 -15l-6 -46c-80 4 -141.333 6 -184 6
c-53.333 0.666992 -88.666 -3.16602 -105.999 -11.499s-26 -30.166 -26 -65.499c0 -27.333 5.66699 -46.333 17 -57s30.333 -18.667 57 -24l149 -28c38.667 -8 67 -21.833 85 -41.5s27 -49.167 27 -88.5c0 -56.667 -15.167 -93.667 -45.5 -111s-82.166 -26 -155.499 -26
c-66 0 -127.667 4.33301 -185 13l5 47c52.667 -4.66699 109 -6.66699 169 -6c59.333 0.666992 99.166 6.16699 119.499 16.5s30.5 32.5 30.5 66.5c0 26 -6.33301 44.333 -19 55s-32.667 18.667 -60 24zM251.998 -60.001h17.999c14.667 0 22 -7.33301 22 -22v-56
c-1.33301 -44 -10.333 -86.333 -27 -127l-27 9c4.66699 32.667 7 66.667 7 102c-12 0 -17.333 6.33301 -16 19v53c0.666992 14.667 8.33398 22 23.001 22z" />
    <glyph glyph-name="uni021A" unicode="&#x21a;" horiz-adv-x="575" 
d="M550 632h-230v-632h-66v632h-229v58h525v-58zM268 -60h17.999c14.667 0 22 -7.33301 22 -22v-56c-1.33301 -46 -10 -88.333 -26 -127l-28 9c4.66699 32.667 7 66.667 7 102c-10.667 0 -16 6.33301 -16 19v53c0.666992 14.667 8.33398 22 23.001 22z" />
    <glyph glyph-name="uni021B" unicode="&#x21b;" horiz-adv-x="369" 
d="M330 50l8 -48c-33.333 -6.66699 -67 -10 -101 -10c-80 0 -120 40.333 -120 121v321h-88v45l88 5v147h63v-147h164v-50h-164v-314c0 -46.667 23.667 -70 71 -70h79zM221 -60h17.999c14.667 0 22 -7.33301 22 -22v-56c-1.33301 -44 -10.333 -86.333 -27 -127l-27 9
c4.66699 32.667 7 66.667 7 102c-12 0 -17.333 6.33301 -16 19v53c0.666992 14.667 8.33398 22 23.001 22z" />
    <glyph glyph-name="circumflex" unicode="&#x2c6;" horiz-adv-x="410" 
d="M362 586l-23 -28l-130 99h-8l-129 -99l-23 28l133 124h47z" />
    <glyph glyph-name="caron" unicode="&#x2c7;" horiz-adv-x="410" 
d="M363 689l-142 -123h-32l-140 123l23 28l129 -92h8l130 92z" />
    <glyph glyph-name="breve" unicode="&#x2d8;" horiz-adv-x="368" 
d="M295 693l35 -6c1.33301 -38 -11 -68.333 -37 -91s-62 -34 -108 -34s-82.167 11.5 -108.5 34.5s-38.5 53.167 -36.5 90.5l34 6c0 -26 9.83301 -46.167 29.5 -60.5s47.167 -21.5 82.5 -21.5c34 0 60.667 7.16699 80 21.5s29 34.5 29 60.5z" />
    <glyph glyph-name="dotaccent" unicode="&#x2d9;" horiz-adv-x="215" 
d="M97 682h21c14 0 21 -7 21 -21v-59c0 -13.333 -7 -20 -21 -20h-21c-14 0 -21 6.66699 -21 20v59c0 14 7 21 21 21z" />
    <glyph glyph-name="ring" unicode="&#x2da;" horiz-adv-x="297" 
d="M149 739c28 0 52.167 -10.001 72.5 -30.001s30.5 -44 30.5 -72c0 -28.667 -10 -52.667 -30 -72s-44.333 -29 -73 -29s-53 9.66699 -73 29s-30 43.333 -30 72s10 52.834 30 72.501s44.333 29.5 73 29.5zM149 703.999c-18.667 0 -34.167 -6.33203 -46.5 -18.999
s-18.5 -28.667 -18.5 -48c0 -20 6.16699 -36 18.5 -48s27.833 -18 46.5 -18s34.167 6.16699 46.5 18.5s18.5 28.166 18.5 47.499s-6.33301 35.333 -19 48s-28 19 -46 19z" />
    <glyph glyph-name="ogonek" unicode="&#x2db;" horiz-adv-x="252" 
d="M145 2l31.0029 -2c-38.667 -42.667 -65 -82 -79 -118c-10.667 -26.667 -7.83398 -44.334 8.49902 -53.001s41.166 -7 74.499 5l8 -28c-58 -22 -98.833 -24.5 -122.5 -7.5s-28.5 44.167 -14.5 81.5c13.333 40.667 44.666 81.334 93.999 122.001z" />
    <glyph glyph-name="tilde" unicode="&#x2dc;" horiz-adv-x="413" 
d="M85 590l-31.998 0.000976562c-2.66699 35.333 3.16602 62.166 17.499 80.499s34.166 26.5 59.499 24.5c20.667 -2 45.5 -12 74.5 -30s52.833 -28 71.5 -30c19.333 -2 32.833 1.33301 40.5 10s11.5 23.667 11.5 45h32c2.66699 -34 -3.16602 -60 -17.499 -78
s-34.166 -26 -59.499 -24c-24.667 2 -51.834 12.167 -81.501 30.5s-51.5 28.5 -65.5 30.5c-18.667 2 -31.834 -1.83301 -39.501 -11.5s-11.5 -25.5 -11.5 -47.5z" />
    <glyph glyph-name="hungarumlaut" unicode="&#x2dd;" horiz-adv-x="439" 
d="M217 694l-128 -156l-30 21l110 168zM373 694l-129 -156l-29 21l110 168z" />
    <glyph glyph-name="Delta" unicode="&#x394;" horiz-adv-x="622" 
d="M593 32v-32h-564v32l248 658h68zM517 54l-182 496.999c-3.33301 9.33301 -7.83301 22.833 -13.5 40.5s-9.16699 28.834 -10.5 33.501l-24 -75l-183 -496h413z" />
    <glyph glyph-name="Omega" unicode="&#x3a9;" horiz-adv-x="718" 
d="M53 58h114.998c24 0 45.667 -1.33301 65 -4c-54 38 -92.667 81 -116 129s-35 109.333 -35 184c0 113.333 21.833 197.5 65.5 252.5s114.167 82.5 211.5 82.5c96.667 0 167 -27.667 211 -83s66 -139.666 66 -252.999c0 -76 -11.667 -137.667 -35 -185
s-62 -89.666 -116 -126.999c30.667 2.66699 52.334 4 65.001 4h115v-58h-243v55c54 36.667 91.833 78.167 113.5 124.5s32.834 106.166 33.501 179.499c-0.666992 99.333 -17.5 171.666 -50.5 216.999s-86.167 68 -159.5 68c-75.333 0 -129 -22.5 -161 -67.5
s-48 -118.167 -48 -219.5c0 -76 11 -135.5 33 -178.5s59.667 -84.167 113 -123.5v-55h-243v58z" />
    <glyph glyph-name="mu" unicode="&#x3bc;" horiz-adv-x="588" 
d="M445 0l-7.00098 80c-72 -61.333 -140.333 -92 -205 -92c-37.333 0 -67.666 8.66699 -90.999 26c3.33301 -20 5 -43.667 5 -71v-147h-56v334v354h63v-347c0 -59.333 31 -89 93 -89c28 0 55.5 5.66699 82.5 17s60.5 30 100.5 56v363h64v-484h-49z" />
    <glyph glyph-name="pi" unicode="&#x3c0;" horiz-adv-x="642" 
d="M613 433h-100v-433h-63v433h-258v-433h-63v433h-100v51h584v-51z" />
    <glyph glyph-name="uni0401" unicode="&#x401;" horiz-adv-x="557" 
d="M232 793h-23c-12 0 -18 6.66699 -18 20v55c0 12.667 6 19 18 19h23c12 0 18 -6.33301 18 -19v-55c0 -13.333 -6 -20 -18 -20zM409 793h-22c-12.667 0 -19 6.66699 -19 20v55c0 12.667 6.33301 19 19 19h22c12.667 0 19 -6.33301 19 -19v-55
c0 -13.333 -6.33301 -20 -19 -20zM500 55l3 -50.002c-62.667 -4 -161 -6 -295 -6c-36.667 0 -66 10.333 -88 31s-33 48.334 -33 83.001v464c0 34.667 11 62.334 33 83.001s51.333 31 88 31c134 0 232.333 -2 295 -6l-3 -50h-280c-45.333 0 -68 -24.333 -68 -73v-169h308v-53
h-308v-213c0 -48 22.667 -72 68 -72h280z" />
    <glyph glyph-name="uni0402" unicode="&#x402;" horiz-adv-x="751" 
d="M320 632l0.00292969 -260.002c68 44.667 139 67 213 67c54.667 0 96.5 -15.5 125.5 -46.5s43.5 -85.167 43.5 -162.5c0 -161.333 -85 -238.666 -255 -231.999l-6 47c67.333 4.66699 116.666 19.334 147.999 44.001s47 69.667 47 135c0 62 -9.5 103.667 -28.5 125
s-50.5 32 -94.5 32c-34.667 0 -66.334 -4.83301 -95.001 -14.5s-61.334 -25.5 -98.001 -47.5v-319h-66v632h-229v58h525v-58h-230z" />
    <glyph glyph-name="uni0403" unicode="&#x403;" horiz-adv-x="516" 
d="M438 859l-178 -128l-24 30l164 146zM90 0v570.999c0 34.667 11.167 63.334 33.5 86.001s50.5 34 84.5 34c128.667 0 224 -2 286 -6l-4 -50h-262c-48 0 -72 -25 -72 -75v-560h-66z" />
    <glyph glyph-name="uni0404" unicode="&#x404;" horiz-adv-x="574" 
d="M524 59l8.00098 -49.998c-51.333 -14 -115.333 -21 -192 -21c-100.667 0 -171.334 26.667 -212.001 80s-61 145.666 -61 276.999s20.333 223.666 61 276.999s111.334 80 212.001 80c73.333 0 135 -6.33301 185 -19l-8 -50c-56 6.66699 -115.333 10 -178 10
c-70.667 0 -121.334 -18.5 -152.001 -55.5s-48 -101.833 -52 -194.5h303v-52h-304c0.666992 -110 16 -186.5 46 -229.5s83 -64.5 159 -64.5c75.333 0 137 4 185 12z" />
    <glyph glyph-name="uni0405" unicode="&#x405;" horiz-adv-x="559" 
d="M341 304l-147 31.001c-48.667 10 -83.334 29.833 -104.001 59.5s-31 72.167 -31 127.5c0 40 4 72.167 12 96.5s22 42.5 42 54.5s42 19.833 66 23.5s56.667 5.16699 98 4.5c74 0 140.333 -5.33301 199 -16l-5 -48c-78.667 4 -142.334 6 -191.001 6
c-32.667 0 -56.667 -0.833008 -72 -2.5s-30.5 -6.5 -45.5 -14.5s-25 -20.333 -30 -37s-7.5 -39.667 -7.5 -69c0 -41.333 7.16699 -71.166 21.5 -89.499s38.833 -30.833 73.5 -37.5l144 -30c51.333 -10 87.5 -29.833 108.5 -59.5s31.5 -72.834 31.5 -129.501
c0 -40 -4.33301 -72.333 -13 -97s-23 -43.334 -43 -56.001s-42.667 -21.167 -68 -25.5s-58.666 -6.5 -99.999 -6.5c-76 0 -146 5 -210 15l4 49c82.667 -4 152 -6 208 -6c60.667 0.666992 101.667 9 123 25s32 50.333 32 103c0 43.333 -7.16699 74 -21.5 92
s-39.166 30.333 -74.499 37z" />
    <glyph glyph-name="uni0406" unicode="&#x406;" horiz-adv-x="251" 
d="M158 0h-65v690h65v-690z" />
    <glyph glyph-name="uni0407" unicode="&#x407;" horiz-adv-x="251" 
d="M25 864h22c12.667 0 19 -6.33301 19 -19v-55c0 -13.333 -6.33301 -20 -19 -20h-22c-12 0 -18 6.66699 -18 20v55c0 12.667 6 19 18 19zM203 864h21c12.667 0 19 -6.33301 19 -19v-55c0 -13.333 -6.33301 -20 -19 -20h-21c-12.667 0 -19 6.66699 -19 20v55
c0 12.667 6.33301 19 19 19zM158 0h-65v690h65v-690z" />
    <glyph glyph-name="uni0408" unicode="&#x408;" horiz-adv-x="334" 
d="M245 690v-556c0 -94.667 -43.333 -142 -130 -142c-26.667 0 -54 3.33301 -82 10l7 46h53c57.333 0 86 28 86 84v558h66z" />
    <glyph glyph-name="uni0409" unicode="&#x409;" horiz-adv-x="968" 
d="M541 402l156.999 0.000976562c82.667 0 140 -15.333 172 -46s48 -84 48 -160c0 -78.667 -15.833 -132.334 -47.5 -161.001s-86.167 -43 -163.5 -43c-98.667 0 -175.667 2.66699 -231 8v2v634h-144c-44.667 0 -69 -25 -73 -75
c-12.667 -144.667 -23.167 -242.834 -31.5 -294.501s-23.5 -99.167 -45.5 -142.5c-18.667 -38 -40 -67.333 -64 -88s-53.333 -33 -88 -37l-7 45c38.667 16.667 71.334 49.667 98.001 99c21.333 40 36 82.833 44 128.5s16.667 124.5 26 236.5
c2 26.667 3.66699 47.334 5 62.001c6 80 49.333 120 130 120h215v-288zM540.999 346.001l0.000976562 -295.001c26 -0.666992 78.333 -1 157 -1c59.333 0 99.666 9.83301 120.999 29.5s32 58.834 32 117.501c0 56.667 -10.5 95.667 -31.5 117s-61.5 32 -121.5 32h-157z" />
    <glyph glyph-name="uni040A" unicode="&#x40a;" horiz-adv-x="980" 
d="M553 400h157c82.667 0 140 -15.167 172 -45.5s48 -83.166 48 -158.499c0 -78.667 -15.833 -132.334 -47.5 -161.001s-86.5 -43 -164.5 -43c-98 0 -174.667 2.66699 -230 8v345h-330v-345h-65v690h65v-290h330v290h65v-290zM553 345l0.00195312 -294
c25.333 -0.666992 77.666 -1 156.999 -1c59.333 0 99.666 9.83301 120.999 29.5s32 58.5 32 116.5c0 56 -10.5 94.833 -31.5 116.5s-61.5 32.5 -121.5 32.5h-157z" />
    <glyph glyph-name="uni040B" unicode="&#x40b;" horiz-adv-x="781" 
d="M320 632v-261.001c80.667 45.333 163 68 247 68c102 0 153 -50.667 153 -152v-287h-65v274c0 38 -8.33301 65.167 -25 81.5s-44.667 24.5 -84 24.5c-40 0 -76.833 -4.66699 -110.5 -14s-72.167 -25.666 -115.5 -48.999v-317h-66v632h-229v58h525v-58h-230z" />
    <glyph glyph-name="uni040C" unicode="&#x40c;" horiz-adv-x="590" 
d="M262 731l-23 30l164 146l37 -48zM307 361l0.000976562 -1.99805c36.667 -3.33301 69.5 -20.333 98.5 -51s50.667 -61.834 65 -93.501s35.5 -84.834 63.5 -159.501l21 -55h-69c-42.667 112 -69.667 179 -81 201c-32 66 -69.333 107 -112 123c-16.667 6 -35 9 -55 9h-86
c4 -27.333 6 -53.333 6 -78v-255h-65v690h65v-223c0 -27.333 -2 -54 -6 -80h86c19.333 0 37.166 3.16699 53.499 9.5s31.333 16.5 45 30.5s25.667 28 36 42s21.333 33.5 33 58.5s21 46.5 28 64.5l28.5 74l9 24h66c-40 -107.333 -68.667 -177.333 -86 -210
c-40 -74 -88 -113.667 -144 -119z" />
    <glyph glyph-name="uni040D" unicode="&#x40d;" horiz-adv-x="686" 
d="M392 761l-24 -30l-178 128l38 48zM594 0h-64v531c0 24.667 1 50 3 76h-3c-16 -32.667 -28 -56 -36 -70l-335 -537h-66v690h63v-527c0 -26 -1 -52 -3 -78h3c8.66699 17.333 21.667 41.333 39 72l332 533h67v-690z" />
    <glyph glyph-name="uni040E" unicode="&#x40e;" horiz-adv-x="553" 
d="M387 880l35.001 -6c1.33301 -37.333 -11 -67.5 -37 -90.5s-61.667 -34.5 -107 -34.5c-46 0 -82.167 11.5 -108.5 34.5s-38.833 53.167 -37.5 90.5l35 6c0 -26 9.66699 -46.167 29 -60.5s46.666 -21.5 81.999 -21.5c34 0 60.833 7.16699 80.5 21.5s29.167 34.5 28.5 60.5z
M538.001 690l-192.001 -523c-7.33301 -20.667 -13.833 -37.834 -19.5 -51.501s-13 -28.667 -22 -45s-18.167 -29.333 -27.5 -39s-20.333 -18.167 -33 -25.5s-26.667 -11.333 -42 -12c-38.667 -3.33301 -77 1 -115 13l8 47c24 -2.66699 42.667 -4.5 56 -5.5s26.5 0 39.5 3
s22.5 6.16699 28.5 9.5s13.167 10.833 21.5 22.5s14.833 22.834 19.5 33.501s11.667 27.667 21 51l13 34h-41c-30 0 -50.667 14.333 -62 43l-164 445h67l150 -414c4.66699 -12 13.334 -18 26.001 -18h43l158 432h67z" />
    <glyph glyph-name="uni040F" unicode="&#x40f;" horiz-adv-x="671" 
d="M579 690v-690h-215l-4 -151h-45l-5 151h-217v690h65v-636h355v636h66z" />
    <glyph glyph-name="uni0410" unicode="&#x410;" horiz-adv-x="615" 
d="M458 228h-301l-76 -228h-68l231 671c4 12.667 12.667 19 26 19h75c13.333 0 22 -6.33301 26 -19l231 -671h-68zM439 285l-98.999 296.999c-0.666992 3.33301 -3.33398 11.833 -8.00098 25.5s-8 23.834 -10 30.501h-28l-19 -56l-99 -297h263z" />
    <glyph glyph-name="uni0411" unicode="&#x411;" horiz-adv-x="596" 
d="M158 385h163.997c82.667 0 139.834 -14.667 171.501 -44s47.5 -80.666 47.5 -153.999c0 -41.333 -4.33301 -75 -13 -101s-23.167 -45.833 -43.5 -59.5s-43.5 -22.834 -69.5 -27.501s-60.333 -7 -103 -7c-88 0 -160.667 2.66699 -218 8h-1v690
c76.667 3.33301 146.334 5 209.001 5c60.667 0 128.334 -1.66699 203.001 -5l-5 -54h-342v-251zM157.997 332l0.00195312 -282.001c53.333 -1.33301 108 -2 164 -2c59.333 0 99.666 9.33301 120.999 28s32 56.334 32 113.001c0 54.667 -10.333 92.167 -31 112.5
s-61.334 30.5 -122.001 30.5h-164z" />
    <glyph glyph-name="uni0412" unicode="&#x412;" horiz-adv-x="617" 
d="M416 360l0.000976562 -4.00195c50 -4.66699 85.5 -22.167 106.5 -52.5s31.5 -74.166 31.5 -131.499c0 -69.333 -16.167 -116.666 -48.5 -141.999s-88.833 -38 -169.5 -38c-104.667 0 -185.667 2.66699 -243 8v690c50 5.33301 121 8 213 8
c85.333 0 144.5 -12.5 177.5 -37.5s49.5 -72.5 49.5 -142.5c0 -50 -9.33301 -87.833 -28 -113.5s-48.334 -40.5 -89.001 -44.5zM157.001 382.998h163.001c56.667 0.666992 95.667 9.66699 117 27s32 51 32 101c0 52 -11.833 86.833 -35.5 104.5s-66.834 26.5 -129.501 26.5
c-73.333 0 -122.333 -0.333008 -147 -1v-258zM157.002 331.998l-0.000976562 -282c56 -1.33301 113 -2 171 -2c60.667 0 102.334 9 125.001 27s34 53.333 34 106c0 58 -12 97.333 -36 118s-67.667 31.667 -131 33h-163z" />
    <glyph glyph-name="uni0413" unicode="&#x413;" horiz-adv-x="516" 
d="M90 0v570.999c0 34.667 11.167 63.334 33.5 86.001s50.5 34 84.5 34c128.667 0 224 -2 286 -6l-4 -50h-262c-48 0 -72 -25 -72 -75v-560h-66z" />
    <glyph glyph-name="uni0414" unicode="&#x414;" horiz-adv-x="679" 
d="M645 54v-205h-45l-8 151h-516l-7 -151h-46v205h64c60.667 122 96 294 106 516c1.33301 38 13 67.5 35 88.5s52.667 31.5 92 31.5h241v-636h84zM496 54v582h-165c-25.333 0 -44 -5.83301 -56 -17.5s-18.333 -30.5 -19 -56.5c-5.33301 -108.667 -15.5 -203.5 -30.5 -284.5
s-39.833 -155.5 -74.5 -223.5h345z" />
    <glyph glyph-name="uni0415" unicode="&#x415;" horiz-adv-x="557" 
d="M500 55l3 -50.002c-62.667 -4 -161 -6 -295 -6c-36.667 0 -66 10.333 -88 31s-33 48.334 -33 83.001v464c0 34.667 11 62.334 33 83.001s51.333 31 88 31c134 0 232.333 -2 295 -6l-3 -50h-280c-45.333 0 -68 -24.333 -68 -73v-169h308v-53h-308v-213
c0 -48 22.667 -72 68 -72h280z" />
    <glyph glyph-name="uni0416" unicode="&#x416;" horiz-adv-x="897" 
d="M614 361l-0.000976562 -1.99805c23.333 -2 44.833 -9.33301 64.5 -22s36 -25.834 49 -39.501s27.667 -37.5 44 -71.5s28.333 -60.667 36 -80s20.5 -53.666 38.5 -102.999c7.33301 -18.667 12.666 -33 15.999 -43h-70c-4.66699 11.333 -11 28 -19 50l-26.5 70
c-5.66699 15.333 -13.834 35.166 -24.501 59.499s-19.667 42.333 -27 54s-16.666 25.167 -27.999 40.5s-22.5 26.333 -33.5 33s-23.667 12.667 -38 18s-29.833 8 -46.5 8h-72c4 -27.333 6 -53.333 6 -78v-255h-63v255c0 16 2 42 6 78h-78c-22.667 0 -43.5 -5 -62.5 -15
s-34.667 -21 -47 -33s-26.166 -32.833 -41.499 -62.5s-26.833 -53.834 -34.5 -72.501l-37.5 -96c-9.33301 -23.333 -16.333 -41.333 -21 -54h-69c44 119.333 73.667 194 89 224c36 71.333 77.667 114.333 125 129c10.667 3.33301 21.667 5.33301 33 6v2
c-21.333 2 -41.5 9.33301 -60.5 22s-35 26.834 -48 42.501s-26.667 38.167 -41 67.5s-25.833 54.833 -34.5 76.5s-20 51.834 -34 90.501c-4.66699 13.333 -8.33398 23.333 -11.001 30h67c39.333 -102.667 68 -169.667 86 -201c39.333 -68 86.333 -102 141 -102h78
c-3.33301 28.667 -5 55.334 -5 80.001v223h63v-223c0 -31.333 -1.66699 -58 -5 -80h71c26.667 0 50.834 7.16699 72.501 21.5s40.834 35.166 57.501 62.499s31.667 56.166 45 86.499s28 66.166 44 107.499l9 25h67c-40 -107.333 -68.667 -177.333 -86 -210
c-40 -74 -88 -113.667 -144 -119z" />
    <glyph glyph-name="uni0417" unicode="&#x417;" horiz-adv-x="548" 
d="M61 634l-6.99902 48.9971c55.333 10 116.666 15 183.999 15c84.667 0 143.334 -12.5 176.001 -37.5s49 -72.5 49 -142.5c0 -50 -9.16699 -87.833 -27.5 -113.5s-47.833 -40.5 -88.5 -44.5v-4c49.333 -4.66699 84.333 -22.167 105 -52.5s31 -74.166 31 -131.499
c0 -69.333 -15.833 -116.666 -47.5 -141.999s-87.5 -38 -167.5 -38c-92 0 -168.333 6.33301 -229 19l7 48c86 -8 156.667 -12 212 -12c60 0 101.333 9 124 27s34 53.667 34 107c0 58 -12 97.5 -36 118.5s-67.333 31.5 -130 31.5h-110v53h110
c55.333 0 93.666 8.83301 114.999 26.5s32 51.167 32 100.5c0 52.667 -11.5 87.834 -34.5 105.501s-65.5 26.5 -127.5 26.5c-11.333 0 -69.333 -3 -174 -9z" />
    <glyph glyph-name="uni0418" unicode="&#x418;" horiz-adv-x="686" 
d="M594 0h-64v531c0 24.667 1 50 3 76h-3c-16 -32.667 -28 -56 -36 -70l-335 -537h-66v690h63v-527c0 -26 -1 -52 -3 -78h3c8.66699 17.333 21.667 41.333 39 72l332 533h67v-690z" />
    <glyph glyph-name="uni0419" unicode="&#x419;" horiz-adv-x="686" 
d="M439 881h50c2 -38.667 -10.167 -70.334 -36.5 -95.001s-62.166 -37 -107.499 -37s-81.333 12.333 -108 37s-39.334 56.334 -38.001 95.001h51c0 -30 8.33301 -53.333 25 -70s40 -25 70 -25c29.333 0 52.333 8.33301 69 25s25 40 25 70zM594 0h-64v531c0 24.667 1 50 3 76
h-3c-16 -32.667 -28 -56 -36 -70l-335 -537h-66v690h63v-527c0 -26 -1 -52 -3 -78h3c8.66699 17.333 21.667 41.333 39 72l332 533h67v-690z" />
    <glyph glyph-name="uni041A" unicode="&#x41a;" horiz-adv-x="590" 
d="M307 361l0.000976562 -1.99805c36.667 -3.33301 69.5 -20.333 98.5 -51s50.667 -61.834 65 -93.501s35.5 -84.834 63.5 -159.501l21 -55h-69c-42.667 112 -69.667 179 -81 201c-32 66 -69.333 107 -112 123c-16.667 6 -35 9 -55 9h-86c4 -27.333 6 -53.333 6 -78v-255
h-65v690h65v-223c0 -27.333 -2 -54 -6 -80h86c19.333 0 37.166 3.16699 53.499 9.5s31.333 16.5 45 30.5s25.667 28 36 42s21.333 33.5 33 58.5s21 46.5 28 64.5l28.5 74l9 24h66c-40 -107.333 -68.667 -177.333 -86 -210c-40 -74 -88 -113.667 -144 -119z" />
    <glyph glyph-name="uni041B" unicode="&#x41b;" horiz-adv-x="644" 
d="M552 690l0.000976562 -690h-66v636h-158c-48 0 -74 -25 -78 -75c-12.667 -144 -23.167 -242.167 -31.5 -294.5s-23.833 -99.833 -46.5 -142.5c-36.667 -76.667 -88 -118.334 -154 -125.001l-6 51c42 16 75 47 99 93c21.333 42 36.166 87.833 44.499 137.5
s18.5 146.834 30.5 291.501c7.33301 78.667 49.333 118 126 118h240z" />
    <glyph glyph-name="uni041C" unicode="&#x41c;" horiz-adv-x="869" 
d="M654 690l78 -0.00195312c19.333 0 29 -9.66699 29 -29l29 -661h-65l-27 635h-22l-179 -541c-4.66699 -14.667 -14.667 -22 -30 -22h-66c-15.333 0 -25.333 7.33301 -30 22l-180 541h-21l-26 -635h-65l28 661c0 19.333 9.66699 29 29 29h79c14 0 23.667 -7.66699 29 -23
l151 -450c10.667 -33.333 20 -64.666 28 -93.999h22c4 14.667 13.667 46.334 29 95.001l151 449c4 15.333 13.667 23 29 23z" />
    <glyph glyph-name="uni041D" unicode="&#x41d;" horiz-adv-x="664" 
d="M571 690v-690h-66v341h-347v-341h-65v690h65v-293h347v293h66z" />
    <glyph glyph-name="uni041E" unicode="&#x41e;" horiz-adv-x="666" 
d="M333 702c98.667 0 167.667 -26.167 207 -78.5s59 -145.166 59 -278.499s-19.667 -226.166 -59 -278.499s-108.333 -78.5 -207 -78.5s-167.667 26.167 -207 78.5s-59 145.166 -59 278.499s19.667 226.166 59 278.499s108.333 78.5 207 78.5zM333 644
c-74 0 -125.5 -21.833 -154.5 -65.5s-43.5 -121.5 -43.5 -233.5s14.5 -189.833 43.5 -233.5s80.5 -65.5 154.5 -65.5s125.333 21.833 154 65.5s43 121.5 43 233.5s-14.333 189.833 -43 233.5s-80 65.5 -154 65.5z" />
    <glyph glyph-name="uni041F" unicode="&#x41f;" horiz-adv-x="666" 
d="M574 690v-690h-66v636h-350v-636h-65v690h481z" />
    <glyph glyph-name="uni0420" unicode="&#x420;" horiz-adv-x="587" 
d="M93 0l-0.00195312 690c55.333 5.33301 132.333 8 231 8c80.667 0 136.5 -14.833 167.5 -44.5s46.5 -85.167 46.5 -166.5s-15.167 -136.833 -45.5 -166.5s-84.166 -44.5 -161.499 -44.5c-57.333 0 -114.666 2.66699 -171.999 8v-284h-66zM158.998 333h164
c56 0.666992 94.667 11.5 116 32.5s32 61.5 32 121.5c0 60.667 -10.667 101.667 -32 123s-60 32 -116 32s-110.667 -0.666992 -164 -2v-307z" />
    <glyph glyph-name="uni0421" unicode="&#x421;" 
d="M521 58l8.00098 -48.998c-52 -14 -118 -21 -198 -21c-97.333 0 -165.666 26.667 -204.999 80s-59 145.666 -59 276.999s19.667 223.666 59 276.999s107.666 80 204.999 80c72.667 0 134 -6.33301 184 -19l-8 -49c-50.667 6 -109.334 9 -176.001 9
c-73.333 0 -124.333 -21.667 -153 -65s-43 -121 -43 -233s14.333 -189.667 43 -233s79.667 -65 153 -65c76 0 139.333 3.66699 190 11z" />
    <glyph glyph-name="uni0422" unicode="&#x422;" horiz-adv-x="575" 
d="M550 632h-230v-632h-66v632h-229v58h525v-58z" />
    <glyph glyph-name="uni0423" unicode="&#x423;" horiz-adv-x="553" 
d="M538 690l-192.001 -523c-7.33301 -20.667 -13.833 -37.834 -19.5 -51.501s-13 -28.667 -22 -45s-18.167 -29.333 -27.5 -39s-20.333 -18.167 -33 -25.5s-26.667 -11.333 -42 -12c-38.667 -3.33301 -77 1 -115 13l8 47c24 -2.66699 42.667 -4.5 56 -5.5s26.5 0 39.5 3
s22.5 6.16699 28.5 9.5s13.167 10.833 21.5 22.5s14.833 22.834 19.5 33.501s11.667 27.667 21 51l13 34h-41c-30 0 -50.667 14.333 -62 43l-164 445h67l150 -414c4.66699 -12 13.334 -18 26.001 -18h43l158 432h67z" />
    <glyph glyph-name="uni0424" unicode="&#x424;" horiz-adv-x="821" 
d="M444 750v-100c116.667 -3.33301 198.834 -27 246.501 -71s71.5 -119.333 71.5 -226c0 -104.667 -23.833 -179 -71.5 -223s-129.834 -67.667 -246.501 -71v-100h-66v100c-116.667 3.33301 -199 26.833 -247 70.5s-72 118.167 -72 223.5c0 106.667 24 182 72 226
s130.333 67.667 247 71v100h66zM380 115v480.001c-95.333 -2.66699 -161.333 -21.334 -198 -56.001s-55 -96.667 -55 -186c0 -88 18.333 -149 55 -183s102.667 -52.333 198 -55zM441 595.001v-479.998c95.333 2.66699 161.333 21 198 55s55.334 95 56.001 183
c-0.666992 89.333 -19.334 151.166 -56.001 185.499s-102.667 53.166 -198 56.499z" />
    <glyph glyph-name="uni0425" unicode="&#x425;" horiz-adv-x="608" 
d="M318 334h-29l-186 -334h-72l203 358l-190 332h72l172 -305h32l171 305h73l-191 -332l204 -358h-73z" />
    <glyph glyph-name="uni0426" unicode="&#x426;" horiz-adv-x="684" 
d="M649 54v-205h-45l-7 151h-504v690h65v-636h342v636h66v-636h83z" />
    <glyph glyph-name="uni0427" unicode="&#x427;" horiz-adv-x="618" 
d="M526 690l-0.000976562 -690h-66v328c-79.333 -47.333 -162 -71 -248 -71c-98.667 0 -148 50.667 -148 152v281h65v-268c0 -37.333 8.33301 -64.333 25 -81s43.334 -25 80.001 -25c40 0 76.667 4.66699 110 14s72 26 116 50v310h66z" />
    <glyph glyph-name="uni0428" unicode="&#x428;" horiz-adv-x="919" 
d="M827 690v-690h-734v690h64v-636h271v636h64v-636h270v636h65z" />
    <glyph glyph-name="uni0429" unicode="&#x429;" horiz-adv-x="936" 
d="M902 -151h-45l-8 151h-756v690h64v-636h267v636h64v-636h267v636h64v-636h83v-205z" />
    <glyph glyph-name="uni042A" unicode="&#x42a;" horiz-adv-x="746" 
d="M315 402l161.001 0.000976562c82.667 0 140 -15.333 172 -46s48 -84 48 -160c0 -78.667 -15.833 -132.334 -47.5 -161.001s-86.167 -43 -163.5 -43c-100.667 0 -179.334 2.66699 -236.001 8v632h-224v58h290v-288zM315.001 346.001l0.000976562 -295.001
c26 -0.666992 79.667 -1 161 -1c59.333 0 99.666 9.83301 120.999 29.5s32 58.5 32 116.5c0 56.667 -10.5 95.834 -31.5 117.501s-61.5 32.5 -121.5 32.5h-161z" />
    <glyph glyph-name="uni042B" unicode="&#x42b;" horiz-adv-x="833" 
d="M158 402l163.001 0.000976562c82.667 0 140 -15.333 172 -46s48 -84 48 -160c0 -78.667 -15.833 -132.334 -47.5 -161.001s-86.167 -43 -163.5 -43c-100.667 0 -179.334 2.66699 -236.001 8h-1v690h65v-288zM740.001 690.001v-690h-65v690h65zM158.001 346.001
l0.000976562 -295.001c26.667 -0.666992 81 -1 163 -1c59.333 0 99.666 9.83301 120.999 29.5s32 58.5 32 116.5c0 56.667 -10.5 95.834 -31.5 117.501s-61.5 32.5 -121.5 32.5h-163z" />
    <glyph glyph-name="uni042C" unicode="&#x42c;" horiz-adv-x="591" 
d="M158 402l163.001 0.000976562c82.667 0 140 -15.333 172 -46s48 -84 48 -160c0 -78.667 -15.833 -132.334 -47.5 -161.001s-86.167 -43 -163.5 -43c-100.667 0 -179.334 2.66699 -236.001 8h-1v690h65v-288zM158.001 346.001l0.000976562 -295.001
c26.667 -0.666992 81 -1 163 -1c59.333 0 99.666 9.83301 120.999 29.5s32 58.5 32 116.5c0 56.667 -10.5 95.834 -31.5 117.501s-61.5 32.5 -121.5 32.5h-163z" />
    <glyph glyph-name="uni042D" unicode="&#x42d;" horiz-adv-x="574" 
d="M58 633l-8.99902 49.998c50.667 12.667 112.667 19 186 19c100.667 0 171.334 -26.667 212.001 -80s61 -145.666 61 -276.999s-20.333 -223.666 -61 -276.999s-111.334 -80 -212.001 -80c-76.667 0 -141 7 -193 21l9 50c47.333 -8 108.666 -12 183.999 -12
c76 0 129.167 21.667 159.5 65s45.5 120 45.5 230h-304v52h303c-3.33301 92 -20.5 156.5 -51.5 193.5s-81.833 55.5 -152.5 55.5c-62.667 0 -121.667 -3.33301 -177 -10z" />
    <glyph glyph-name="uni042E" unicode="&#x42e;" horiz-adv-x="915" 
d="M159 386l168.002 -0.00195312c3.33301 117.333 24.166 199.333 62.499 246s102.166 70 191.499 70c98.667 0 167.834 -26.167 207.501 -78.5s59.5 -145.166 59.5 -278.499s-19.833 -226.166 -59.5 -278.499s-108.834 -78.5 -207.501 -78.5c-92.667 0 -158 25.333 -196 76
s-57.333 140 -58 268h-168v-332h-65v690h65v-304zM581.002 45.998c74 0 125.333 21.833 154 65.5s43.334 121.5 44.001 233.5c-0.666992 112 -15.334 189.833 -44.001 233.5s-80 65.5 -154 65.5c-70.667 0 -119.834 -21.833 -147.501 -65.5s-41.5 -121.5 -41.5 -233.5
s13.833 -189.833 41.5 -233.5s76.834 -65.5 147.501 -65.5z" />
    <glyph glyph-name="uni042F" unicode="&#x42f;" horiz-adv-x="609" 
d="M203 307l-1 6.00098c-42 6 -73.167 25.167 -93.5 57.5s-30.5 74.166 -30.5 125.499c0 73.333 16.5 125.333 49.5 156s87.167 46 162.5 46c96.667 0 172 -2.66699 226 -8v-690h-65v289c-53.333 -1.33301 -110 -2 -170 -2c-48.667 0 -81.667 -26.333 -99 -79l-65 -208h-70
l68 211c16.667 53.333 46 85.333 88 96zM451 344.001v296c-52 1.33301 -105.333 2 -160 2c-53.333 0 -91 -10.667 -113 -32s-33.333 -60.333 -34 -117c0 -99.333 46 -149 138 -149h169z" />
    <glyph glyph-name="uni0430" unicode="&#x430;" horiz-adv-x="547" 
d="M84 428l-5.99902 47c96.667 14.667 174.334 22 233.001 22c52 0 90.833 -11.5 116.5 -34.5s38.5 -61.167 38.5 -114.5v-348h-50l-8 85c-24 -24 -55.167 -45.5 -93.5 -64.5s-77.833 -28.5 -118.5 -28.5c-42.667 0 -76.334 11.333 -101.001 34s-37 55 -37 97v56
c0 37.333 11 66.333 33 87s53.333 31 94 31h217v51c0 32 -7.5 55.667 -22.5 71s-41.833 23 -80.5 23c-56.667 0 -128.334 -4.66699 -215.001 -14zM122.001 171l0.000976562 -42c0 -54 28.333 -81 85 -81c29.333 -0.666992 62.166 6.5 98.499 21.5s68.5 35.167 96.5 60.5v116
h-207c-48.667 -2 -73 -27 -73 -75z" />
    <glyph glyph-name="uni0431" unicode="&#x431;" horiz-adv-x="569" 
d="M466 736l15.9971 -49.002c-18 -12 -36.333 -21.833 -55 -29.5s-34.167 -13.167 -46.5 -16.5s-28.666 -7 -48.999 -11s-36.166 -7.66699 -47.499 -11c-52.667 -15.333 -89.5 -38.333 -110.5 -69s-34.5 -70.667 -40.5 -120c-4 -21.333 -6.66699 -44.666 -8 -69.999h2
c5.33301 14.667 11.666 27.5 18.999 38.5s17.666 22.5 30.999 34.5s31.833 21.167 55.5 27.5s51.5 9.5 83.5 9.5c70.667 0 120.167 -17.833 148.5 -53.5s42.5 -96.5 42.5 -182.5c0 -82.667 -15.167 -144.334 -45.5 -185.001s-86.833 -61 -169.5 -61
c-33.333 0 -62.166 3.16699 -86.499 9.5s-44.166 16.5 -59.499 30.5s-27.833 29 -37.5 45s-16.834 37 -21.501 63s-7.66699 50.333 -9 73s-2 51.334 -2 86.001c0 46.667 1.16699 85.667 3.5 117s7.33301 62 15 92s18.334 54.667 32.001 74s31.834 36.666 54.501 51.999
s50.334 28 83.001 38c13.333 4 34.166 8.83301 62.499 14.5s52.833 12.334 73.5 20.001s42.667 18.834 66 33.501zM299.997 414.998c-62.667 0 -104.668 -14.502 -126.001 -43.502s-32 -74.5 -32 -136.5c0 -72 11.333 -122 34 -150s61.667 -42 117 -42
s93.833 13.833 115.5 41.5s32.5 77.834 32.5 150.501c0 68.667 -10.167 115.834 -30.5 141.501s-57.166 38.5 -110.499 38.5z" />
    <glyph glyph-name="uni0432" unicode="&#x432;" horiz-adv-x="551" 
d="M370 250v-1.99902c44 -3.33301 75.333 -15.5 94 -36.5s28 -51.5 28 -91.5c0 -48.667 -14.167 -81.834 -42.5 -99.501s-78.166 -26.5 -149.499 -26.5c-90.667 0 -162.667 2 -216 6v483c47.333 4 110.333 6 189 6c76 0 128.667 -9 158 -27s44 -52 44 -102
c0 -34.667 -8.33301 -61 -25 -79s-43.334 -28.333 -80.001 -31zM144 273.001l140.999 -0.000976562c48.667 0 82.334 5.66699 101.001 17s28 33 28 65c0 32.667 -10.333 54.834 -31 66.501s-58 17.5 -112 17.5h-127v-166zM143.999 226v-181h38.5h55h53.5
c52 0 87.833 5.83301 107.5 17.5s29.5 34.5 29.5 68.5c0 36 -10.5 60.833 -31.5 74.5s-58.167 20.5 -111.5 20.5h-141z" />
    <glyph glyph-name="uni0433" unicode="&#x433;" horiz-adv-x="454" 
d="M82 0v384.001c0 33.333 8.66699 58.666 26 75.999s42.666 26 75.999 26c110.667 0 192.334 -2 245.001 -6l-2 -46h-218c-42.667 0 -64 -21.667 -64 -65v-369h-63z" />
    <glyph glyph-name="uni0434" unicode="&#x434;" horiz-adv-x="573" 
d="M530 52l-0.000976562 -197h-42l-7 145h-403l-6 -145h-43v197h53c44.667 82.667 71.334 192 80.001 328c4 69.333 41.667 104 113 104h193v-432h62zM406.999 434h-122c-40 0 -61.667 -21 -65 -63c-8 -134.667 -34.667 -241 -80 -319h267v382z" />
    <glyph glyph-name="uni0435" unicode="&#x435;" horiz-adv-x="535" 
d="M369 211h-242.003c4 -64 18.667 -108 44 -132s66.333 -36 123 -36c50.667 0 106.667 4 168 12l7 -43c-40.667 -16 -101.667 -24 -183 -24s-139.166 19.5 -173.499 58.5s-51.5 104.833 -51.5 197.5c0 93.333 16.667 158.833 50 196.5s89 56.5 167 56.5
c68.667 0 119.334 -12.5 152.001 -37.5s49.334 -62.833 50.001 -113.5c1.33301 -90 -35.667 -135 -111 -135zM126.997 261h227.001c42.667 0 63.334 28 62.001 84c-0.666992 34 -11.667 58.667 -33 74s-55.333 23 -102 23c-56.667 0 -96.334 -13.167 -119.001 -39.5
s-34.334 -73.5 -35.001 -141.5z" />
    <glyph glyph-name="uni0436" unicode="&#x436;" horiz-adv-x="778" 
d="M547 254l0.00292969 -1.99805c16.667 -1.33301 31.667 -4.66602 45 -9.99902s26 -14.333 38 -27s21.667 -23.834 29 -33.501s16.666 -26.834 27.999 -51.501s19.666 -43.834 24.999 -57.501l28 -72.5h-65c-36.667 87.333 -61.667 141.333 -75 162
c-26.667 42.667 -61 64.667 -103 66h-4h-77c2.66699 -16 4 -33.333 4 -52v-176h-57v176c0 14.667 1.66699 32 5 52h-82c-21.333 0 -39.5 -3.5 -54.5 -10.5s-30 -22 -45 -45s-25.833 -41.667 -32.5 -56s-19.334 -43.833 -38.001 -88.5c-5.33301 -12 -9.33301 -21.333 -12 -28
h-66c36 92.667 62.667 152 80 178c28.667 44.667 66.667 69.334 114 74.001v2c-18.667 2 -35.667 7.5 -51 16.5s-28.166 18.833 -38.499 29.5s-21.5 27.834 -33.5 51.501s-21.167 43.167 -27.5 58.5l-29.5 74h65c12 -30.667 21.333 -53.5 28 -68.5
s15.834 -33.167 27.501 -54.5s22.5 -36.833 32.5 -46.5s22.167 -18.334 36.5 -26.001s30.166 -11.5 47.499 -11.5h78c-2.66699 16 -4 35 -4 57v150h57v-150c0 -22 -1.33301 -41 -4 -57h73c21.333 0 40.166 4.5 56.499 13.5s31.666 24.833 45.999 47.5
s25.833 43.167 34.5 61.5s20.667 46.5 36 84.5h65l-29.5 -74c-6.33301 -15.333 -15.5 -34.833 -27.5 -58.5s-23.167 -40.834 -33.5 -51.501s-23.166 -20.5 -38.499 -29.5s-32.333 -14.5 -51 -16.5z" />
    <glyph glyph-name="uni0437" unicode="&#x437;" horiz-adv-x="488" 
d="M60 430l-6.00098 47.999c40.667 9.33301 88.667 14 144 14c80.667 0 136.334 -8.66699 167.001 -26s46 -51.333 46 -102c0 -36.667 -7.5 -64 -22.5 -82s-41.5 -28.667 -79.5 -32v-2c42 -3.33301 72.167 -15.333 90.5 -36s27.5 -51.667 27.5 -93
c0 -47.333 -15.167 -80.333 -45.5 -99s-82.833 -28 -157.5 -28c-67.333 0 -128.333 4.33301 -183 13l6 49c66 -5.33301 123.667 -8 173 -8c54 0 91 6.16699 111 18.5s30 34.833 30 67.5c0 34.667 -10.167 58.5 -30.5 71.5s-56.5 19.833 -108.5 20.5h-108v48h107
c49.333 0 82.833 5.83301 100.5 17.5s26.5 33.834 26.5 66.501c0 33.333 -10.5 55.333 -31.5 66s-60.833 16 -119.5 16c-56 0 -101.667 -2.66699 -137 -8z" />
    <glyph glyph-name="uni0438" unicode="&#x438;" horiz-adv-x="585" 
d="M500 0l-57.999 0.000976562v348c0 12 0.666992 32 2 60h-2c-6.66699 -14 -17.334 -31 -32.001 -51l-273 -357h-52v484h57v-346c0 -26.667 -0.333008 -47.334 -1 -62.001h2c12.667 22.667 23.667 40 33 52l272 356h52v-484z" />
    <glyph glyph-name="uni0439" unicode="&#x439;" horiz-adv-x="585" 
d="M380 700h50c2 -38 -10.167 -69.5 -36.5 -94.5s-62.166 -37.5 -107.499 -37.5s-81.333 12.5 -108 37.5s-39.334 56.5 -38.001 94.5h51c0 -30 8.33301 -53.333 25 -70s40 -25 70 -25c29.333 0 52.333 8.33301 69 25s25 40 25 70zM500 0l-57.999 0.000976562v348
c0 12 0.666992 32 2 60h-2c-6.66699 -14 -17.334 -31 -32.001 -51l-273 -357h-52v484h57v-346c0 -26.667 -0.333008 -47.334 -1 -62.001h2c12.667 22.667 23.667 40 33 52l272 356h52v-484z" />
    <glyph glyph-name="uni043A" unicode="&#x43a;" horiz-adv-x="529" 
d="M287 253l0.00292969 -2.00195c13.333 -1.33301 25.666 -3.5 36.999 -6.5s22 -8.16699 32 -15.5s18.667 -14 26 -20s15.5 -16 24.5 -30l21 -33.5c5 -8.33301 12 -22.833 21 -43.5l20 -46.5l22.5 -55.5h-67c-36 84.667 -61.667 138.334 -77 161.001
c-29.333 42.667 -68 64.667 -116 66h-4h-83c2.66699 -22.667 4 -39.667 4 -51v-176h-63v484h63v-150c0 -16.667 -1.66699 -35.667 -5 -57h80c20 0 38.167 3.83301 54.5 11.5s30 16.334 41 26.001s22.667 25.167 35 46.5s21.833 39.5 28.5 54.5l29 68.5h66l-26 -62.5
c-5.33301 -12.333 -13.5 -29.5 -24.5 -51.5s-20.333 -37.833 -28 -47.5s-17.334 -20.5 -29.001 -32.5s-24.334 -20.667 -38.001 -26s-28.5 -9 -44.5 -11z" />
    <glyph glyph-name="uni043B" unicode="&#x43b;" horiz-adv-x="553" 
d="M468 484l-0.00195312 -484.001h-64v434h-123c-21.333 0 -37 -5 -47 -15s-16.333 -26.333 -19 -49c-0.666992 -4.66699 -2 -16 -4 -34s-3.5 -30.5 -4.5 -37.5s-2.5 -18.667 -4.5 -35s-3.83301 -28.666 -5.5 -36.999l-6.5 -33.5c-2.66699 -14 -5.16699 -25.667 -7.5 -35
s-5.16602 -19.5 -8.49902 -30.5s-7 -20.833 -11 -29.5c-24 -62.667 -69 -97 -135 -103l-7 50c24 7.33301 42.5 16.833 55.5 28.5s23.167 26.5 30.5 44.5c4 9.33301 8 20 12 32s7.33301 25.167 10 39.5l7.5 39c2.33301 11.667 4.5 26 6.5 43l4.5 38.5
c1 8.66699 2.33301 21.5 4 38.5s2.83398 27.167 3.50098 30.5c4.66699 36 16.167 62.5 34.5 79.5s45.833 25.5 82.5 25.5h196z" />
    <glyph glyph-name="uni043C" unicode="&#x43c;" horiz-adv-x="738" 
d="M546 484h70c17.333 0 26 -8.33301 26 -25l22 -459h-59l-21 435h-18l-144 -364c-5.33301 -14 -14 -21 -26 -21h-55c-12.667 0 -21.667 7 -27 21l-143 364h-18l-20 -435h-59l22 459c0 16.667 8.66699 25 26 25h70c12 0 20.667 -7 26 -21l118 -301
c9.33301 -22.667 17.333 -45.667 24 -69h17c12.667 37.333 20.667 60.333 24 69l118 301c4.66699 14 13.667 21 27 21z" />
    <glyph glyph-name="uni043D" unicode="&#x43d;" horiz-adv-x="576" 
d="M492 484v-484h-63v233h-282v-233h-62v484h62v-201h282v201h63z" />
    <glyph glyph-name="uni043E" unicode="&#x43e;" 
d="M284 497c81.333 0 138.666 -19.167 171.999 -57.5s50 -104.166 50 -197.499s-16.667 -159 -50 -197s-90.666 -57 -171.999 -57s-138.833 19.167 -172.5 57.5s-50.5 103.833 -50.5 196.5c0 93.333 16.833 159.166 50.5 197.499s91.167 57.5 172.5 57.5zM284 442
c-58.667 0 -99.5 -14.333 -122.5 -43s-34.5 -81 -34.5 -157s11.5 -128.333 34.5 -157s63.833 -43 122.5 -43s99.334 14.333 122.001 43s34 81 34 157s-11.333 128.333 -34 157s-63.334 43 -122.001 43z" />
    <glyph glyph-name="uni043F" unicode="&#x43f;" horiz-adv-x="571" 
d="M486 484v-484h-62v433h-277v-433h-62v484h401z" />
    <glyph glyph-name="uni0440" unicode="&#x440;" horiz-adv-x="575" 
d="M137 484l6 -80.001c62 62 128.667 93 200 93c60 0 103.333 -20.667 130 -62s40 -106.333 40 -195c0 -91.333 -14.167 -156.166 -42.5 -194.499s-74.5 -57.5 -138.5 -57.5c-62.667 0 -125 17 -187 51c3.33301 -26 4.33301 -58 3 -96v-147h-63v688h52zM148 357.999
l0.00292969 -278c74 -24 131 -36 171 -36c47.333 0 80.666 14.167 99.999 42.5s29 79.833 29 154.5c0 73.333 -9.33301 125 -28 155s-50.334 45 -95.001 45c-26.667 0 -53.334 -6.5 -80.001 -19.5s-59 -34.167 -97 -63.5z" />
    <glyph glyph-name="uni0441" unicode="&#x441;" horiz-adv-x="487" 
d="M439 54l7 -43.999c-49.333 -14.667 -102 -22 -158 -22c-83.333 0 -142 19 -176 57s-51 103.667 -51 197s17 159.166 51 197.499s92.667 57.5 176 57.5c59.333 0 109 -7.33301 149 -22l-10 -41c-35.333 5.33301 -78.333 8 -129 8c-64 0 -108.5 -14.167 -133.5 -42.5
s-37.5 -80.833 -37.5 -157.5s12.5 -129 37.5 -157s69.5 -42 133.5 -42c56 0 103 3.66699 141 11z" />
    <glyph glyph-name="uni0442" unicode="&#x442;" horiz-adv-x="483" 
d="M456 432h-183v-432h-63v432h-182v52h428v-52z" />
    <glyph glyph-name="uni0443" unicode="&#x443;" horiz-adv-x="522" 
d="M499 484l-204.001 -518.001c-25.333 -66 -55 -112 -89 -138c-41.333 -30.667 -95.666 -41 -162.999 -31l6 43c50.667 -2.66699 90 6 118 26c26 20.667 49 56.334 69 107.001l12 27h-16c-12.667 0 -21 5.66699 -25 17l-184 467h68l143 -378c8 -21.333 14.667 -40 20 -56
h14l21 57l142 377h68z" />
    <glyph glyph-name="uni0444" unicode="&#x444;" horiz-adv-x="711" 
d="M385 700v-204c96 -2.66699 164.333 -23.667 205 -63s61 -103 61 -191s-20.333 -151.5 -61 -190.5s-109 -60.167 -205 -63.5v-192h-59v192c-96.667 3.33301 -165.167 24.5 -205.5 63.5s-60.5 102.5 -60.5 190.5s20.167 151.667 60.5 191s108.833 60.333 205.5 63v204h59z
M328 43v399c-76 -2.66699 -129.333 -18.667 -160 -48s-46 -80 -46 -152s15.333 -122.5 46 -151.5s84 -44.833 160 -47.5zM384 442v-398.998c76 2.66699 129.167 18.5 159.5 47.5s45.5 79.5 45.5 151.5c0 71.333 -15.167 121.666 -45.5 150.999s-83.5 45.666 -159.5 48.999z
" />
    <glyph glyph-name="uni0445" unicode="&#x445;" horiz-adv-x="522" 
d="M272 227h-22l-151 -227h-71l170 251l-157 233h70l137 -206h26l137 206h70l-157 -233l169 -251h-70z" />
    <glyph glyph-name="uni0446" unicode="&#x446;" horiz-adv-x="584" 
d="M541 -143h-43l-7 143h-406v484h63v-432h268v432h63v-432h62v-195z" />
    <glyph glyph-name="uni0447" unicode="&#x447;" horiz-adv-x="522" 
d="M437 484l0.00195312 -484h-63v216c-65.333 -28 -132.333 -42 -201 -42c-76.667 0 -115 35 -115 105v205h63v-186c0 -25.333 5.66699 -43.5 17 -54.5s29.666 -16.5 54.999 -16.5c59.333 0 119.666 13.333 180.999 40v217h63z" />
    <glyph glyph-name="uni0448" unicode="&#x448;" horiz-adv-x="797" 
d="M712 484v-484h-627v484h62v-432h222v432h58v-432h224v432h61z" />
    <glyph glyph-name="uni0449" unicode="&#x449;" horiz-adv-x="819" 
d="M775 -143h-43l-7 143h-640v484h62v-432h223v432h57v-432h225v432h61v-432h62v-195z" />
    <glyph glyph-name="uni044A" unicode="&#x44a;" horiz-adv-x="629" 
d="M265 287l129 0.000976562c71.333 0 120.5 -10.833 147.5 -32.5s40.5 -59.834 40.5 -114.501c0 -56 -13.5 -94.333 -40.5 -115s-73.167 -31 -138.5 -31c-84 0 -150.667 2 -200 6v433h-176v51h238v-197zM265 239.001l-0.00195312 -193.001
c9.33301 0 28.5 -0.166992 57.5 -0.5s52.833 -0.5 71.5 -0.5c46.667 0 78.834 6.66699 96.501 20s26.5 39.333 26.5 78c0 36.667 -8.66699 61.834 -26 75.501s-49.666 20.5 -96.999 20.5h-129z" />
    <glyph glyph-name="uni044B" unicode="&#x44b;" horiz-adv-x="705" 
d="M146 287l131.001 0.000976562c67.333 0 113.666 -10.833 138.999 -32.5s38 -59.834 38 -114.501c0 -56 -12.5 -94.333 -37.5 -115s-68.5 -31 -130.5 -31c-84 0 -150.667 2 -200 6h-1v484h61v-197zM619.001 484.001v-484h-63v484h63zM146.001 239.001l0.00195312 -193.001
c9.33301 0 28.666 -0.166992 57.999 -0.5s53.666 -0.5 72.999 -0.5c42 0 71.167 6.66699 87.5 20s24.5 39.333 24.5 78c0 36.667 -7.83301 61.834 -23.5 75.501s-45.167 20.5 -88.5 20.5h-131z" />
    <glyph glyph-name="uni044C" unicode="&#x44c;" horiz-adv-x="512" 
d="M146 287l131 0.000976562c71.333 0 120.5 -10.833 147.5 -32.5s40.5 -59.834 40.5 -114.501c0 -56 -13.5 -94.333 -40.5 -115s-73.167 -31 -138.5 -31c-84 0 -150.667 2 -200 6h-1v484h61v-197zM146 239.001v-193.001c9.33301 0 28.666 -0.166992 57.999 -0.5
s53.666 -0.5 72.999 -0.5c46.667 0 78.834 6.66699 96.501 20s26.5 39.333 26.5 78c0 36.667 -8.66699 61.834 -26 75.501s-49.666 20.5 -96.999 20.5h-131z" />
    <glyph glyph-name="uni044D" unicode="&#x44d;" horiz-adv-x="498" 
d="M56 429l-6.99805 45.001c38.667 10.667 91 16 157 16c85.333 0 145.166 -18.5 179.499 -55.5s51.5 -101.833 51.5 -194.5c0 -92 -17.167 -156.5 -51.5 -193.5s-94.166 -55.5 -179.499 -55.5c-64 0 -118.333 5.66699 -163 17l8 45c42.667 -4.66699 94.334 -7 155.001 -7
s103.167 12.667 127.5 38s37.166 71.666 38.499 138.999h-250v48h250c-2.66699 62 -16.334 105 -41.001 129s-66.334 36 -125.001 36c-53.333 0 -103.333 -2.33301 -150 -7z" />
    <glyph glyph-name="uni044E" unicode="&#x44e;" horiz-adv-x="785" 
d="M148 275l136 0.000976562c2.66699 83.333 20 141.166 52 173.499s86 48.5 162 48.5c84 0 142.667 -18.333 176 -55s50 -103 50 -199c0 -94.667 -16.667 -160.167 -50 -196.5s-92 -54.5 -176 -54.5c-78 0 -132.833 16.833 -164.5 50.5s-48.167 94.5 -49.5 182.5h-136v-225
h-63v484h63v-209zM497 46.001c60.667 0 102.5 14.1689 125.5 42.502s34.833 80.166 35.5 155.499c-0.666992 75.333 -12.5 127.166 -35.5 155.499s-64.833 42.5 -125.5 42.5c-57.333 0 -97 -14.167 -119 -42.5s-33 -80.166 -33 -155.499c0 -74.667 11 -126.334 33 -155.001
s61.667 -43 119 -43z" />
    <glyph glyph-name="uni044F" unicode="&#x44f;" horiz-adv-x="537" 
d="M186 207l-0.000976562 3c-76.667 6.66699 -115 53 -115 139c0 44.667 13.167 79.167 39.5 103.5s70.5 36.5 132.5 36.5c90 0 159.667 -2.33301 209 -7v-482h-62v186h-141c-55.333 0 -88.333 -19 -99 -57l-38 -129h-66l45 143c10.667 36 42.334 57.333 95.001 64z
M389.999 234v201.001c-23.333 0.666992 -72 1 -146 1c-41.333 0 -70 -7.83301 -86 -23.5s-24 -40.167 -24 -73.5c0 -36.667 8.66699 -63.334 26 -80.001s48 -25 92 -25h138z" />
    <glyph glyph-name="uni0451" unicode="&#x451;" horiz-adv-x="535" 
d="M202 590h-22c-12.667 0 -19 6.66699 -19 20v55c0 12.667 6.33301 19 19 19h22c12 0 18 -6.33301 18 -19v-55c0 -13.333 -6 -20 -18 -20zM379 590h-22c-12.667 0 -19 6.66699 -19 20v55c0 12.667 6.33301 19 19 19h22c12.667 0 19 -6.33301 19 -19v-55
c0 -13.333 -6.33301 -20 -19 -20zM369 211h-242.003c4 -64 18.667 -108 44 -132s66.333 -36 123 -36c50.667 0 106.667 4 168 12l7 -43c-40.667 -16 -101.667 -24 -183 -24s-139.166 19.5 -173.499 58.5s-51.5 104.833 -51.5 197.5c0 93.333 16.667 158.833 50 196.5
s89 56.5 167 56.5c68.667 0 119.334 -12.5 152.001 -37.5s49.334 -62.833 50.001 -113.5c1.33301 -90 -35.667 -135 -111 -135zM126.997 261h227.001c42.667 0 63.334 28 62.001 84c-0.666992 34 -11.667 58.667 -33 74s-55.333 23 -102 23
c-56.667 0 -96.334 -13.167 -119.001 -39.5s-34.334 -73.5 -35.001 -141.5z" />
    <glyph glyph-name="uni0452" unicode="&#x452;" horiz-adv-x="578" 
d="M171 500l-0.000976562 -99c0 -30.667 -1.66699 -60 -5 -88c80.667 57.333 154.334 86 221.001 86c88 0 132 -44.333 132 -133v-266h-64v250c0 32.667 -7.16699 56 -21.5 70s-38.166 21 -71.499 21c-28.667 0 -57.334 -6 -86.001 -18s-64 -31.333 -106 -58v-265h-64v500
h-77v39h77v161h64v-161h198v-39h-197z" />
    <glyph glyph-name="uni0453" unicode="&#x453;" horiz-adv-x="454" 
d="M406 678l-178 -128l-24 30l164 146zM82 0v384.001c0 33.333 8.66699 58.666 26 75.999s42.666 26 75.999 26c110.667 0 192.334 -2 245.001 -6l-2 -46h-218c-42.667 0 -64 -21.667 -64 -65v-369h-63z" />
    <glyph glyph-name="uni0454" unicode="&#x454;" horiz-adv-x="499" 
d="M448 53l7 -45c-43.333 -11.333 -97.666 -17 -162.999 -17c-84.667 0 -144.167 18.667 -178.5 56s-51.5 101.666 -51.5 192.999c0 92.667 17 157.5 51 194.5s93.667 55.5 179 55.5c66.667 0 119.334 -5.33301 158.001 -16l-8 -45c-46 4.66699 -96 7 -150 7
c-58 0 -99.333 -12 -124 -36s-38.334 -67 -41.001 -129h250v-48h-251c1.33301 -67.333 14.166 -113.666 38.499 -138.999s66.833 -38 127.5 -38c61.333 0 113.333 2.33301 156 7z" />
    <glyph glyph-name="uni0455" unicode="&#x455;" horiz-adv-x="507" 
d="M311 205l-148.002 27.999c-38 7.33301 -65.5 21.166 -82.5 41.499s-25.5 50.5 -25.5 90.5c0 54.667 13.833 90.5 41.5 107.5s75.834 25.167 144.501 24.5c73.333 -1.33301 139.333 -6.33301 198 -15l-6 -46c-80 4 -141.333 6 -184 6
c-53.333 0.666992 -88.666 -3.16602 -105.999 -11.499s-26 -30.166 -26 -65.499c0 -27.333 5.66699 -46.333 17 -57s30.333 -18.667 57 -24l149 -28c38.667 -8 67 -21.833 85 -41.5s27 -49.167 27 -88.5c0 -56.667 -15.167 -93.667 -45.5 -111s-82.166 -26 -155.499 -26
c-66 0 -127.667 4.33301 -185 13l5 47c52.667 -4.66699 109 -6.66699 169 -6c59.333 0.666992 99.166 6.16699 119.499 16.5s30.5 32.5 30.5 66.5c0 26 -6.33301 44.333 -19 55s-32.667 18.667 -60 24z" />
    <glyph glyph-name="uni0456" unicode="&#x456;" horiz-adv-x="240" 
d="M105 688h30c14 0 21 -7 21 -21v-58c0 -14 -7 -21 -21 -21h-30c-13.333 0 -20 7 -20 21v58c0 14 6.66699 21 20 21zM152 0h-63v484h63v-484z" />
    <glyph glyph-name="uni0457" unicode="&#x457;" horiz-adv-x="240" 
d="M20 684h22c12 0 18 -6.33301 18 -19v-55c0 -13.333 -6 -20 -18 -20h-22c-12.667 0 -19 6.66699 -19 20v55c0 12.667 6.33301 19 19 19zM197 684h22c12.667 0 19 -6.33301 19 -19v-55c0 -13.333 -6.33301 -20 -19 -20h-22c-12.667 0 -19 6.66699 -19 20v55
c0 12.667 6.33301 19 19 19zM152 0h-63v484h63v-484z" />
    <glyph glyph-name="uni0458" unicode="&#x458;" horiz-adv-x="241" 
d="M106 688h29c14 0 21 -7 21 -21v-58c0 -14 -7 -21 -21 -21h-29c-14 0 -21 7 -21 21v58c0 14 7 21 21 21zM152 484v-508c0 -74 -28 -134.667 -84 -182l-34 28c36.667 46.667 55 98 55 154v508h63z" />
    <glyph glyph-name="uni0459" unicode="&#x459;" horiz-adv-x="791" 
d="M443 293l119 0.000976562c68.667 0 116.167 -11 142.5 -33s39.5 -61 39.5 -117c0 -60.667 -13.833 -100.667 -41.5 -120s-75.834 -29 -144.501 -29c-70.667 0 -129.334 2 -176.001 6v436h-98c-19.333 0 -33.666 -4 -42.999 -12s-15 -21.333 -17 -40
c-9.33301 -91.333 -17.333 -155 -24 -191s-18 -69.667 -34 -101c-25.333 -56 -68.666 -87.333 -129.999 -94l-7 45c36.667 16 63 38 79 66c22.667 39.333 40.667 123.666 54 252.999c2 14.667 3.33301 25.667 4 33c6 59.333 40.667 89 104 89h173v-191zM443 246.001
l0.000976562 -200c20 -0.666992 55 -1 105 -1c50.667 0 85.167 6.16699 103.5 18.5s27.5 39.5 27.5 81.5c0 37.333 -8.33301 63.5 -25 78.5s-47.334 22.5 -92.001 22.5h-119z" />
    <glyph glyph-name="uni045A" unicode="&#x45a;" horiz-adv-x="801" 
d="M452 292l121 -0.000976562c68 0 115 -10.833 141 -32.5s39 -60.167 39 -115.5c0 -57.333 -12.833 -96.666 -38.5 -117.999s-70.167 -32 -133.5 -32c-78.667 0 -141.667 2 -189 6v244h-248v-244h-59v484h59v-193h248v193h60v-192zM452 244.999v-199
c20.667 -0.666992 61 -1 121 -1c44 0 74.333 6.66699 91 20s25 40 25 80c0 37.333 -8.16699 63.333 -24.5 78s-46.833 22 -91.5 22h-121z" />
    <glyph glyph-name="uni045B" unicode="&#x45b;" horiz-adv-x="578" 
d="M171 500l0.000976562 -98.999c0 -30.667 -1.66699 -60 -5 -88c80.667 57.333 154.334 86 221.001 86c86.667 0 130.667 -44.333 132 -133v-290c0 -73.333 -28 -134 -84 -182l-35 28c36.667 45.333 55 96.666 55 153.999v274c0 32 -7.33301 55.167 -22 69.5
s-38.334 21.5 -71.001 21.5c-28.667 0 -57.334 -6 -86.001 -18s-64 -31.333 -106 -58v-265h-64v500h-77v39h77v161h64v-161h198v-39h-197z" />
    <glyph glyph-name="uni045C" unicode="&#x45c;" horiz-adv-x="529" 
d="M242 550l-24 30l164 146l38 -48zM287 253l0.00292969 -2.00195c13.333 -1.33301 25.666 -3.5 36.999 -6.5s22 -8.16699 32 -15.5s18.667 -14 26 -20s15.5 -16 24.5 -30l21 -33.5c5 -8.33301 12 -22.833 21 -43.5l20 -46.5l22.5 -55.5h-67
c-36 84.667 -61.667 138.334 -77 161.001c-29.333 42.667 -68 64.667 -116 66h-4h-83c2.66699 -22.667 4 -39.667 4 -51v-176h-63v484h63v-150c0 -16.667 -1.66699 -35.667 -5 -57h80c20 0 38.167 3.83301 54.5 11.5s30 16.334 41 26.001s22.667 25.167 35 46.5
s21.833 39.5 28.5 54.5l29 68.5h66l-26 -62.5c-5.33301 -12.333 -13.5 -29.5 -24.5 -51.5s-20.333 -37.833 -28 -47.5s-17.334 -20.5 -29.001 -32.5s-24.334 -20.667 -38.001 -26s-28.5 -9 -44.5 -11z" />
    <glyph glyph-name="uni045D" unicode="&#x45d;" horiz-adv-x="585" 
d="M333 580l-24 -30l-178 128l37 48zM500 0l-57.999 0.000976562v348c0 12 0.666992 32 2 60h-2c-6.66699 -14 -17.334 -31 -32.001 -51l-273 -357h-52v484h57v-346c0 -26.667 -0.333008 -47.334 -1 -62.001h2c12.667 22.667 23.667 40 33 52l272 356h52v-484z" />
    <glyph glyph-name="uni045E" unicode="&#x45e;" horiz-adv-x="522" 
d="M357 700h50.001c1.33301 -38 -11 -69.5 -37 -94.5s-61.667 -37.5 -107 -37.5s-81.333 12.5 -108 37.5s-39.334 56.5 -38.001 94.5h51c0 -30 8.33301 -53.333 25 -70s40 -25 70 -25c29.333 0 52.333 8.33301 69 25s25 40 25 70zM499.001 484l-204.001 -518.001
c-25.333 -66 -55 -112 -89 -138c-41.333 -30.667 -95.666 -41 -162.999 -31l6 43c50.667 -2.66699 90 6 118 26c26 20.667 49 56.334 69 107.001l12 27h-16c-12.667 0 -21 5.66699 -25 17l-184 467h68l143 -378c8 -21.333 14.667 -40 20 -56h14l21 57l142 377h68z" />
    <glyph glyph-name="uni045F" unicode="&#x45f;" horiz-adv-x="574" 
d="M489 484v-484h-174l-6 -166h-43l-7 166h-174v484h64v-432h277v432h63z" />
    <glyph glyph-name="uni0490" unicode="&#x490;" horiz-adv-x="520" 
d="M496 680l-3 -45.001h-265c-48 0 -72 -25 -72 -75v-560h-66v571c0 34.667 11.167 63.334 33.5 86.001s50.5 34 84.5 34c106 0 185 -2 237 -6l8 156h43v-161z" />
    <glyph glyph-name="uni0491" unicode="&#x491;" horiz-adv-x="455" 
d="M430 631l-0.000976562 -151l-3 -46h-218c-22 0 -38 -5.16699 -48 -15.5s-15 -26.833 -15 -49.5v-369h-63v384c0 68 34 102 102 102c86.667 0 151.334 -1 194.001 -3l8 148h43z" />
    <glyph glyph-name="uni04B0" unicode="&#x4b0;" horiz-adv-x="572" 
d="M473 230h-154v-230h-65v230h-155v41h143l-220 419h70l158 -306c0.666992 -1.33301 12 -26 34 -74h6c8.66699 20.667 19.667 45 33 73l158 307h69l-218 -419h141v-41z" />
    <glyph glyph-name="uni04B1" unicode="&#x4b1;" horiz-adv-x="576" 
d="M333 67l142 0.00195312v-42h-154v-229h-65v229h-155v42h143l-220 417h70l157 -304c0.666992 -0.666992 12 -25.334 34 -74.001h7c14.667 35.333 25.667 59.666 33 72.999l157 305h70z" />
    <glyph glyph-name="uni04B6" unicode="&#x4b6;" horiz-adv-x="641" 
d="M606 47l0.000976562 -198h-45l-8 151h-92v324c-80 -44.667 -161.333 -67 -244 -67c-102 0 -153 50.667 -153 152v281h66v-268c-0.666992 -37.333 7.66602 -64.5 24.999 -81.5s45 -25.5 83 -25.5c39.333 0 75.5 4.66699 108.5 14s71.167 26 114.5 50v311h65v-643h80z" />
    <glyph glyph-name="uni04B7" unicode="&#x4b7;" horiz-adv-x="542" 
d="M499 52l0.00195312 -195h-42l-8 143h-75v216c-65.333 -28 -132.333 -42 -201 -42c-76.667 0 -115 35 -115 105v205h63v-186c0 -25.333 5.66699 -43.5 17 -54.5s29.666 -16.5 54.999 -16.5c59.333 0 119.666 13.333 180.999 40v217h63v-432h62z" />
    <glyph glyph-name="uni04BA" unicode="&#x4ba;" horiz-adv-x="619" 
d="M158 690l-0.000976562 -324c78 44.667 159 67 243 67c102.667 0 154 -50.667 154 -152v-281h-66v268c0.666992 37.333 -7.66602 64.5 -24.999 81.5s-45.333 25.5 -84 25.5c-72 0 -146 -21 -222 -63v-312h-65v690h65z" />
    <glyph glyph-name="uni04C0" unicode="&#x4c0;" horiz-adv-x="252" 
d="M159 0h-66v690h66v-690z" />
    <glyph glyph-name="Wgrave" unicode="&#x1e80;" horiz-adv-x="941" 
d="M518 760l-24 -30l-178 128l37 48zM910 690l-155.999 -670.001c-3.33301 -13.333 -12.333 -20 -27 -20h-79c-15.333 0 -24.666 7 -27.999 21l-121 541l-17 77h-22l-18 -77l-121 -541c-3.33301 -14 -12.333 -21 -27 -21h-80c-14.667 0 -23.667 6.66699 -27 20l-155 670h69
l126 -559c5.33301 -22 10.666 -48.667 15.999 -80h25c5.33301 28.667 10.666 55 15.999 79l122 537c3.33301 15.333 12.333 23 27 23h75c14.667 0 23.667 -7.66699 27 -23l122 -537c3.33301 -14 8.66602 -40.333 15.999 -79h26c1.33301 6 2.83301 14.333 4.5 25
s3.33398 20.334 5.00098 29.001s3.5 16.667 5.5 24l127 561h69z" />
    <glyph glyph-name="wgrave" unicode="&#x1e81;" horiz-adv-x="820" 
d="M456 580l-24 -30l-178 128l38 48zM792 484l-150.997 -465.001c-4 -12.667 -12.667 -19 -26 -19h-59c-14 0 -22.667 7 -26 21l-96 347c-2.66699 8 -6 20.333 -10 37l-9 38h-11l-19 -75l-95 -347c-3.33301 -14 -12.333 -21 -27 -21h-58c-14 0 -22.667 6.33301 -26 19
l-151 465h66l114 -371c3.33301 -11.333 9.66602 -34.666 18.999 -69.999h13l19 70l97 351c3.33301 13.333 11.666 20 24.999 20h58c13.333 0 21.666 -7 24.999 -21l97 -350l18 -70h14l18 70l115 371h66z" />
    <glyph glyph-name="Wacute" unicode="&#x1e82;" horiz-adv-x="941" 
d="M614 858l-178 -128l-24 30l164 146zM910 690l-155.999 -670.001c-3.33301 -13.333 -12.333 -20 -27 -20h-79c-15.333 0 -24.666 7 -27.999 21l-121 541l-17 77h-22l-18 -77l-121 -541c-3.33301 -14 -12.333 -21 -27 -21h-80c-14.667 0 -23.667 6.66699 -27 20l-155 670
h69l126 -559c5.33301 -22 10.666 -48.667 15.999 -80h25c5.33301 28.667 10.666 55 15.999 79l122 537c3.33301 15.333 12.333 23 27 23h75c14.667 0 23.667 -7.66699 27 -23l122 -537c3.33301 -14 8.66602 -40.333 15.999 -79h26c1.33301 6 2.83301 14.333 4.5 25
s3.33398 20.334 5.00098 29.001s3.5 16.667 5.5 24l127 561h69z" />
    <glyph glyph-name="wacute" unicode="&#x1e83;" horiz-adv-x="820" 
d="M553 678l-178 -128l-24 30l164 146zM792 484l-150.997 -465.001c-4 -12.667 -12.667 -19 -26 -19h-59c-14 0 -22.667 7 -26 21l-96 347c-2.66699 8 -6 20.333 -10 37l-9 38h-11l-19 -75l-95 -347c-3.33301 -14 -12.333 -21 -27 -21h-58c-14 0 -22.667 6.33301 -26 19
l-151 465h66l114 -371c3.33301 -11.333 9.66602 -34.666 18.999 -69.999h13l19 70l97 351c3.33301 13.333 11.666 20 24.999 20h58c13.333 0 21.666 -7 24.999 -21l97 -350l18 -70h14l18 70l115 371h66z" />
    <glyph glyph-name="Wdieresis" unicode="&#x1e84;" horiz-adv-x="941" 
d="M372 864h22c12 0 18 -6.33301 18 -19v-55c0 -13.333 -6 -20 -18 -20h-22c-12.667 0 -19 6.66699 -19 20v55c0 12.667 6.33301 19 19 19zM549 864h22c12.667 0 19 -6.33301 19 -19v-55c0 -13.333 -6.33301 -20 -19 -20h-22c-12.667 0 -19 6.66699 -19 20v55
c0 12.667 6.33301 19 19 19zM910 690l-155.999 -670.001c-3.33301 -13.333 -12.333 -20 -27 -20h-79c-15.333 0 -24.666 7 -27.999 21l-121 541l-17 77h-22l-18 -77l-121 -541c-3.33301 -14 -12.333 -21 -27 -21h-80c-14.667 0 -23.667 6.66699 -27 20l-155 670h69l126 -559
c5.33301 -22 10.666 -48.667 15.999 -80h25c5.33301 28.667 10.666 55 15.999 79l122 537c3.33301 15.333 12.333 23 27 23h75c14.667 0 23.667 -7.66699 27 -23l122 -537c3.33301 -14 8.66602 -40.333 15.999 -79h26c1.33301 6 2.83301 14.333 4.5 25
s3.33398 20.334 5.00098 29.001s3.5 16.667 5.5 24l127 561h69z" />
    <glyph glyph-name="wdieresis" unicode="&#x1e85;" horiz-adv-x="820" 
d="M310 684h22c12.667 0 19 -6.33301 19 -19v-55c0 -13.333 -6.33301 -20 -19 -20h-22c-12 0 -18 6.66699 -18 20v55c0 12.667 6 19 18 19zM488 684h21c12.667 0 19 -6.33301 19 -19v-55c0 -13.333 -6.33301 -20 -19 -20h-21c-12.667 0 -19 6.66699 -19 20v55
c0 12.667 6.33301 19 19 19zM792 484l-150.997 -465.001c-4 -12.667 -12.667 -19 -26 -19h-59c-14 0 -22.667 7 -26 21l-96 347c-2.66699 8 -6 20.333 -10 37l-9 38h-11l-19 -75l-95 -347c-3.33301 -14 -12.333 -21 -27 -21h-58c-14 0 -22.667 6.33301 -26 19l-151 465h66
l114 -371c3.33301 -11.333 9.66602 -34.666 18.999 -69.999h13l19 70l97 351c3.33301 13.333 11.666 20 24.999 20h58c13.333 0 21.666 -7 24.999 -21l97 -350l18 -70h14l18 70l115 371h66z" />
    <glyph glyph-name="Ygrave" unicode="&#x1ef2;" horiz-adv-x="559" 
d="M301 731l-177 128l37 48l164 -146zM312 247v-247h-65v248l-232 442h70l158 -306c8.66699 -17.333 19.667 -42 33 -74h7c8.66699 20.667 19.667 45 33 73l158 307h69z" />
    <glyph glyph-name="ygrave" unicode="&#x1ef3;" horiz-adv-x="521" 
d="M285 550l-178 128l38 48l164 -146zM498 484l-204.001 -518.004c-19.333 -49.333 -43.666 -89.166 -72.999 -119.499s-69 -48.166 -119 -53.499l-8 41c38 12.667 67.667 30.334 89 53.001s38.666 51.334 51.999 86.001l12 27h-16c-12.667 0 -21 5.66699 -25 17l-184 467
h68l143 -378c10.667 -28 17.334 -46.667 20.001 -56h14l21 57l142 377h68z" />
    <glyph glyph-name="endash" unicode="&#x2013;" horiz-adv-x="603" 
d="M526 227h-449v50h449v-50z" />
    <glyph glyph-name="emdash" unicode="&#x2014;" horiz-adv-x="909" 
d="M832 227h-755v50h755v-50z" />
    <glyph glyph-name="quoteleft" unicode="&#x2018;" horiz-adv-x="210" 
d="M114 507h-18c-16 0 -24 8 -24 24v61c1.33301 49.333 10.666 95.333 27.999 138l30 -9c-5.33301 -34 -8 -71.333 -8 -112c12.667 0 18.334 -6.66699 17.001 -20v-58c0 -16 -8.33301 -24 -25 -24z" />
    <glyph glyph-name="quoteright" unicode="&#x2019;" horiz-adv-x="207" 
d="M95 723h19c15.333 0 23 -8 23 -24v-61c-1.33301 -50 -10.666 -96.333 -27.999 -139l-29 9c4.66699 36.667 7 74 7 112c-12.667 0 -18.334 7 -17.001 21v58c0.666992 16 9 24 25 24z" />
    <glyph glyph-name="quotesinglbase" unicode="&#x201a;" horiz-adv-x="221" 
d="M102 103h18.999c16 0 24 -8 24 -24v-61c-1.33301 -51.333 -11 -97.666 -29 -138.999l-30 9c5.33301 41.333 8 78.666 8 111.999c-13.333 0 -19.333 7 -18 21v58c0.666992 16 9.33398 24 26.001 24z" />
    <glyph glyph-name="quotedblleft" unicode="&#x201c;" horiz-adv-x="349" 
d="M253 507h-19c-15.333 0 -23 8 -23 24v61c1.33301 49.333 10.666 95.333 27.999 138l30 -9c-5.33301 -34 -8 -71.333 -8 -112c12.667 0 18.334 -6.66699 17.001 -20v-58c0 -16 -8.33301 -24 -25 -24zM114 507h-18c-16 0 -24 8 -24 24v61
c1.33301 49.333 10.666 95.333 27.999 138l30 -9c-5.33301 -34 -8 -71.333 -8 -112c12.667 0 18.334 -6.66699 17.001 -20v-58c0 -16 -8.33301 -24 -25 -24z" />
    <glyph glyph-name="quotedblright" unicode="&#x201d;" horiz-adv-x="346" 
d="M95 723h19c15.333 0 23 -8 23 -24v-61c-1.33301 -50 -10.666 -96.333 -27.999 -139l-29 9c4.66699 36.667 7 74 7 112c-12.667 0 -18.334 7 -17.001 21v58c0.666992 16 9 24 25 24zM234 723h19c15.333 0 23 -8 23 -24v-61c-1.33301 -50 -10.666 -96.333 -27.999 -139
l-29 9c4.66699 36.667 7 74 7 112c-12.667 0 -18.334 7 -17.001 21v58c0.666992 16 9 24 25 24z" />
    <glyph glyph-name="quotedblbase" unicode="&#x201e;" horiz-adv-x="360" 
d="M101 103l19 0.000976562c16 0 24 -8 24 -24v-61c-1.33301 -50 -10.666 -96.333 -27.999 -139l-30 9c5.33301 41.333 8 78.666 8 111.999c-12.667 0 -18.334 7 -17.001 21v58c0 16 8 24 24 24zM240 103.001l19 0.000976562c16 0 24 -8 24 -24v-61
c-1.33301 -50 -10.666 -96.333 -27.999 -139l-30 9c5.33301 41.333 8 78.666 8 111.999c-12.667 0 -18.334 7 -17.001 21v58c0 16 8 24 24 24z" />
    <glyph glyph-name="dagger" unicode="&#x2020;" horiz-adv-x="446" 
d="M250 -110h-54v590l-3 211h60l-3 -211v-590zM47 427v57h132v-49zM399 484v-57l-132 8v49h132z" />
    <glyph glyph-name="daggerdbl" unicode="&#x2021;" horiz-adv-x="483" 
d="M268 483v-385l3 -208h-59l2 208v385l-2 208h59zM417 427l-132 8v49h132v-57zM197 435l-132 -8v57h132v-49zM197 146v-49h-132v57zM417 97h-132v49l132 8v-57z" />
    <glyph glyph-name="bullet" unicode="&#x2022;" horiz-adv-x="359" 
d="M175 351h11c28.667 0 48.5 -5.66699 59.5 -17s16.5 -31.333 16.5 -60v-11c0 -29.333 -5.5 -49.833 -16.5 -61.5s-30.833 -17.5 -59.5 -17.5h-11c-30 0 -50.667 5.83301 -62 17.5s-17 32.167 -17 61.5v11c0 28.667 5.66699 48.667 17 60s32 17 62 17z" />
    <glyph glyph-name="ellipsis" unicode="&#x2026;" horiz-adv-x="818" 
d="M98 107h21c16.667 0 25 -8.33301 25 -25v-57c0 -16.667 -8.33301 -25 -25 -25h-21c-16.667 -0 -25 8.33301 -25 25v57c0 16.667 8.33301 25 25 25zM396 107h22c16.667 0 25 -8.33301 25 -25v-57c0 -16.667 -8.33301 -25 -25 -25h-22c-16 -0 -24 8.33301 -24 25v57
c0 16.667 8 25 24 25zM695 107h22c16.667 0 25 -8.33301 25 -25v-57c0 -16.667 -8.33301 -25 -25 -25h-22c-16 -0 -24 8.33301 -24 25v57c0 16.667 8 25 24 25z" />
    <glyph glyph-name="perthousand" unicode="&#x2030;" horiz-adv-x="1258" 
d="M209 702c58 0 98.667 -15.667 122 -47s35 -83.666 35 -156.999s-11.667 -125.666 -35 -156.999s-64 -47 -122 -47s-98.667 15.667 -122 47s-35 83.666 -35 156.999s11.667 125.666 35 156.999s64 47 122 47zM238 0h-48l459 690h48zM208 661
c-39.333 0 -66.833 -12.167 -82.5 -36.5s-23.5 -66.5 -23.5 -126.5s7.83301 -102.167 23.5 -126.5s43.167 -36.5 82.5 -36.5c40.667 0 68.667 12.167 84 36.5s23 66.5 23 126.5s-7.66699 102.167 -23 126.5s-43.333 36.5 -84 36.5zM681 401
c57.333 0 97.833 -15.833 121.5 -47.5s35.5 -84.167 35.5 -157.5s-11.667 -125.666 -35 -156.999s-64 -47 -122 -47s-98.667 15.667 -122 47s-35 83.666 -35 156.999s11.833 125.833 35.5 157.5s64.167 47.5 121.5 47.5zM1047 401c57.333 0 97.833 -15.833 121.5 -47.5
s35.5 -84.167 35.5 -157.5s-11.667 -125.666 -35 -156.999s-64 -47 -122 -47c-57.333 0 -97.666 15.667 -120.999 47s-35 83.666 -35 156.999s11.667 125.833 35 157.5s63.666 47.5 120.999 47.5zM680 359c-39.333 0 -66.833 -12.333 -82.5 -37s-23.167 -66.667 -22.5 -126
c-0.666992 -59.333 6.83301 -101.333 22.5 -126s43.167 -37 82.5 -37c40 0 67.833 12.167 83.5 36.5s23.5 66.5 23.5 126.5s-7.83301 102.167 -23.5 126.5s-43.5 36.5 -83.5 36.5zM1047 359c-40 0 -67.667 -12.167 -83 -36.5s-23 -66.5 -23 -126.5
s7.66699 -102.167 23 -126.5s43 -36.5 83 -36.5s67.833 12.167 83.5 36.5s23.5 66.5 23.5 126.5s-7.83301 102.167 -23.5 126.5s-43.5 36.5 -83.5 36.5z" />
    <glyph glyph-name="guilsinglleft" unicode="&#x2039;" horiz-adv-x="264" 
d="M225 435l-134 -184l135 -187l-33 -22l-162 201v16l161 198z" />
    <glyph glyph-name="guilsinglright" unicode="&#x203a;" horiz-adv-x="265" 
d="M234 259v-16l-163 -201l-34 22l135 187l-134 184l34 22z" />
    <glyph glyph-name="fraction" unicode="&#x2044;" horiz-adv-x="160" 
d="M-126 0h-48l459 690h48z" />
    <glyph glyph-name="Euro" unicode="&#x20ac;" horiz-adv-x="642" 
d="M579 59l8 -50c-50.667 -14 -108.667 -21 -174 -21c-86 0 -149.667 22.833 -191 68.5s-66 115.5 -74 209.5h-90v42h87v37c0 24.667 0.333008 43 1 55h-87v42h90c10 88 35.667 153.333 77 196s103.666 64 186.999 64c62.667 0 117.334 -6.33301 164.001 -19l-9 -50
c-53.333 8 -106 11.333 -158 10c-58.667 -1.33301 -103.167 -18.333 -133.5 -51s-49.833 -82.667 -58.5 -150h267l-7 -42h-263c-1.33301 -24 -2 -42.667 -2 -56l1 -36h227l-8 -42h-217c6.66699 -73.333 25.167 -128 55.5 -164s76.5 -54.333 138.5 -55
c64 -0.666992 120.333 3.33301 169 12z" />
    <glyph glyph-name="trademark" unicode="&#x2122;" horiz-adv-x="958" 
d="M879 316h-43.999l-16 343h-13l-105 -286c-3.33301 -10 -10 -15 -20 -15h-40c-11.333 0 -18 5 -20 15l-105 286h-13l-16 -343h-44l16 360c1.33301 13.333 7.66602 20 18.999 20h53c9.33301 0 15.666 -5.33301 18.999 -16l88 -236c2 -6 4.66699 -15 8 -27s6 -20.667 8 -26
h13l18 54l86 235c2.66699 10.667 9.33398 16 20.001 16h53c12 0 18.667 -6.66699 20 -20zM390.001 696v-40h-136v-340h-48v340h-135v40h319z" />
    <glyph glyph-name="partialdiff" unicode="&#x2202;" horiz-adv-x="570" 
d="M137 653l0.00292969 49.002c56.667 0.666992 104 -1.66602 142 -6.99902s73.167 -15.5 105.5 -30.5s57.166 -36 74.499 -63s30 -62.333 38 -106s10 -96.834 6 -159.501c-3.33301 -54.667 -9.16602 -101.667 -17.499 -141s-21.166 -75.333 -38.499 -108
s-40.833 -57.334 -70.5 -74.001s-65.834 -25 -108.501 -25c-76 0 -130.5 22.333 -163.5 67s-47.833 100.667 -44.5 168c3.33301 68.667 22.666 123.167 57.999 163.5s84.666 60.166 147.999 59.499c74 0 131.667 -29.667 173 -89c2.66699 61.333 0 110.833 -8 148.5
s-24.5 67.667 -49.5 90s-56.333 37.5 -94 45.5s-87.834 12 -150.501 12zM269.003 45.002c30.667 0 56.666 6.83203 77.999 20.499s37.833 33.834 49.5 60.501s20.334 54.667 26.001 84s10.167 65 13.5 107c-44.667 50 -97.667 75 -159 75
c-48 0 -85.167 -15.167 -111.5 -45.5s-40.5 -71.5 -42.5 -123.5c-2 -52.667 8.83301 -95.5 32.5 -128.5s61.5 -49.5 113.5 -49.5z" />
    <glyph glyph-name="emptyset" unicode="&#x2205;" horiz-adv-x="685" 
d="M343 633c80.667 0 149.5 -28.5 206.5 -85.5s85.5 -125.833 85.5 -206.5s-28.5 -149.667 -85.5 -207s-125.833 -86 -206.5 -86s-149.667 28.667 -207 86s-86 126.333 -86 207s28.667 149.5 86 206.5s126.333 85.5 207 85.5zM312 241l54 0.000976562
c0 23.333 4.83301 44.833 14.5 64.5s20.5 35.167 32.5 46.5s22.833 25.833 32.5 43.5s14.5 36.5 14.5 56.5c0 62 -39 93 -117 93c-34 0 -74.667 -3.66699 -122 -11l3 -45c40 6 79.667 9 119 9c44 0 66 -15.333 66 -46c0 -14 -5 -28.833 -15 -44.5
s-21.167 -29.834 -33.5 -42.501s-23.5 -30 -33.5 -52s-15 -46 -15 -72zM359 171.001h-39c-4.66699 0 -7 -2.66699 -7 -8v-37c0 -4.66699 2.33301 -7 7 -7h39c5.33301 0 8 2.33301 8 7v37c0 5.33301 -2.66699 8 -8 8z" />
    <glyph glyph-name="product" unicode="&#x220f;" horiz-adv-x="725" 
d="M684 636h-111v-742h-63v742h-295v-742h-64v742h-110v54h643v-54z" />
    <glyph glyph-name="summation" unicode="&#x2211;" horiz-adv-x="587" 
d="M522 636h-386l174 -283l-188 -399h410v-54h-480v54l187 399l-175 283v54h458v-54z" />
    <glyph glyph-name="minus" unicode="&#x2212;" horiz-adv-x="587" 
d="M509 271h-431v49h431v-49z" />
    <glyph glyph-name="radical" unicode="&#x221a;" horiz-adv-x="560" 
d="M532 876l-267.001 -868c-2 -5.33301 -6.33301 -8 -13 -8h-74c-7.33301 0 -11.666 2.66699 -12.999 8l-126 476h55l114 -439h13l255 831h56z" />
    </font>
</defs>
</svg>
